<svg width="24" height="20" viewBox="0 0 24 20" fill="none" xmlns="http://www.w3.org/2000/svg">
<g clip-path="url(#clip0_102_1004)">
<path d="M23.953 2.46901C23.0545 2.86462 22.1026 3.12575 21.128 3.24401C22.1541 2.62726 22.9224 1.66006 23.291 0.521013C22.34 1.07601 21.286 1.48001 20.164 1.70501C19.4238 0.913442 18.4429 0.388434 17.3737 0.211514C16.3044 0.0345945 15.2067 0.215663 14.251 0.726604C13.2952 1.23754 12.5349 2.04976 12.0881 3.03714C11.6413 4.02451 11.533 5.13178 11.78 6.18701C7.69002 5.99401 4.06502 4.03001 1.63902 1.06101C1.19782 1.81083 0.967687 2.66604 0.973023 3.53601C0.973023 5.24601 1.84302 6.74901 3.16102 7.63201C2.37988 7.60715 1.61599 7.39595 0.933023 7.01601V7.07701C0.93258 8.2134 1.32529 9.31495 2.04453 10.1948C2.76377 11.0746 3.76524 11.6785 4.87902 11.904C4.15732 12.0974 3.40144 12.1264 2.66702 11.989C2.98328 12.9669 3.59685 13.8218 4.42217 14.4343C5.2475 15.0469 6.24341 15.3866 7.27102 15.406C5.53051 16.7719 3.38149 17.5132 1.16902 17.511C0.779023 17.511 0.390023 17.488 -0.000976562 17.444C2.25473 18.8883 4.87754 19.655 7.55602 19.653C16.61 19.653 21.555 12.157 21.555 5.66701C21.555 5.45801 21.555 5.24701 21.54 5.03701C22.506 4.34186 23.3392 3.47882 24 2.48901L23.953 2.46901Z" fill="#718094"/>
</g>
<defs>
<clipPath id="clip0_102_1004">
<rect width="24.001" height="20" fill="white" transform="translate(-0.000976562)"/>
</clipPath>
</defs>
</svg>
