<svg width="178" height="35" viewBox="0 0 178 35" fill="none" xmlns="http://www.w3.org/2000/svg">
<path fill-rule="evenodd" clip-rule="evenodd" d="M27.408 13.3708C28.4611 12.6118 28.9484 10.4884 28.87 7.00071C30.3654 8.38981 31.5517 9.88807 32.4289 11.4955C33.0571 12.6466 34.083 15.8514 33.6705 18.6477C33.2189 21.7087 31.5989 24.5904 31.4262 24.9163C29.8823 27.8297 27.1654 29.9179 26.4282 30.423C25.7506 30.8872 24.0875 31.8095 22.1923 32.4676C20.4198 33.0831 18.1992 33.2052 17.1862 33.2189C15.7888 33.2378 13.5446 32.7452 10.4534 31.741C14.5723 32.447 17.0387 32.6744 17.8525 32.4232C21.4964 31.2985 22.8391 29.456 23.2161 29.023C25.0455 26.922 25.2585 22.9697 25.2341 21.3914C25.202 19.3185 24.3648 17.034 22.7224 14.538C24.7931 14.5189 26.355 14.1298 27.408 13.3708Z" fill="#7ECFF5" stroke="#31BEE8" stroke-width="0.5"/>
<path fill-rule="evenodd" clip-rule="evenodd" d="M26.3483 3.19877C24.8009 2.31993 23.725 1.74033 23.1205 1.45998C21.6461 0.776186 19.7993 0.379258 17.6194 0.478139C15.521 0.57333 13.6094 1.18891 12.8237 1.45998C11.3935 1.95337 7.4619 3.77336 5.24811 6.83249C3.24559 9.59968 2.22558 12.4458 1.90199 14.3867C1.56401 16.4139 1.305 19.9118 2.87801 24.0514C3.17469 24.8322 4.32684 27.241 7.23351 29.8823C8.37883 30.9231 9.72136 32.0757 11.5235 32.6938C13.3256 33.3119 15.0644 33.1313 16.3579 32.6938C16.7818 32.5504 19.1412 31.4805 20.0653 29.8823C20.9018 28.4353 21.1568 26.2101 21.0468 25.3824C20.9344 24.5374 20.6314 22.8267 19.1193 21.4136C17.269 19.6843 14.9248 17.6909 14.2567 16.7783C13.5109 15.7595 12.5999 14.1604 12.5119 12.5372C12.4133 10.7183 13.2161 8.87055 13.8222 7.80521C14.1103 7.29901 15.0696 5.60812 16.3579 4.73678C16.6406 4.54554 18.6492 3.10293 21.4893 2.81078C22.4286 2.71416 24.0482 2.84349 26.3483 3.19877Z" fill="#E16C18"/>
<path fill-rule="evenodd" clip-rule="evenodd" d="M7.35656 30.6695C11.2706 33.7902 14.2283 32.3268 14.9845 32.071C15.4085 31.9276 17.3383 30.7335 18.274 29.0432C19.2097 27.3529 19.2097 25.9986 19.2097 25.0326C19.2097 24.0667 19.0973 22.8501 17.1487 21.2179C15.2001 19.5857 13.568 18.0164 12.5061 16.5228C11.4443 15.0291 10.9546 13.3827 11.4321 10.6339C11.9097 7.88507 13.4555 5.50233 14.9845 4.29992C16.5135 3.09751 18.9136 1.78006 21.962 2.09571C22.8233 2.1849 24.2751 2.54383 26.3172 3.17252C25.1226 2.24555 23.9598 1.55051 22.8291 1.0874C22.2127 0.834982 17.8071 -0.574549 12.5061 0.262672C8.42894 0.906609 5.92692 2.90095 3.64513 5.40534C-0.0167156 9.4244 -0.726683 16.1131 0.659021 20.9875C2.04472 25.8618 5.8039 29.4316 7.35656 30.6695Z" fill="#EEAD14"/>
<path opacity="0.720033" fill-rule="evenodd" clip-rule="evenodd" d="M3.52694 11.3202C3.10781 11.6006 2.73121 12.1208 2.39714 12.8806C1.89604 14.0204 1.77303 14.5315 1.6045 15.6463C1.51562 16.2342 1.33044 17.2968 1.47565 18.3948C1.55089 18.9636 1.69162 20.0773 2.07116 21.0463C2.20083 21.3773 2.42461 22.0794 2.86101 22.7778C3.357 23.5715 4.60109 24.9023 5.27311 25.1348C5.61698 25.2538 6.46374 25.1206 6.86086 24.5796C7.23982 24.0633 7.18566 23.1499 6.86086 22.7778C6.19568 22.0157 5.27311 21.8489 4.81034 21.341C4.34757 20.8331 3.56927 19.6968 3.2238 18.3687C3.08679 17.842 2.7635 16.7957 2.86101 15.2327C2.90529 14.5231 3.12726 13.219 3.52694 11.3202Z" fill="white"/>
<path d="M23.0759 11.0741C24.8426 11.0741 26.2749 9.64183 26.2749 7.8751C26.2749 6.10837 24.8426 4.67615 23.0759 4.67615C21.3092 4.67615 19.877 6.10837 19.877 7.8751C19.877 9.64183 21.3092 11.0741 23.0759 11.0741Z" fill="#96D7F5"/>
<path fill-rule="evenodd" clip-rule="evenodd" d="M20.5592 5.92468C20.168 6.45285 19.9448 7.02336 19.8898 7.63621C19.8627 7.93863 19.7888 8.61689 20.1182 9.34958C20.2228 9.58227 20.6358 10.3033 21.2563 10.729C21.8403 11.1297 22.852 11.2529 23.3429 11.216C23.8179 11.1803 24.7714 10.9886 25.5067 10.2416C25.782 9.96185 26.3594 9.25601 26.3811 8.06984C26.3852 7.84866 26.2529 6.50355 25.7653 6.20271C25.1841 5.84401 24.2043 6.5852 23.8154 7.18355C23.1004 8.28372 24.6409 8.90974 23.3429 9.59572C22.045 10.2817 20.9085 10.0452 20.4508 8.67975C20.1458 7.76948 20.1819 6.85112 20.5592 5.92468Z" fill="#31BEE8"/>
<path fill-rule="evenodd" clip-rule="evenodd" d="M24.8608 9.10133C25.3704 9.10133 26.039 8.33972 26.039 7.83009C26.039 7.32045 25.9347 6.66992 25.4251 6.66992C24.9155 6.66992 24.0669 7.12307 24.0669 7.63271C24.0669 8.14234 24.3511 9.10133 24.8608 9.10133Z" fill="#00A1D1"/>
<path opacity="0.676953" fill-rule="evenodd" clip-rule="evenodd" d="M20.5297 7.05411C20.8189 6.40509 21.064 5.98839 21.265 5.804C21.5666 5.52741 22.2066 5.05076 23.1132 5.04843C23.7176 5.04688 24.376 5.29873 25.0884 5.804C23.9462 5.69644 23.1187 5.69644 22.6057 5.804C22.0928 5.91155 21.4008 6.32825 20.5297 7.05411Z" fill="white"/>
<path opacity="0.3" fill-rule="evenodd" clip-rule="evenodd" d="M25.5371 15.6729C27.1085 15.777 28.284 15.5534 29.0635 15.0019C29.843 14.4504 30.3408 13.0181 30.557 10.705C31.6863 13.783 31.9706 16.6866 31.41 19.4157C30.8493 22.1449 29.1635 24.6191 26.3526 26.8385C27.687 23.597 28.0584 21.1227 27.4665 19.4157C26.8747 17.7088 26.2316 16.4612 25.5371 15.6729Z" fill="white"/>
<path d="M51.0859 30.3828C50.3841 30.3828 49.7969 30.2933 49.3242 30.1143V27.9551C49.9258 28.1055 50.4486 28.1807 50.8926 28.1807C52.2962 28.1807 52.998 27.2926 52.998 25.5166V10.2949H55.5762V25.4307C55.5762 27.0348 55.193 28.2594 54.4268 29.1045C53.6676 29.9567 52.554 30.3828 51.0859 30.3828Z" fill="#333333"/>
<path d="M73.5908 18.126C73.5908 20.6826 72.9499 22.6699 71.668 24.0879C70.3932 25.5059 68.585 26.2148 66.2432 26.2148C63.8727 26.2148 62.0501 25.513 60.7754 24.1094C59.5078 22.6986 58.874 20.6969 58.874 18.1045C58.874 15.512 59.5114 13.5212 60.7861 12.1318C62.068 10.7425 63.8942 10.0479 66.2646 10.0479C68.5993 10.0479 70.404 10.7533 71.6787 12.1641C72.9535 13.5749 73.5908 15.5622 73.5908 18.126ZM61.6025 18.126C61.6025 20.0596 61.9928 21.5277 62.7734 22.5303C63.554 23.5257 64.7106 24.0234 66.2432 24.0234C67.7686 24.0234 68.918 23.5293 69.6914 22.541C70.472 21.5527 70.8623 20.0811 70.8623 18.126C70.8623 16.1995 70.4756 14.7386 69.7021 13.7432C68.9359 12.7477 67.79 12.25 66.2646 12.25C64.7249 12.25 63.5612 12.7477 62.7734 13.7432C61.9928 14.7386 61.6025 16.1995 61.6025 18.126Z" fill="#333333"/>
<path d="M90.9072 18.126C90.9072 20.6826 90.2663 22.6699 88.9844 24.0879C87.7096 25.5059 85.9014 26.2148 83.5596 26.2148C81.1891 26.2148 79.3665 25.513 78.0918 24.1094C76.8242 22.6986 76.1904 20.6969 76.1904 18.1045C76.1904 15.512 76.8278 13.5212 78.1025 12.1318C79.3844 10.7425 81.2106 10.0479 83.5811 10.0479C85.9157 10.0479 87.7204 10.7533 88.9951 12.1641C90.2699 13.5749 90.9072 15.5622 90.9072 18.126ZM78.9189 18.126C78.9189 20.0596 79.3092 21.5277 80.0898 22.5303C80.8704 23.5257 82.027 24.0234 83.5596 24.0234C85.085 24.0234 86.2344 23.5293 87.0078 22.541C87.7884 21.5527 88.1787 20.0811 88.1787 18.126C88.1787 16.1995 87.792 14.7386 87.0186 13.7432C86.2523 12.7477 85.1064 12.25 83.5811 12.25C82.0413 12.25 80.8776 12.7477 80.0898 13.7432C79.3092 14.7386 78.9189 16.1995 78.9189 18.126Z" fill="#333333"/>
<path d="M101.069 26L96.5146 12.8838H96.4287C96.5505 14.8317 96.6113 16.6579 96.6113 18.3623V26H94.2803V10.2949H97.9004L102.262 22.7881H102.326L106.816 10.2949H110.447V26H107.977V18.2334C107.977 17.4528 107.994 16.4359 108.03 15.1826C108.073 13.9294 108.109 13.1702 108.138 12.9053H108.052L103.336 26H101.069Z" fill="#333333"/>
<path d="M124.981 15.043C124.981 16.6829 124.444 17.9398 123.37 18.8135C122.296 19.6872 120.767 20.124 118.783 20.124H117.15V26H114.583V10.2949H119.105C121.068 10.2949 122.536 10.696 123.51 11.498C124.491 12.3001 124.981 13.4818 124.981 15.043ZM117.15 17.9648H118.515C119.832 17.9648 120.799 17.7357 121.415 17.2773C122.031 16.819 122.339 16.1029 122.339 15.1289C122.339 14.2266 122.063 13.5534 121.512 13.1094C120.96 12.6654 120.101 12.4434 118.934 12.4434H117.15V17.9648Z" fill="#333333"/>
<path d="M128.118 26V10.2949H130.686V23.7979H137.335V26H128.118Z" fill="#333333"/>
<path d="M149.785 26L148.217 21.6387H142.212L140.676 26H137.969L143.845 10.2305H146.638L152.514 26H149.785ZM147.54 19.4258L146.068 15.1504C145.961 14.8639 145.811 14.4128 145.617 13.7969C145.431 13.181 145.302 12.7298 145.23 12.4434C145.037 13.3242 144.754 14.2874 144.382 15.333L142.964 19.4258H147.54Z" fill="#333333"/>
<path d="M161.269 12.2715C159.793 12.2715 158.633 12.7943 157.788 13.8398C156.943 14.8854 156.521 16.3285 156.521 18.1689C156.521 20.0954 156.925 21.5527 157.734 22.541C158.551 23.5293 159.729 24.0234 161.269 24.0234C161.935 24.0234 162.579 23.959 163.202 23.8301C163.825 23.694 164.473 23.5221 165.146 23.3145V25.5166C163.915 25.9821 162.518 26.2148 160.957 26.2148C158.658 26.2148 156.893 25.5202 155.661 24.1309C154.429 22.7344 153.813 20.7399 153.813 18.1475C153.813 16.5146 154.111 15.0859 154.705 13.8613C155.307 12.6367 156.173 11.6986 157.305 11.0469C158.436 10.3952 159.765 10.0693 161.29 10.0693C162.894 10.0693 164.377 10.4059 165.737 11.0791L164.813 13.2168C164.284 12.9661 163.721 12.7477 163.127 12.5615C162.54 12.3682 161.92 12.2715 161.269 12.2715Z" fill="#333333"/>
<path d="M177.414 26H168.53V10.2949H177.414V12.4648H171.098V16.7402H177.017V18.8887H171.098V23.8193H177.414V26Z" fill="#333333"/>
</svg>
