<svg width="320" height="246" viewBox="0 0 320 246" fill="none" xmlns="http://www.w3.org/2000/svg">
<path d="M171.106 213.518C239.883 213.518 295.638 207.927 295.638 201.03C295.638 194.133 239.883 188.542 171.106 188.542C102.329 188.542 46.5742 194.133 46.5742 201.03C46.5742 207.927 102.329 213.518 171.106 213.518Z" fill="#0A60DD"/>
<path d="M267.12 201.679H78.7461C72.1541 201.679 66.7085 196.266 66.7085 189.553V61.4275C66.7085 54.7867 72.0824 49.3008 78.7461 49.3008H267.049C273.641 49.3008 279.086 54.7145 279.086 61.4275V189.553C279.086 196.193 273.712 201.679 267.12 201.679Z" fill="#E7DFDF"/>
<path d="M261.746 201.679H73.6586C66.9949 201.679 61.5493 196.193 61.5493 189.48V58.396C61.5493 51.6829 66.9949 46.197 73.6586 46.197H261.746C268.41 46.197 273.856 51.6829 273.856 58.396V189.48C273.856 196.121 268.41 201.679 261.746 201.679Z" fill="white"/>
<path d="M96.659 58.0349C96.659 59.262 95.6559 60.2004 94.5094 60.2004C93.363 60.2004 92.3599 59.1898 92.3599 58.0349C92.3599 56.8078 93.363 55.8694 94.5094 55.8694C95.6559 55.8694 96.659 56.8799 96.659 58.0349Z" fill="#BDBDBD"/>
<path d="M94.438 60.2775H94.5097C93.6498 59.9888 92.9333 59.1948 92.9333 58.1842C92.9333 57.0293 93.8648 56.0909 95.0112 56.0187C94.7963 55.9465 94.5813 55.9465 94.3664 55.9465C93.1483 55.9465 92.2168 56.9571 92.2168 58.112C92.2168 59.267 93.2916 60.2775 94.438 60.2775Z" fill="#A5A5A5"/>
<path d="M143.306 58.0349C143.306 59.262 142.303 60.2004 141.156 60.2004C140.01 60.2004 139.007 59.1898 139.007 58.0349C139.007 56.8078 140.01 55.8694 141.156 55.8694C142.303 55.8694 143.306 56.8799 143.306 58.0349Z" fill="#BDBDBD"/>
<path d="M141.155 60.2775H141.227C140.367 59.9888 139.651 59.1948 139.651 58.1842C139.651 57.0293 140.582 56.0909 141.729 56.0187C141.514 55.9465 141.299 55.9465 141.084 55.9465C139.866 55.9465 138.934 56.9571 138.934 58.112C138.934 59.267 139.937 60.2775 141.155 60.2775Z" fill="#A5A5A5"/>
<path d="M189.736 58.0349C189.736 59.262 188.733 60.2004 187.586 60.2004C186.44 60.2004 185.437 59.1898 185.437 58.0349C185.437 56.8078 186.44 55.8694 187.586 55.8694C188.733 55.8694 189.736 56.8799 189.736 58.0349Z" fill="#BDBDBD"/>
<path d="M187.514 60.2775H187.586C186.726 59.9888 186.01 59.1948 186.01 58.1842C186.01 57.0293 186.941 56.0909 188.087 56.0187C187.872 55.9465 187.658 55.9465 187.443 55.9465C186.224 55.9465 185.293 56.9571 185.293 58.112C185.293 59.267 186.296 60.2775 187.514 60.2775Z" fill="#A5A5A5"/>
<path d="M237.744 58.0349C237.744 59.262 236.741 60.2004 235.594 60.2004C234.376 60.2004 233.445 59.1898 233.445 58.0349C233.445 56.8078 234.448 55.8694 235.594 55.8694C236.813 55.8694 237.744 56.8799 237.744 58.0349Z" fill="#BDBDBD"/>
<path d="M235.593 60.2775H235.665C234.805 59.9888 234.089 59.1948 234.089 58.1842C234.089 57.0293 235.02 56.0909 236.167 56.0187C235.952 55.9465 235.737 55.9465 235.522 55.9465C234.304 55.9465 233.372 56.9571 233.372 58.112C233.372 59.267 234.375 60.2775 235.593 60.2775Z" fill="#A5A5A5"/>
<path d="M94.2227 36.4524C99.6683 36.4524 104.039 40.7833 104.326 46.1249H106.475C106.189 39.5562 100.815 34.2869 94.2227 34.2869C87.4157 34.2869 81.8984 39.845 81.8984 46.7024C81.8984 53.5597 87.4157 59.1178 94.2227 59.1178C94.7959 59.1178 95.2975 58.6126 95.2975 58.0351C95.2975 57.4576 94.7959 56.9524 94.2227 56.9524C88.6338 56.9524 84.048 52.3326 84.048 46.7024C84.048 41.0721 88.5621 36.4524 94.2227 36.4524Z" fill="#D7DBD8"/>
<path d="M141.155 36.4524C146.601 36.4524 150.972 40.7833 151.258 46.1249H153.408C153.121 39.5562 147.747 34.2869 141.155 34.2869C134.348 34.2869 128.831 39.845 128.831 46.7024C128.831 53.5597 134.348 59.1178 141.155 59.1178C141.729 59.1178 142.23 58.6126 142.23 58.0351C142.23 57.4576 141.729 56.9524 141.155 56.9524C135.566 56.9524 130.981 52.3326 130.981 46.7024C130.981 41.0721 135.495 36.4524 141.155 36.4524Z" fill="#D7DBD8"/>
<path d="M187.873 36.4524C193.318 36.4524 197.689 40.7833 197.976 46.1249H200.125C199.839 39.5562 194.465 34.2869 187.873 34.2869C181.066 34.2869 175.548 39.845 175.548 46.7024C175.548 53.5597 181.066 59.1178 187.873 59.1178C188.446 59.1178 188.947 58.6126 188.947 58.0351C188.947 57.4576 188.446 56.9524 187.873 56.9524C182.284 56.9524 177.698 52.3326 177.698 46.7024C177.698 41.0721 182.284 36.4524 187.873 36.4524Z" fill="#D7DBD8"/>
<path d="M235.736 36.4524C241.182 36.4524 245.553 40.7833 245.839 46.1249H247.989C247.702 39.5562 242.328 34.2869 235.736 34.2869C228.929 34.2869 223.412 39.845 223.412 46.7024C223.412 53.5597 228.929 59.1178 235.736 59.1178C236.31 59.1178 236.811 58.6126 236.811 58.0351C236.811 57.4576 236.31 56.9524 235.736 56.9524C230.147 56.9524 225.562 52.3326 225.562 46.7024C225.562 41.0721 230.076 36.4524 235.736 36.4524Z" fill="#D7DBD8"/>
<path d="M265.329 87.1977H75.4497C75.1631 87.1977 74.8765 86.981 74.8765 86.6198C74.8765 86.3309 75.0914 86.042 75.4497 86.042H265.329C265.615 86.042 265.902 86.2587 265.902 86.6198C265.83 86.9087 265.615 87.1977 265.329 87.1977Z" fill="#E6E7E8"/>
<path d="M96.7305 178.725V81.5667C96.7305 81.278 96.9454 80.9893 97.3037 80.9893C97.5903 80.9893 97.8769 81.2058 97.8769 81.5667V178.725C97.8769 179.014 97.662 179.303 97.3037 179.303C96.9454 179.303 96.7305 179.086 96.7305 178.725Z" fill="#E6E7E8"/>
<path d="M126.395 178.725V81.5667C126.395 81.278 126.609 80.9893 126.968 80.9893C127.254 80.9893 127.541 81.2058 127.541 81.5667V178.725C127.541 179.014 127.326 179.303 126.968 179.303C126.681 179.303 126.395 179.086 126.395 178.725Z" fill="#E6E7E8"/>
<path d="M156.13 178.725V81.5667C156.13 81.278 156.345 80.9893 156.704 80.9893C156.99 80.9893 157.277 81.2058 157.277 81.5667V178.725C157.277 179.014 157.062 179.303 156.704 179.303C156.345 179.303 156.13 179.086 156.13 178.725Z" fill="#E6E7E8"/>
<path d="M185.866 178.725V81.5667C185.866 81.278 186.081 80.9893 186.439 80.9893C186.726 80.9893 187.013 81.2058 187.013 81.5667V178.725C187.013 179.014 186.798 179.303 186.439 179.303C186.081 179.303 185.866 179.086 185.866 178.725Z" fill="#E6E7E8"/>
<path d="M215.53 178.725V81.5667C215.53 81.278 215.745 80.9893 216.104 80.9893C216.39 80.9893 216.677 81.2058 216.677 81.5667V178.725C216.677 179.014 216.462 179.303 216.104 179.303C215.745 179.303 215.53 179.086 215.53 178.725Z" fill="#E6E7E8"/>
<path d="M245.266 178.725V81.5667C245.266 81.278 245.481 80.9893 245.839 80.9893C246.126 80.9893 246.413 81.2058 246.413 81.5667V178.725C246.413 179.014 246.198 179.303 245.839 179.303C245.481 179.303 245.266 179.086 245.266 178.725Z" fill="#E6E7E8"/>
<path d="M265.329 109.936H75.4497C75.1631 109.936 74.8765 109.719 74.8765 109.358C74.8765 109.069 75.0914 108.78 75.4497 108.78H265.329C265.615 108.78 265.902 108.997 265.902 109.358C265.83 109.647 265.615 109.936 265.329 109.936Z" fill="#E6E7E8"/>
<path d="M265.329 130.508H75.4497C75.1631 130.508 74.8765 130.291 74.8765 129.93C74.8765 129.641 75.0914 129.352 75.4497 129.352H265.329C265.615 129.352 265.902 129.569 265.902 129.93C265.83 130.219 265.615 130.508 265.329 130.508Z" fill="#E6E7E8"/>
<path d="M265.329 153.606H75.4497C75.1631 153.606 74.8765 153.39 74.8765 153.029C74.8765 152.74 75.0914 152.451 75.4497 152.451H265.329C265.615 152.451 265.902 152.667 265.902 153.029C265.83 153.317 265.615 153.606 265.329 153.606Z" fill="#E6E7E8"/>
<path d="M265.329 174.539H75.4497C75.1631 174.539 74.8765 174.323 74.8765 173.962C74.8765 173.673 75.0914 173.384 75.4497 173.384H265.329C265.615 173.384 265.902 173.6 265.902 173.962C265.83 174.25 265.615 174.539 265.329 174.539Z" fill="#E6E7E8"/>
<path d="M92.3596 83.7322H79.7488C78.7457 83.7322 77.9575 82.9382 77.9575 81.9276C77.9575 80.9171 78.7457 80.123 79.7488 80.123H92.3596C93.3628 80.123 94.151 80.9171 94.151 81.9276C94.151 82.9382 93.3628 83.7322 92.3596 83.7322Z" fill="#BDBDBD"/>
<path d="M118.8 83.7322H106.189C105.186 83.7322 104.397 82.9382 104.397 81.9276C104.397 80.9171 105.186 80.123 106.189 80.123H118.8C119.803 80.123 120.591 80.9171 120.591 81.9276C120.591 82.9382 119.803 83.7322 118.8 83.7322Z" fill="#BDBDBD"/>
<path d="M148.392 83.7322H135.781C134.778 83.7322 133.99 82.9382 133.99 81.9276C133.99 80.9171 134.778 80.123 135.781 80.123H148.392C149.395 80.123 150.183 80.9171 150.183 81.9276C150.183 82.9382 149.323 83.7322 148.392 83.7322Z" fill="#BDBDBD"/>
<path d="M177.77 83.7322H165.159C164.156 83.7322 163.368 82.9382 163.368 81.9276C163.368 80.9171 164.156 80.123 165.159 80.123H177.77C178.773 80.123 179.561 80.9171 179.561 81.9276C179.561 82.9382 178.701 83.7322 177.77 83.7322Z" fill="#BDBDBD"/>
<path d="M207.864 83.7322H195.253C194.25 83.7322 193.461 82.9382 193.461 81.9276C193.461 80.9171 194.25 80.123 195.253 80.123H207.864C208.867 80.123 209.655 80.9171 209.655 81.9276C209.655 82.9382 208.795 83.7322 207.864 83.7322Z" fill="#BDBDBD"/>
<path d="M236.31 83.7322H223.699C222.696 83.7322 221.908 82.9382 221.908 81.9276C221.908 80.9171 222.696 80.123 223.699 80.123H236.31C237.313 80.123 238.101 80.9171 238.101 81.9276C238.101 82.9382 237.313 83.7322 236.31 83.7322Z" fill="#BDBDBD"/>
<path d="M263.036 83.7322H250.425C249.422 83.7322 248.634 82.9382 248.634 81.9276C248.634 80.9171 249.422 80.123 250.425 80.123H263.036C264.039 80.123 264.827 80.9171 264.827 81.9276C264.827 82.9382 263.967 83.7322 263.036 83.7322Z" fill="#F2994A"/>
<path d="M123.099 95.4262H102.463C101.89 95.4262 101.46 94.9931 101.46 94.4156C101.46 93.8381 101.89 93.405 102.463 93.405H123.099C123.672 93.405 124.102 93.8381 124.102 94.4156C124.174 94.9209 123.672 95.4262 123.099 95.4262Z" fill="#E6E7E8"/>
<path d="M123.099 99.3964H102.463C101.89 99.3964 101.46 98.9633 101.46 98.3858C101.46 97.8083 101.89 97.3752 102.463 97.3752H123.099C123.672 97.3752 124.102 97.8083 124.102 98.3858C124.174 98.8911 123.672 99.3964 123.099 99.3964Z" fill="#E6E7E8"/>
<path d="M114.716 103.294H102.463C101.89 103.294 101.46 102.861 101.46 102.284C101.46 101.706 101.89 101.273 102.463 101.273H114.716C115.289 101.273 115.719 101.706 115.719 102.284C115.719 102.789 115.289 103.294 114.716 103.294Z" fill="#E6E7E8"/>
<path d="M182.069 117.081H161.433C160.86 117.081 160.43 116.648 160.43 116.07C160.43 115.493 160.86 115.06 161.433 115.06H182.069C182.642 115.06 183.072 115.493 183.072 116.07C183.072 116.575 182.642 117.081 182.069 117.081Z" fill="#E6E7E8"/>
<path d="M182.069 121.051H161.433C160.86 121.051 160.43 120.618 160.43 120.04C160.43 119.463 160.86 119.03 161.433 119.03H182.069C182.642 119.03 183.072 119.463 183.072 120.04C183.072 120.546 182.642 121.051 182.069 121.051Z" fill="#E6E7E8"/>
<path d="M173.685 124.949H161.433C160.86 124.949 160.43 124.516 160.43 123.938C160.43 123.361 160.86 122.928 161.433 122.928H173.685C174.259 122.928 174.689 123.361 174.689 123.938C174.689 124.444 174.259 124.949 173.685 124.949Z" fill="#E6E7E8"/>
<path d="M152.333 161.474H131.697C131.124 161.474 130.694 161.04 130.694 160.463C130.694 159.885 131.124 159.452 131.697 159.452H152.333C152.906 159.452 153.336 159.885 153.336 160.463C153.336 160.968 152.906 161.474 152.333 161.474Z" fill="#E6E7E8"/>
<path d="M152.333 165.444H131.697C131.124 165.444 130.694 165.011 130.694 164.433C130.694 163.856 131.124 163.423 131.697 163.423H152.333C152.906 163.423 153.336 163.856 153.336 164.433C153.336 164.938 152.906 165.444 152.333 165.444Z" fill="#E6E7E8"/>
<path d="M143.95 169.341H131.697C131.124 169.341 130.694 168.908 130.694 168.331C130.694 167.753 131.124 167.32 131.697 167.32H143.95C144.523 167.32 144.953 167.753 144.953 168.331C144.953 168.836 144.523 169.341 143.95 169.341Z" fill="#E6E7E8"/>
<path d="M94.223 140.613H73.5871C73.0139 140.613 72.584 140.18 72.584 139.602C72.584 139.025 73.0139 138.592 73.5871 138.592H94.223C94.7963 138.592 95.2262 139.025 95.2262 139.602C95.2262 140.107 94.7963 140.613 94.223 140.613Z" fill="#E6E7E8"/>
<path d="M94.223 144.583H73.5871C73.0139 144.583 72.584 144.15 72.584 143.572C72.584 142.995 73.0139 142.562 73.5871 142.562H94.223C94.7963 142.562 95.2262 142.995 95.2262 143.572C95.2262 144.078 94.7963 144.583 94.223 144.583Z" fill="#E6E7E8"/>
<path d="M211.948 141.046H191.312C190.739 141.046 190.309 140.613 190.309 140.035C190.309 139.458 190.739 139.025 191.312 139.025H211.948C212.521 139.025 212.951 139.458 212.951 140.035C213.023 140.613 212.521 141.046 211.948 141.046Z" fill="#E6E7E8"/>
<path d="M211.948 145.016H191.312C190.739 145.016 190.309 144.583 190.309 144.005C190.309 143.428 190.739 142.995 191.312 142.995H211.948C212.521 142.995 212.951 143.428 212.951 144.005C213.023 144.583 212.521 145.016 211.948 145.016Z" fill="#E6E7E8"/>
<path d="M211.231 96.7977H190.595C190.022 96.7977 189.592 96.3646 189.592 95.7872C189.592 95.2097 190.022 94.7766 190.595 94.7766H211.231C211.805 94.7766 212.234 95.2097 212.234 95.7872C212.306 96.2925 211.805 96.7977 211.231 96.7977Z" fill="#E6E7E8"/>
<path d="M211.231 100.768H190.595C190.022 100.768 189.592 100.335 189.592 99.7574C189.592 99.1799 190.022 98.7468 190.595 98.7468H211.231C211.805 98.7468 212.234 99.1799 212.234 99.7574C212.306 100.263 211.805 100.768 211.231 100.768Z" fill="#E6E7E8"/>
<path d="M118.37 115.421C117.797 114.843 116.865 114.843 116.292 115.421L110.846 120.907L108.124 118.164C107.55 117.586 106.619 117.586 106.046 118.164C105.472 118.741 105.472 119.679 106.046 120.257L109.843 124.083C110.13 124.371 110.488 124.516 110.918 124.516C111.276 124.516 111.706 124.371 111.993 124.083L118.442 117.586C118.943 117.009 118.943 116.07 118.37 115.421Z" fill="#19CC36"/>
<path d="M177.125 137.797C176.552 137.22 175.62 137.22 175.047 137.797L169.601 143.283L166.878 140.54C166.305 139.963 165.374 139.963 164.801 140.54C164.227 141.118 164.227 142.056 164.801 142.634L168.598 146.459C168.885 146.748 169.243 146.892 169.673 146.892C170.031 146.892 170.461 146.748 170.748 146.459L177.196 139.963C177.698 139.385 177.698 138.447 177.125 137.797Z" fill="#2BAC76"/>
<path d="M118.871 159.452C118.298 158.875 117.367 158.875 116.793 159.452L111.348 164.938L108.625 162.195C108.052 161.618 107.12 161.618 106.547 162.195C105.974 162.773 105.974 163.711 106.547 164.289L110.345 168.114C110.631 168.403 110.99 168.547 111.419 168.547C111.778 168.547 112.208 168.403 112.494 168.114L118.943 161.618C119.445 161.04 119.445 160.102 118.871 159.452Z" fill="#2BAC76"/>
<path d="M207.506 160.463C206.932 159.885 206.001 159.885 205.428 160.463L199.982 165.949L197.259 163.206C196.686 162.628 195.755 162.628 195.181 163.206C194.608 163.783 194.608 164.721 195.181 165.299L198.979 169.125C199.266 169.413 199.624 169.558 200.054 169.558C200.412 169.558 200.842 169.413 201.129 169.125L207.577 162.628C208.079 161.978 208.079 161.04 207.506 160.463Z" fill="#2BAC76"/>
<path d="M148.034 94.0544C147.461 93.477 146.529 93.477 145.956 94.0544L140.51 99.5403L137.788 96.7974C137.214 96.2199 136.283 96.2199 135.71 96.7974C135.136 97.3749 135.136 98.3132 135.71 98.8907L139.507 102.716C139.794 103.005 140.152 103.15 140.582 103.15C140.94 103.15 141.37 103.005 141.657 102.716L148.106 96.2199C148.607 95.5703 148.607 94.6319 148.034 94.0544Z" fill="#2BAC76"/>
<path d="M177.411 94.0544C176.838 93.477 175.907 93.477 175.333 94.0544L169.888 99.5403L167.165 96.7974C166.592 96.2199 165.66 96.2199 165.087 96.7974C164.514 97.3749 164.514 98.3132 165.087 98.8907L168.885 102.716C169.171 103.005 169.53 103.15 169.959 103.15C170.318 103.15 170.748 103.005 171.034 102.716L177.483 96.2199C177.985 95.5703 177.985 94.6319 177.411 94.0544Z" fill="#2BAC76"/>
<path d="M234.375 167.248C233.945 167.681 233.3 167.681 232.87 167.248L228.213 162.556C227.783 162.123 227.783 161.473 228.213 161.04C228.643 160.607 229.288 160.607 229.718 161.04L234.375 165.732C234.805 166.165 234.805 166.815 234.375 167.248Z" fill="#F2994A"/>
<path d="M228.213 167.248C228.643 167.681 229.288 167.681 229.718 167.248L234.375 162.556C234.805 162.123 234.805 161.473 234.375 161.04C233.945 160.607 233.3 160.607 232.87 161.04L228.213 165.732C227.783 166.165 227.783 166.815 228.213 167.248Z" fill="#F2994A"/>
<path d="M259.669 145.232C259.239 145.665 258.594 145.665 258.164 145.232L253.507 140.54C253.077 140.107 253.077 139.457 253.507 139.024C253.936 138.591 254.581 138.591 255.011 139.024L259.669 143.716C260.099 144.149 260.099 144.871 259.669 145.232Z" fill="#F93838"/>
<path d="M253.506 145.232C253.935 145.665 254.58 145.665 255.01 145.232L259.668 140.54C260.098 140.107 260.098 139.457 259.668 139.024C259.238 138.591 258.593 138.591 258.163 139.024L253.506 143.716C253.147 144.149 253.147 144.871 253.506 145.232Z" fill="#F93838"/>
<path d="M260.17 102.428C259.74 102.861 259.095 102.861 258.665 102.428L254.008 97.7357C253.578 97.3026 253.578 96.6529 254.008 96.2198C254.438 95.7867 255.083 95.7867 255.513 96.2198L260.17 100.912C260.6 101.345 260.6 101.994 260.17 102.428Z" fill="#F2994A"/>
<path d="M254.008 102.428C254.438 102.861 255.083 102.861 255.513 102.428L260.17 97.7357C260.6 97.3026 260.6 96.6529 260.17 96.2198C259.74 95.7867 259.095 95.7867 258.665 96.2198L254.008 100.912C253.578 101.345 253.578 101.994 254.008 102.428Z" fill="#F2994A"/>
<path d="M155.701 188.759H97.4471C96.4439 188.759 95.6558 187.965 95.6558 186.954C95.6558 185.943 96.4439 185.149 97.4471 185.149H155.701C156.704 185.149 157.492 185.943 157.492 186.954C157.492 187.965 156.632 188.759 155.701 188.759Z" fill="#E6E7E8"/>
<path d="M134.778 195.111H97.4471C96.4439 195.111 95.6558 194.317 95.6558 193.306C95.6558 192.296 96.4439 191.502 97.4471 191.502H134.778C135.781 191.502 136.569 192.296 136.569 193.306C136.569 194.245 135.781 195.111 134.778 195.111Z" fill="#E6E7E8"/>
<path d="M53.8113 236.111H53.7397C52.9515 236.111 52.3066 235.461 52.3066 234.667V229.181C52.3066 228.387 52.9515 227.738 53.7397 227.738H53.8113C54.5995 227.738 55.2444 228.387 55.2444 229.181V234.667C55.316 235.461 54.5995 236.111 53.8113 236.111Z" fill="#F9D1BB"/>
<path d="M51.5181 232.863V238.565L67.7115 238.493C68.2847 238.493 68.4281 237.699 67.9265 237.482L56.1038 232.574L51.5181 232.863Z" fill="#30282B"/>
<path d="M68.2132 238.854H51.5182C51.3749 238.854 51.3032 238.71 51.3032 238.638C51.3032 238.493 51.4465 238.421 51.5182 238.421H68.2132C68.3565 238.421 68.4282 238.565 68.4282 238.638C68.4282 238.71 68.3565 238.854 68.2132 238.854Z" fill="#D1D3D4"/>
<path d="M5.58906 221.313L5.51741 221.241C5.0875 220.519 5.37411 219.653 6.01898 219.22L10.748 216.477C11.4646 216.044 12.3244 216.333 12.7543 216.982L12.826 217.055C13.2559 217.776 12.9693 218.643 12.3244 219.076L7.59533 221.819C6.87881 222.252 6.01898 222.035 5.58906 221.313Z" fill="#F9D1BB"/>
<path d="M7.23712 217.704L2.36475 220.591L10.6048 234.667C10.8914 235.172 11.6079 234.884 11.6079 234.306L9.8166 221.602L7.23712 217.704Z" fill="#30282B"/>
<path d="M10.5331 235.245L2.1498 220.736C2.07814 220.592 2.1498 220.447 2.22145 220.375C2.36475 220.303 2.50806 220.375 2.57971 220.447L10.9631 234.956C11.0347 235.1 10.9631 235.245 10.8914 235.317C10.7481 235.389 10.6048 235.317 10.5331 235.245Z" fill="#D1D3D4"/>
<path d="M73.2293 138.087L69.2168 140.902C68.7152 141.263 67.9987 141.118 67.6404 140.613C67.2822 140.108 67.4255 139.386 67.927 139.025L71.9396 136.21C72.4411 135.849 73.1576 135.993 73.5159 136.498C73.8742 137.004 73.7309 137.726 73.2293 138.087Z" fill="#F9D1BB"/>
<path d="M69.9328 137.364L68.7147 140.035C68.5714 140.396 68.1415 140.541 67.8549 140.324C67.4966 140.18 67.3533 139.746 67.5683 139.458L68.7864 136.787C68.9297 136.426 69.3596 136.282 69.6462 136.498C69.9328 136.643 70.0761 137.004 69.9328 137.364Z" fill="#F9D1BB"/>
<path d="M49.5123 178.148L61.9082 204.35L57.0358 231.203H50.6587L52.88 207.382L29.9512 178.148H49.5123Z" fill="#D1D3D4"/>
<path d="M45.7861 178.148L32.9603 208.898L11.8944 223.262L9.31494 214.528L26.5832 201.319L29.2343 177.065L45.7861 178.148Z" fill="#F1F2F2"/>
<path d="M58.182 143.428C59.615 142.85 60.9764 142.056 62.3378 141.19C64.1291 140.107 65.9205 138.952 67.7834 137.87C68.3566 138.591 69.0015 139.313 69.5031 140.107C69.6464 140.324 69.7897 140.54 69.7897 140.757C69.7897 141.046 69.5747 141.334 69.2881 141.551C62.6244 147.975 55.3159 154.688 46.1444 156.06C45.2129 156.204 44.2097 156.276 43.4216 155.699C42.92 155.338 42.705 154.76 42.4901 154.183C41.3436 151.151 40.7704 147.975 40.9137 144.727C40.9137 144.294 40.9854 143.716 41.3436 143.428C41.6303 143.211 41.9169 143.211 42.2751 143.283C47.7207 143.572 52.808 145.521 58.182 143.428Z" fill="#FBAB38"/>
<path d="M39.9106 135.343C39.9106 135.343 24.5053 146.315 27.873 178.942L50.4435 178.581C50.3719 178.581 50.0136 141.046 39.9106 135.343Z" fill="#F2994A"/>
<path d="M40.7703 135.993C40.4837 135.776 40.1971 135.56 39.8388 135.416C39.8388 135.416 24.4335 146.387 27.8012 179.014H29.4492C26.5115 150.646 37.7609 138.664 40.7703 135.993Z" fill="#F7AA39"/>
<path d="M40.9855 138.736C37.9761 138.736 35.4683 136.282 35.4683 133.178V127.62C35.4683 124.588 37.9044 122.062 40.9855 122.062C43.9949 122.062 46.5027 124.516 46.5027 127.62V133.178C46.4311 136.282 43.9949 138.736 40.9855 138.736Z" fill="#F9D1BB"/>
<path d="M37.6897 129.713C38.1913 128.342 39.1227 126.826 40.5558 126.898C41.2723 126.97 41.8455 127.403 42.5621 127.548C43.4935 127.692 44.2817 127.115 45.1416 126.826C45.9297 126.537 46.7896 126.465 47.4344 125.96C48.4376 125.238 48.5809 123.794 48.6525 122.567C48.6525 122.206 48.7242 121.773 48.5092 121.412C48.151 120.546 47.0045 120.329 46.0014 120.329C42.8487 120.329 39.6243 120.979 36.6866 122.206C36.185 122.423 35.7551 122.639 35.3968 123C35.0385 123.361 34.8952 123.794 34.6803 124.155C33.8205 126.321 33.4622 128.703 33.6771 131.012C34.1787 135.416 37.0448 131.59 37.6897 129.713Z" fill="#30282B"/>
<path d="M38.6208 129.713C38.6208 130.291 38.1192 130.796 37.546 130.796C36.9728 130.796 36.4712 130.291 36.4712 129.713C36.4712 129.136 36.9728 128.63 37.546 128.63C38.1192 128.63 38.6208 129.136 38.6208 129.713Z" fill="#F9D1BB"/>
<path d="M140.583 141.407L72.226 166.671C69.0017 167.826 65.419 166.166 64.2726 162.917L54.6712 136.498C53.5247 133.25 55.1727 129.641 58.3971 128.486L126.754 103.222C129.978 102.067 133.561 103.727 134.707 106.975L144.308 133.394C145.455 136.571 143.807 140.18 140.583 141.407Z" fill="#AFD8F9"/>
<path d="M125.105 118.669L70.3627 138.88C68.6431 139.53 66.7085 138.591 66.0636 136.859C65.4187 135.127 66.3502 133.178 68.0698 132.528L122.812 112.317C124.532 111.667 126.467 112.606 127.111 114.338C127.685 116.07 126.825 118.019 125.105 118.669Z" fill="white"/>
<path d="M128.545 128.197L73.8027 148.409C72.083 149.058 70.1484 148.12 69.5035 146.388C68.8586 144.655 69.7901 142.706 71.5098 142.057L126.252 121.845C127.972 121.196 129.907 122.134 130.551 123.867C131.196 125.599 130.265 127.548 128.545 128.197Z" fill="white"/>
<path d="M114.286 143.717L77.1699 157.431C75.4502 158.081 73.5156 157.143 72.8707 155.41C72.2258 153.678 73.1573 151.729 74.877 151.079L111.993 137.364C113.713 136.715 115.647 137.653 116.292 139.386C116.865 141.118 116.005 143.067 114.286 143.717Z" fill="white"/>
<path d="M76.9552 165.732L72.0828 166.31C71.5096 166.382 70.9364 165.949 70.8647 165.299C70.7931 164.722 71.223 164.144 71.8679 164.072L76.7402 163.495C77.3134 163.422 77.8867 163.856 77.9583 164.505C78.03 165.083 77.6001 165.66 76.9552 165.732Z" fill="#F9D1BB"/>
<path d="M74.3757 163.567L72.0828 165.299C71.7962 165.516 71.3663 165.444 71.1514 165.155C70.9364 164.866 71.008 164.433 71.2947 164.216L73.5875 162.484C73.8741 162.268 74.3041 162.34 74.519 162.628C74.734 162.917 74.6623 163.35 74.3757 163.567Z" fill="#F9D1BB"/>
<path d="M58.3253 160.752C59.7583 161.329 61.263 161.69 62.7677 161.979C65.9204 162.556 69.0732 162.989 72.2975 163.206C73.229 164.289 72.7274 166.021 71.581 166.887C70.5062 167.753 69.0015 167.898 67.6401 168.042C63.1977 168.475 58.6835 168.62 54.3127 167.826C47.1475 166.526 40.6988 162.7 34.5366 158.803C33.8918 158.37 33.2469 157.936 33.0319 157.215C32.6737 156.132 33.5335 154.977 34.3217 154.111C36.3996 151.873 38.4775 149.635 40.5555 147.325C45.0696 142.417 46.431 148.841 48.8671 152.306C51.3033 155.843 54.2411 159.164 58.3253 160.752Z" fill="#F2994A"/>
<path d="M286.538 235.462H286.61C287.398 235.462 288.043 234.812 288.043 234.018V228.532C288.043 227.738 287.398 227.088 286.61 227.088H286.538C285.75 227.088 285.105 227.738 285.105 228.532V234.018C285.105 234.812 285.75 235.462 286.538 235.462Z" fill="#F9D1BB"/>
<path d="M288.831 232.213V237.916L272.637 237.844C272.064 237.844 271.921 237.05 272.422 236.833L284.245 231.925L288.831 232.213Z" fill="#30282B"/>
<path d="M272.136 238.205H288.831C288.974 238.205 289.046 238.061 289.046 237.988C289.046 237.844 288.903 237.772 288.831 237.772H272.136C271.993 237.772 271.921 237.916 271.921 237.988C271.921 238.061 272.064 238.205 272.136 238.205Z" fill="#D1D3D4"/>
<path d="M306.887 228.243L306.959 228.171C307.676 227.81 307.962 226.944 307.604 226.222L305.239 221.242C304.881 220.52 304.021 220.231 303.305 220.592L303.233 220.664C302.517 221.025 302.23 221.891 302.588 222.613L304.953 227.594C305.311 228.315 306.171 228.604 306.887 228.243Z" fill="#F9D1BB"/>
<path d="M307.604 224.345L310.04 229.47L295.423 236.472C294.921 236.689 294.42 236.111 294.778 235.678L303.305 226.078L307.604 224.345Z" fill="#30282B"/>
<path d="M295.137 236.977L310.184 229.687C310.327 229.615 310.327 229.47 310.327 229.326C310.255 229.182 310.112 229.182 309.969 229.182L294.922 236.472C294.778 236.544 294.778 236.689 294.778 236.833C294.85 236.977 294.993 237.05 295.137 236.977Z" fill="#D1D3D4"/>
<path d="M267.192 137.437L271.205 140.252C271.706 140.613 272.423 140.469 272.781 139.963C273.139 139.458 272.996 138.736 272.494 138.375L268.482 135.56C267.98 135.199 267.264 135.344 266.906 135.849C266.547 136.354 266.619 137.076 267.192 137.437Z" fill="#F9D1BB"/>
<path d="M270.488 136.715L271.706 139.386C271.849 139.747 272.279 139.891 272.566 139.675C272.924 139.53 273.067 139.097 272.852 138.808L271.634 136.138C271.491 135.777 271.061 135.632 270.774 135.849C270.488 135.993 270.345 136.426 270.488 136.715Z" fill="#F9D1BB"/>
<path d="M290.837 177.571L278.441 203.701L283.314 230.625H289.691L287.47 206.733L310.398 177.571H290.837Z" fill="#FBAB38"/>
<path d="M297.645 169.847L291.196 202.474L300.582 226.294L307.604 220.592L300.654 199.803L311.975 178.22L297.645 169.847Z" fill="#FACF5B"/>
<path d="M282.167 142.778C280.734 142.201 279.373 141.407 278.011 140.541C276.22 139.458 274.429 138.303 272.566 137.22C271.993 137.942 271.348 138.664 270.846 139.458C270.703 139.674 270.56 139.891 270.56 140.108C270.56 140.396 270.775 140.685 271.061 140.902C277.725 147.326 285.033 154.039 294.205 155.41C295.136 155.555 296.139 155.627 296.928 155.049C297.429 154.688 297.644 154.111 297.859 153.534C299.006 150.502 299.579 147.326 299.435 144.078C299.435 143.645 299.364 143.067 299.006 142.778C298.719 142.562 298.432 142.562 298.074 142.634C292.628 142.923 287.541 144.872 282.167 142.778Z" fill="#F2994A"/>
<path d="M300.51 134.694C300.51 134.694 315.916 145.666 312.548 178.292L289.978 177.932C289.978 177.932 290.336 140.396 300.51 134.694Z" fill="#F2994A"/>
<path d="M299.579 135.344C299.866 135.127 300.152 134.91 300.511 134.766C300.511 134.766 315.916 145.738 312.548 178.365H310.9C313.838 149.997 302.589 138.014 299.579 135.344Z" fill="#F2994A"/>
<path d="M299.436 138.158C302.445 138.158 304.953 135.704 304.953 132.6V127.042C304.953 124.011 302.517 121.484 299.436 121.484C296.426 121.484 293.918 123.938 293.918 127.042V132.6C293.918 135.632 296.426 138.158 299.436 138.158Z" fill="#F9D1BB"/>
<path d="M293.273 123.65C292.987 124.227 292.987 125.021 293.417 125.527C293.99 126.176 294.993 126.104 295.853 126.104C297.859 126.032 299.937 126.393 301.8 127.187C302.158 127.331 302.588 127.548 302.732 127.909C302.803 128.125 302.803 128.414 302.732 128.631C302.445 130.002 301.585 131.157 300.797 132.312C300.08 133.467 299.436 134.91 299.794 136.282C299.866 136.571 300.009 136.859 300.224 137.004C300.582 137.365 301.155 137.437 301.728 137.437C304.595 137.581 307.461 137.437 310.255 136.859C310.828 136.715 311.473 136.571 311.903 136.138C312.476 135.488 312.261 134.477 311.903 133.683C311.402 132.673 310.685 131.807 309.825 131.157C308.965 130.579 307.962 130.146 307.246 129.425C305.168 127.331 306.028 123.506 303.95 121.412C301.37 118.741 294.921 120.329 293.273 123.65Z" fill="#333333"/>
<path d="M301.299 128.053C301.299 128.63 301.8 129.136 302.374 129.136C302.947 129.136 303.448 128.63 303.448 128.053C303.448 127.475 302.947 126.97 302.374 126.97C301.8 126.97 301.299 127.475 301.299 128.053Z" fill="#F9D1BB"/>
<path d="M260.385 153.967L215.531 132.528C211.16 130.435 209.225 125.094 211.303 120.618L220.546 101.057C222.624 96.6534 227.926 94.7045 232.369 96.7978L277.223 118.236C281.594 120.329 283.529 125.671 281.451 130.146L272.208 149.708C270.13 154.183 264.827 156.06 260.385 153.967Z" fill="#D1D3D4"/>
<path d="M240.23 116.571C242.172 112.381 240.373 107.398 236.213 105.442C232.054 103.487 227.108 105.298 225.166 109.489C223.225 113.68 225.024 118.662 229.183 120.618C233.343 122.574 238.289 120.762 240.23 116.571Z" fill="white"/>
<path d="M266.547 132.601L245.195 122.423C243.547 121.629 242.83 119.608 243.618 117.948C244.406 116.287 246.413 115.566 248.061 116.36L269.413 126.537C271.061 127.331 271.778 129.352 270.989 131.013C270.201 132.673 268.195 133.395 266.547 132.601Z" fill="white"/>
<path d="M258.809 145.16L222.552 127.837C220.904 127.042 220.188 125.021 220.976 123.361C221.764 121.701 223.771 120.979 225.419 121.773L261.675 139.097C263.323 139.891 264.039 141.912 263.251 143.572C262.463 145.233 260.457 145.954 258.809 145.16Z" fill="white"/>
<path d="M262.965 143.5L266.476 146.893C266.906 147.326 267.622 147.326 268.052 146.821C268.482 146.388 268.482 145.666 267.98 145.233L264.469 141.84C264.04 141.407 263.323 141.407 262.893 141.912C262.463 142.418 262.463 143.067 262.965 143.5Z" fill="#F9D1BB"/>
<path d="M266.332 143.356L267.192 146.171C267.264 146.532 267.694 146.748 268.052 146.604C268.41 146.532 268.625 146.099 268.482 145.738L267.622 142.923C267.551 142.562 267.121 142.345 266.762 142.49C266.404 142.634 266.189 142.995 266.332 143.356Z" fill="#F9D1BB"/>
<path d="M280.878 150.647C279.373 150.286 278.012 149.636 276.579 148.987C273.713 147.615 270.918 146.027 268.195 144.295C266.834 144.583 266.189 146.316 266.547 147.687C266.906 149.059 267.98 150.069 269.055 151.008C272.351 153.967 275.934 156.782 279.946 158.803C286.467 162.052 293.919 162.846 301.227 163.351C301.944 163.423 302.804 163.423 303.377 162.99C304.308 162.34 304.308 160.897 304.165 159.742C303.807 156.71 303.448 153.606 303.09 150.575C302.302 143.934 297.501 148.265 293.417 149.636C289.405 150.936 285.105 151.802 280.878 150.647Z" fill="#F2994A"/>
<path opacity="0.15" d="M271.921 53.4155L264.397 32.6268C263.466 30.1004 260.672 28.7289 258.164 29.6673L204.424 49.5176C201.917 50.456 200.555 53.2711 201.487 55.7975L209.01 76.5863C209.942 79.1127 212.736 80.4842 215.244 79.5458L268.983 59.6954C271.563 58.7571 272.852 55.9419 271.921 53.4155Z" fill="#231F20"/>
<path d="M268.625 57.602L215.602 79.2569C213.094 80.2675 210.228 79.0404 209.225 76.514L200.985 56.014C199.982 53.4876 201.2 50.6002 203.708 49.5897L256.731 27.9348C259.239 26.9242 262.105 28.1513 263.108 30.6777L271.348 51.1777C272.351 53.7041 271.133 56.5914 268.625 57.602Z" fill="#2F80ED"/>
<path d="M255.871 40.2059L213.453 57.5298C212.091 58.1073 210.586 57.3855 210.013 56.0862C209.44 54.7147 210.157 53.1989 211.446 52.6214L253.865 35.2974C255.226 34.72 256.731 35.4418 257.304 36.7411C257.877 38.1126 257.232 39.6284 255.871 40.2059Z" fill="white"/>
<path d="M258.881 47.5684L216.462 64.8924C215.101 65.4699 213.596 64.748 213.023 63.4487C212.45 62.0772 213.166 60.5614 214.456 59.9839L256.874 42.66C258.236 42.0825 259.74 42.8044 260.314 44.1037C260.815 45.4751 260.17 46.991 258.881 47.5684Z" fill="white"/>
<path d="M248.061 60.1283L219.256 71.8941C217.895 72.4716 216.39 71.7497 215.817 70.4504C215.244 69.0789 215.96 67.5631 217.25 66.9856L246.054 55.2198C247.416 54.6423 248.92 55.3642 249.494 56.6635C250.067 58.0349 249.35 59.5508 248.061 60.1283Z" fill="white"/>
<path opacity="0.15" d="M224.272 201.463L222.839 181.324C222.624 178.87 220.546 176.993 218.038 177.138L165.876 180.963C163.439 181.18 161.576 183.273 161.72 185.8L163.153 205.939C163.368 208.393 165.446 210.27 167.953 210.125L220.116 206.3C222.624 206.083 224.487 203.918 224.272 201.463Z" fill="#231F20"/>
<path d="M220.403 204.35L168.383 209.909C165.947 210.197 163.726 208.393 163.439 205.938L161.29 185.872C161.003 183.417 162.795 181.18 165.231 180.891L217.251 175.333C219.687 175.044 221.908 176.849 222.195 179.303L224.344 199.37C224.631 201.824 222.839 204.062 220.403 204.35Z" fill="#2BAC76"/>
<path d="M213.524 185.799L171.894 190.275C170.604 190.419 169.386 189.481 169.243 188.109C169.1 186.81 170.031 185.583 171.393 185.438L213.023 180.963C214.312 180.819 215.531 181.757 215.674 183.129C215.817 184.428 214.814 185.655 213.524 185.799Z" fill="white"/>
<path d="M214.313 193.018L172.683 197.493C171.393 197.638 170.175 196.699 170.032 195.328C169.888 194.028 170.82 192.801 172.181 192.657L213.811 188.182C215.101 188.037 216.319 188.976 216.462 190.347C216.534 191.646 215.603 192.874 214.313 193.018Z" fill="white"/>
<path d="M180.278 203.629C179.705 205.65 177.627 206.805 175.621 206.227C173.614 205.65 172.468 203.556 173.041 201.535C173.614 199.514 175.692 198.359 177.699 198.937C179.705 199.514 180.851 201.608 180.278 203.629Z" fill="white"/>
<path d="M189.592 202.835C189.019 204.856 186.941 206.011 184.935 205.433C182.929 204.856 181.782 202.763 182.356 200.741C182.929 198.72 185.007 197.565 187.013 198.143C189.019 198.72 190.166 200.814 189.592 202.835Z" fill="white"/>
<path d="M198.836 201.824C198.263 203.845 196.185 205 194.179 204.423C192.172 203.845 191.026 201.752 191.599 199.731C192.172 197.71 194.25 196.555 196.257 197.132C198.263 197.71 199.409 199.875 198.836 201.824Z" fill="white"/>
<path opacity="0.15" d="M78.5766 90.2349C85.9894 83.4551 86.5429 71.9053 79.813 64.4376C73.083 56.9699 61.618 56.4123 54.2052 63.1921C46.7924 69.9719 46.2389 81.5218 52.9689 88.9894C59.6989 96.4571 71.1638 97.0147 78.5766 90.2349Z" fill="#231F20"/>
<path d="M83.3235 77.9367C84.8814 67.9737 78.1271 58.6249 68.2373 57.0555C58.3476 55.4862 49.0675 62.2905 47.5097 72.2534C45.9518 82.2164 52.7062 91.5652 62.5959 93.1346C72.4856 94.704 81.7657 87.8996 83.3235 77.9367Z" fill="#2BAC76"/>
<path d="M76.7004 85.4301C82.3723 79.149 81.9158 69.4252 75.6809 63.7114C69.446 57.9975 59.7937 58.4574 54.1218 64.7384C48.45 71.0195 48.9064 80.7433 55.1413 86.4572C61.3762 92.171 71.0286 91.7112 76.7004 85.4301Z" fill="white"/>
<path d="M74.2319 69.5845C73.4437 68.7905 72.2256 68.7905 71.4374 69.5845L64.2005 76.875L60.5462 73.1937C59.758 72.3997 58.54 72.3997 57.7518 73.1937C56.9636 73.9877 56.9636 75.2148 57.7518 76.0088L62.8391 81.1338C63.1974 81.4947 63.6989 81.7113 64.2722 81.7113C64.7737 81.7113 65.2753 81.4947 65.7052 81.1338L74.3035 72.4718C75.02 71.6778 75.02 70.3785 74.2319 69.5845Z" fill="#2BAC76"/>
</svg>
