<svg width="72" height="72" viewBox="0 0 72 72" fill="none" xmlns="http://www.w3.org/2000/svg">
<g clip-path="url(#clip0_91_823)">
<path d="M70.5238 0.00921363C56.4688 -0.242786 40.4398 7.10421 30.2938 18.5012C20.5978 18.6842 11.1568 22.6592 4.20578 29.6102C3.80078 30.0092 3.65678 30.6062 3.83378 31.1462C4.01378 31.6892 4.48178 32.0822 5.04578 32.1632L16.6078 33.8192L15.1798 35.4182C14.6488 36.0122 14.6758 36.9152 15.2398 37.4792L34.5208 56.7602C34.8118 57.0512 35.1958 57.1982 35.5828 57.1982C35.9398 57.1982 36.2968 57.0722 36.5818 56.8172L38.1808 55.3892L39.8368 66.9512C39.9178 67.5152 40.3618 67.9292 40.8988 68.1092C41.0368 68.1542 41.1808 68.1752 41.3278 68.1752C41.7538 68.1752 42.1888 67.9892 42.4888 67.6922C49.3438 60.8372 53.3188 51.3962 53.5018 41.7002C64.9108 31.5332 72.3178 15.5102 71.9908 1.47321C71.9698 0.675214 71.3248 0.0302136 70.5238 0.00921363ZM56.6998 25.9052C55.2388 27.3662 53.3188 28.0982 51.3958 28.0982C49.4728 28.0982 47.5528 27.3662 46.0918 25.9052C43.1698 22.9802 43.1698 18.2222 46.0918 15.2972C49.0168 12.3722 53.7748 12.3722 56.6998 15.2972C59.6248 18.2222 59.6248 22.9832 56.6998 25.9052Z" fill="#2F80ED"/>
<path d="M8.17217 50.715C4.96217 53.925 0.555172 68.427 0.0631722 70.068C-0.0958278 70.596 0.0511722 71.169 0.438172 71.559C0.726172 71.847 1.10717 72 1.50017 72C1.64417 72 1.78817 71.979 1.93217 71.937C3.57317 71.445 18.0752 67.038 21.2852 63.828C24.9002 60.213 24.9002 54.33 21.2852 50.715C17.6672 47.1 11.7872 47.103 8.17217 50.715Z" fill="#2F80ED"/>
</g>
<defs>
<clipPath id="clip0_91_823">
<rect width="72" height="72" fill="white"/>
</clipPath>
</defs>
</svg>
