<svg width="320" height="236" viewBox="0 0 320 236" fill="none" xmlns="http://www.w3.org/2000/svg">
<path d="M0.0512695 110.076V120.865L199.368 235.994L319.854 166.846V155.251L0.0512695 110.076Z" fill="#0D0D1C"/>
<path d="M307.721 175.596L208.658 233.813C208.658 233.813 200.121 238.734 191.584 233.813C183.047 228.892 3.78971 125.398 3.78971 125.398C3.78971 125.398 -4.73714 120.477 3.78971 115.546C12.3166 110.615 111.379 52.3778 111.379 52.3778C111.379 52.3778 119.926 47.4364 128.463 52.3778L316.197 160.823C316.197 160.823 324.754 165.734 316.197 170.665L307.721 175.596Z" fill="#2F80ED"/>
<path d="M307.721 165.836L208.618 224.063C208.618 224.063 200.081 228.974 191.544 224.063C183.007 219.152 3.78971 115.638 3.78971 115.638C3.78971 115.638 -4.73714 110.727 3.78971 105.786C12.3166 100.844 111.379 42.6175 111.379 42.6175C111.379 42.6175 119.926 37.6864 128.463 42.6175L316.197 151.063C316.197 151.063 324.754 155.984 316.197 160.915L307.721 165.836Z" fill="#373759"/>
<path d="M302.178 152.959L128.463 52.511L20.8428 115.649L194.742 216.004L302.178 152.959Z" fill="white"/>
<path d="M65.9238 78.6237C65.9238 79.6425 67.8289 80.4168 70.1822 80.4168C72.5355 80.4168 74.4507 79.6119 74.4507 78.6237C74.4507 77.6355 72.5456 76.8408 70.1822 76.8408C67.8187 76.8408 65.9238 77.6355 65.9238 78.6237Z" fill="#181830"/>
<path d="M213.957 149.953L217.838 148.73L219.611 142.77L176.814 107.824L133.996 116.463L171.139 158.582L213.957 149.953Z" fill="#3894E0"/>
<path d="M170.262 161.415L133.109 119.297L134.107 116.342L171.251 158.461L170.262 161.415Z" fill="#66B3FF"/>
<path d="M138.111 104.431L175.254 146.55L218.072 137.92L180.929 95.7913L138.111 104.431Z" fill="#66B3FF"/>
<path d="M218.784 138.492L218.071 137.922L217.052 140.866C219.354 142.74 218.621 147.998 215.33 149.383L214.036 149.831L213.018 152.776C213.94 152.584 214.843 152.311 215.717 151.961C220.505 150.198 222.4 141.385 218.784 138.492Z" fill="#AFD8F9"/>
<path d="M217.288 139.459L209.393 141.629L174.175 148.537L140.607 110.473L137.887 118.552L171.455 156.627L214.405 148.028L217.288 139.459Z" fill="white"/>
<path d="M171.943 156.524L214.404 148.027L217.287 139.459L209.392 141.629L174.826 148.404L171.943 156.524Z" fill="#EBEFFF"/>
<path d="M213.08 152.774L170.263 161.414L171.251 158.459L214.069 149.83L213.08 152.774Z" fill="#AFD8F9"/>
<path d="M217.084 140.866L174.267 149.516L175.255 146.561L218.072 137.922L217.084 140.866Z" fill="#AFD8F9"/>
<path d="M174.265 149.515L137.112 107.396L138.11 104.431L175.254 146.56L174.265 149.515Z" fill="#3894E0"/>
<path d="M117.502 135.373L114.008 136.748L109.281 133.488L119.815 83.5342L155.623 64.9302L153.311 116.769L117.502 135.373Z" fill="#F7AA54"/>
<path d="M155.582 118.297L157.895 66.4588L155.47 64.9101L153.158 116.749L155.582 118.297Z" fill="#E29447"/>
<path d="M145.69 58.6637L143.378 110.502L107.569 129.106L109.881 77.2677L145.69 58.6637Z" fill="#F2994A"/>
<path d="M107.396 129.922L107.569 129.107L109.994 130.656C109.424 133.335 112.989 136.677 116.168 135.75L117.349 135.322L119.774 136.86C119.004 137.276 118.195 137.618 117.36 137.879C112.938 139.356 106.469 134.109 107.396 129.922Z" fill="#FFC388"/>
<path d="M109.036 129.759L115.963 126.733L145.303 111.298L147.391 64.4514L154.033 68.6897L151.945 115.536L116.065 134.252L109.036 129.759Z" fill="white"/>
<path d="M151.537 115.75L116.065 134.251L109.036 129.758L115.963 126.732L144.763 111.583L151.537 115.75Z" fill="#E2E8F2"/>
<path d="M119.773 136.901L155.582 118.298L153.157 116.749L117.349 135.353L119.773 136.901Z" fill="#FFC388"/>
<path d="M109.993 130.655L145.802 112.051L143.378 110.503L107.569 129.106L109.993 130.655Z" fill="#FFC388"/>
<path d="M145.803 112.051L148.116 60.2225L145.691 58.6637L143.378 110.502L145.803 112.051Z" fill="#E29447"/>
<path d="M103.321 38.9503L99.6538 34.5489L102.078 26.1639L179.228 17.3509L223.288 60.0912L147.382 81.6703L103.321 38.9503Z" fill="#3894E0"/>
<path d="M146.271 85.6932L222.177 64.1047L223.247 59.8563L147.34 81.4346L146.271 85.6932Z" fill="#66B3FF"/>
<path d="M227.557 42.7403L151.65 64.3194L107.58 21.5994L183.496 0L227.557 42.7403Z" fill="#66B3FF"/>
<path d="M106.316 21.7213L107.579 21.5889L106.56 25.8271C102.414 26.2957 99.2968 33.0402 102.129 37.2072L103.311 38.715L102.292 42.9431C101.342 42.0228 100.479 41.0167 99.7145 39.9376C95.3747 34.2628 99.8266 22.4345 106.316 21.7213Z" fill="#AFD8F9"/>
<path d="M107.345 24.0137L115.036 32.5617L151.425 67.4876L220.027 47.9768L217.104 59.6017L148.502 79.1125L104.248 36.3314L107.345 24.0137Z" fill="white"/>
<path d="M147.992 78.6235L104.248 36.3314L107.345 24.0137L115.036 32.5617L150.753 66.8457L147.992 78.6235Z" fill="#EBEFFF"/>
<path d="M102.211 42.9447L146.271 85.6952L147.341 81.4365L103.27 38.7165L102.211 42.9447Z" fill="#AFD8F9"/>
<path d="M106.52 25.8374L150.58 68.5676L151.64 64.319L107.579 21.5991L106.52 25.8374Z" fill="#AFD8F9"/>
<path d="M150.58 68.5667L226.486 46.9884L227.556 42.7399L151.639 64.3182L150.58 68.5667Z" fill="#3894E0"/>
</svg>
