<svg width="320" height="199" viewBox="0 0 320 199" fill="none" xmlns="http://www.w3.org/2000/svg">
<g clip-path="url(#clip0_66_1728)">
<path d="M83.3741 43.5418L85.3345 41.8878L87.8714 42.6956L89.3321 44.8111L88.6786 46.6189L86.6414 47.8113L87.4101 48.0037L87.2564 48.6191L84.0276 50.0807C83.2588 49.273 80.645 48.6575 80.2222 48.2344L82.3747 46.3881L83.3741 43.5418Z" fill="#B97262"/>
<path d="M20.1038 191.476L20.0269 192.207L19.7578 194.668L24.6011 197.63L27.4071 195.438L25.1008 192.745L24.9086 192.63L24.7932 192.899L20.1038 191.476Z" fill="#484F5B"/>
<path d="M40.2842 138.972C34.7875 139.318 29.6752 139.472 25.6776 139.549L25.8314 158.358L19.835 191.399L20.104 191.476L24.7935 192.899L24.9088 192.63L40.6686 153.665L41.2067 145.703L40.2842 138.972Z" fill="#2F80ED"/>
<path d="M38.2085 138.972L41.2067 145.703L42.6289 156.05L44.2433 193.322H44.2818L44.3202 192.784L49.125 192.938L56.6974 153.358L57.1202 137.203C51.931 138.049 46.4728 138.587 41.322 138.934L38.2085 138.972Z" fill="#2F80ED"/>
<path d="M49.3946 192.937H49.0871L44.2823 192.784L44.2439 193.322L44.167 195.207L49.2024 197.822L51.8931 195.476L49.3946 192.937Z" fill="#484F5B"/>
<path d="M32.5199 57.6196C32.3662 57.1965 32.2124 56.8119 32.0587 56.3888C32.0587 56.3888 32.0971 56.3888 32.0971 56.3503C34.2112 54.7348 35.2106 51.9269 35.0953 49.2728C35.0184 47.5419 34.5187 45.8495 33.8268 44.2725C33.2887 43.3493 32.6353 42.5031 31.9049 41.8107C30.5211 40.503 28.6761 39.4644 26.8695 39.5414C26.1392 39.5798 26.4467 40.1568 25.5626 39.6952C25.4473 39.6183 25.2935 39.5029 25.1782 39.349C25.0629 39.5029 24.9476 39.5798 24.9476 39.6183C24.1019 40.503 23.141 40.9261 22.1416 41.58C20.604 42.5416 19.7584 44.6187 20.1043 46.5803C20.2581 47.3881 20.604 48.2343 20.4118 49.0036C20.2581 49.696 19.6815 50.1575 19.3356 50.7345C19.1434 51.0807 18.9896 51.4653 18.9512 51.8884C20.6425 54.9656 23.8713 57.4658 27.2154 57.7735V57.8119C27.2539 58.0043 27.2923 58.1966 27.3692 58.3889C27.5998 59.2351 28.1764 60.1583 29.0989 60.1967C29.5217 60.2352 29.9061 60.0813 30.2905 59.9275C31.0593 59.6198 31.828 59.3121 32.5584 59.0043C32.7121 58.9274 32.9043 58.8505 32.9428 58.6966C32.9812 58.5428 32.9428 58.3889 32.9043 58.2735C32.7121 58.0812 32.6353 57.8504 32.5199 57.6196Z" fill="#EAC5B0"/>
<path d="M48.9327 36.0412C47.1261 35.9258 45.5501 37.0028 44.0894 38.0029C43.8204 36.2335 42.1291 35.0027 40.4762 34.5411C38.8234 34.0795 37.1321 34.0795 35.5177 33.4256C33.5957 32.6563 31.7123 31.0024 29.7903 31.5409C28.0606 32.0409 26.9843 34.118 25.9465 35.9643C25.9081 35.9258 25.9081 35.8873 25.8696 35.8873C25.0624 35.0411 24.1399 34.1949 23.1021 33.7718C19.681 32.3486 20.0654 36.6182 17.4516 36.3874C16.7982 36.3489 16.2985 35.8489 15.6834 35.5796C14.5687 35.0796 13.3003 35.4642 12.2624 36.0797C11.263 36.6951 10.3405 37.5413 9.26422 38.0029C8.30325 38.426 7.18854 38.5029 6.30446 39.0414C4.95911 39.8492 5.22818 41.3108 4.99755 42.6571C4.72848 44.1572 4.30566 46.1573 3.53689 47.3882C2.96031 48.2729 2.07623 48.8498 1.30746 49.5807C0.53869 50.3115 -0.0763246 51.3116 0.0774292 52.427C0.231183 53.4656 1.07683 54.3502 1.30746 55.3888C1.65341 56.9274 1.46121 57.7736 2.1531 59.3122C2.49905 60.1199 2.92187 60.9277 3.61377 61.4277C4.53629 62.0816 5.68944 61.8893 6.68884 61.5816C7.68824 61.2738 8.72608 60.8507 9.76392 61.0431C12.0702 61.5046 11.9165 63.774 12.7621 65.5434C13.3003 66.7358 14.2997 67.6205 15.4144 68.159C16.875 68.8513 18.5663 68.8898 19.9117 68.159C21.9489 67.0435 22.8714 64.3895 22.4486 61.9662C22.2948 61.0815 21.9105 60.2738 21.6414 59.4275C21.5261 59.1198 21.4492 58.7737 21.4108 58.4659C21.2186 57.312 21.6798 55.5811 20.4882 54.7734C20.1807 54.581 19.8348 54.5041 19.5657 54.2733C19.3351 54.081 19.2198 53.8117 19.1045 53.5425C18.9123 53.004 18.8354 52.3886 18.9123 51.8501C18.9891 51.427 19.1045 51.0423 19.2966 50.6961C19.6426 50.1192 20.1807 49.6576 20.3729 48.9652C20.5651 48.1959 20.2192 47.3497 20.0654 46.542C19.681 44.5803 20.5267 42.5032 22.1027 41.5416C23.1405 40.8877 24.063 40.4646 24.9087 39.5799C24.9471 39.5415 25.024 39.4645 25.1393 39.3107C25.293 39.4645 25.4084 39.5799 25.5237 39.6568C26.4078 40.1184 26.1003 39.5414 26.8306 39.503C28.6372 39.4261 30.4822 40.4646 31.866 41.7724C32.6348 42.5032 33.2882 43.311 33.7879 44.2341C34.7489 45.8496 35.287 47.7344 35.3639 49.5807C35.4408 52.2347 34.057 53.4271 35.3255 56.0811C35.5945 56.6581 35.9405 57.2351 36.3633 57.7736C37.4396 59.1968 38.9387 60.3122 40.5531 60.8507C40.7453 60.8507 40.9375 60.8507 41.0912 60.8123C42.0138 60.7353 42.8978 60.4661 43.7051 60.043C44.5123 59.6199 45.281 59.0814 45.896 58.389C46.857 57.3505 47.5489 56.0811 47.818 54.658C47.9717 53.8887 48.0486 53.004 48.5483 52.4655C48.9711 52.0039 49.5861 51.8501 50.009 51.3885C51.7771 49.5422 48.3945 46.1958 49.1633 43.6571C49.6246 42.0416 51.6234 41.4262 52.0462 39.8107C52.6228 38.0413 50.7009 36.1566 48.9327 36.0412Z" fill="#333333"/>
<path d="M86.6799 49.1191C86.1033 49.0037 79.9916 47.2728 79.9916 47.2728C80.3376 47.3113 65.2313 58.4275 63.809 59.2737C59.4271 61.9278 51.1244 58.6968 45.9352 58.466C45.3202 59.1583 44.5514 59.6968 43.7442 60.1199C42.937 60.543 42.0145 60.8123 41.1304 60.8892C40.9382 60.8892 40.746 60.9277 40.5922 60.9277C38.9394 60.4277 37.4787 59.3122 36.4024 57.8505C35.7874 57.6967 35.2877 57.5813 34.9418 57.5044L32.5586 57.6198C32.6355 57.8505 32.7508 58.0813 32.8277 58.3121C32.8661 58.466 32.943 58.6198 32.8661 58.7352C32.7892 58.8891 32.6355 58.966 32.4817 59.0429C31.713 59.3507 30.9442 59.6584 30.2139 59.9661C29.8295 60.1199 29.4451 60.2738 29.0223 60.2353C28.1382 60.1584 27.5616 59.2737 27.2925 58.4275C27.2541 58.2352 27.1772 58.0429 27.1388 57.8505L22.6415 58.0429L21.6037 59.5045C21.8727 60.3507 22.2571 61.1585 22.4109 62.0432C22.8337 64.4664 21.9112 67.082 19.8739 68.2359C18.5286 68.9668 16.8373 68.9283 15.3766 68.2359L14.4541 121.124L18.8745 141.088C18.8745 141.088 22.0649 141.164 26.985 141.126C30.7904 141.088 35.5952 140.934 40.8229 140.587C41.1304 140.549 41.4379 140.549 41.7069 140.511C46.5886 140.164 51.7394 139.664 56.6595 138.857C58.543 138.549 60.4265 138.203 62.1946 137.818C62.1946 137.818 66.8072 125.279 60.1958 93.7763C59.158 88.8144 57.6973 83.2755 56.3136 78.3521C60.734 74.5441 72.573 68.0051 76.4553 63.6587C80.6835 58.8891 86.7568 49.1191 86.9105 49.1576C86.8721 49.1576 86.7952 49.1191 86.6799 49.1191Z" fill="#CCD2D9"/>
<path d="M286.445 53.0426L276.105 54.8504L257.77 69.0823L233.323 62.6972L230.479 68.5437L253.234 79.5061L263.151 82.0063L276.028 77.8137L286.445 53.0426Z" fill="#2BAC76"/>
<path d="M232.63 66.5437L228.825 68.4284L226.096 68.1207L226.058 67.1975L227.672 66.5437L222.483 65.4282L222.021 62.928L228.21 61.4663L233.861 63.0818L232.63 66.5437Z" fill="#EAC5B0"/>
<path d="M274.99 188.014L270.147 191.438L268.532 194.053C268.532 194.053 270.339 194.861 271.338 195.053C272.338 195.246 280.179 194.053 280.179 194.053V189.437L274.99 188.014Z" fill="#333333"/>
<path d="M312.507 189.476L310.739 192.707C310.739 192.707 309.624 196.784 310.585 196.515C311.546 196.246 316.927 195.284 317.158 194.592C317.389 193.899 319.695 191.13 320.002 190.63C320.271 190.13 319.118 186.783 319.118 186.783L312.507 189.476Z" fill="#333333"/>
<path d="M279.487 113.201L295.055 159.743L312.468 189.476L319.233 187.514L307.663 153.589C307.663 153.589 306.279 119.509 303.973 109.47L279.487 113.201Z" fill="#F2994A"/>
<path d="M267.148 120.201L273.183 189.437H280.41L282.639 154.012L286.791 122.663L270.954 104.123L267.148 120.201Z" fill="#F2994A"/>
<path d="M266.918 75.9289C267.648 72.3517 267.956 68.5052 269.724 65.1973C271.492 61.8893 274.836 59.3507 277.412 56.5043C278.488 55.3119 279.68 54.0426 281.294 53.5041C282.409 53.1195 283.639 53.081 284.83 53.0425C288.444 52.9656 292.095 52.8502 295.708 52.7733C297.015 52.7348 298.399 52.6963 299.629 53.1964C301.436 53.9272 302.474 55.5812 303.358 57.1198C305.626 61.0816 306.048 65.505 306.279 69.9669C306.279 70.0053 309.123 126.356 306.856 125.279C304.05 123.971 300.859 123.279 297.707 122.779C293.287 122.086 288.751 121.625 284.215 121.509L276.259 122.048H271.454C268.571 122.317 268.802 123.202 265.842 123.009C263.92 122.932 266.072 80.0061 266.918 75.9289Z" fill="#2BAC76"/>
<path d="M287.791 54.8505C289.597 54.7736 291.404 54.6967 293.211 54.6197C293.326 53.1965 293.288 51.7349 293.172 50.3117C294.71 49.8501 296.478 49.1578 296.824 47.6192C296.939 47.1192 296.862 46.6191 296.824 46.1191C296.593 44.0805 296.363 42.0034 296.094 39.9648C296.017 39.2724 295.94 38.5416 295.555 37.8877C294.94 36.8107 293.672 36.2722 292.442 35.9645C289.328 35.2336 285.869 35.7337 283.294 37.6569C282.602 38.1569 281.987 38.8108 281.641 39.5801C281.141 40.7725 281.372 42.1572 281.641 43.465C281.871 44.6574 282.14 45.8498 282.371 47.0422C282.64 48.4269 283.063 49.9655 284.331 50.5425C285.023 50.8502 285.83 50.8117 286.407 51.2349C287.522 52.0426 287.253 53.6581 287.791 54.8505Z" fill="#EAC5B0"/>
<path d="M277.797 28.7715C278.181 28.6945 278.604 28.6176 279.027 28.4253C280.334 27.8483 281.257 26.7329 282.64 26.1944C285.446 25.1174 288.944 25.2712 291.712 26.4251C294.364 27.5406 297.939 27.9637 300.322 29.4638C301.321 30.0793 302.052 31.0024 302.628 32.0409C304.627 35.5412 304.396 40.2339 302.013 43.5033C301.475 44.2342 300.86 44.8881 300.207 45.542C298.861 46.8497 297.247 48.4652 295.479 48.8884C295.517 47.3113 297.209 42.4648 296.094 41.1185C294.595 39.3492 291.673 39.3876 289.559 39.58C287.061 39.8108 284.985 39.003 282.487 39.1184C281.218 39.1953 279.757 39.4261 278.796 38.6184C277.682 37.6568 275.299 34.6565 274.722 33.3487C274.222 32.1948 274.568 30.7716 275.414 29.8485C276.144 29.0407 276.951 28.9253 277.797 28.7715Z" fill="#333333"/>
<path d="M288.251 54.8118C288.058 56.1196 287.674 57.6197 287.674 57.6197C287.674 57.6197 277.642 86.5449 276.681 88.8912C276.45 89.3913 276.373 89.9682 276.373 90.5067L278.679 97.2765L283.254 91.6222L289.442 59.1967L290.941 57.8889L291.479 54.6194L288.251 54.8118Z" fill="white"/>
<path d="M237.589 168.743V146.242C237.55 146.126 237.512 146.049 237.473 145.934V127.51V116.932V116.547H207.722C205.262 115.432 204.109 112.316 205.685 109.777C209.721 103.277 210.643 95.2764 203.148 90.853C197.075 87.2758 188.733 89.5837 185.389 95.7764C182.622 100.854 184.89 105.354 187.503 109.931C188.926 112.432 187.734 115.47 185.351 116.547H155.984V116.932V128.394V145.626C156.714 148.588 160.212 150.165 162.98 148.473C169.476 144.434 177.471 143.511 181.891 151.011C185.466 157.089 182.814 165.282 176.625 168.667C171.513 171.436 167.439 169.205 162.826 166.705C159.789 165.051 156.637 166.32 155.984 169.551V198.13H176.587V198.207H220.868V198.092H237.473V169.013C237.512 168.936 237.55 168.82 237.589 168.743Z" fill="#F2994A"/>
<path d="M181.891 150.934C177.47 143.434 169.475 144.357 162.979 148.396C159.866 150.358 155.829 148.088 155.829 144.434V117.317H126.924C124.31 118.24 122.965 121.394 124.464 124.048C127.078 128.625 129.345 133.087 126.578 138.203C123.195 144.396 114.893 146.703 108.819 143.126C101.324 138.703 102.246 130.702 106.282 124.202C107.935 121.548 106.551 118.24 103.861 117.317H85.4487H74.8781V117.086H74.4937V116.586H74.3784V119.317V146.357V168.782V196.938V198.13H74.7628H80.2211H86.2175H103.399H127.27H143.299H155.829V170.667C155.829 167.09 159.712 164.82 162.825 166.59C167.399 169.205 171.858 171.475 176.971 168.705C183.159 165.359 185.466 157.012 181.891 150.934Z" fill="#2F80ED"/>
<path d="M247.007 102.238L273.222 26.7712L272.837 26.6558L196.268 0L187.12 26.3097C185.928 29.7715 181.354 30.5792 179.048 27.6944C174.243 21.7324 166.978 18.2321 160.367 23.8864C154.985 28.4637 154.409 37.0797 159.175 42.3108C163.057 46.6189 168.054 45.9265 173.205 44.9649C176.741 44.311 179.663 47.6959 178.471 51.1192L169.438 77.0827L196.422 86.468C199.343 86.6988 201.919 84.0447 201.342 80.9291C200.381 75.7749 199.728 70.7745 203.994 66.8896C209.222 62.1585 217.832 62.697 222.406 68.082C228.018 74.6979 224.52 81.9677 218.601 86.7757C216.064 88.8143 216.41 92.6608 218.985 94.3147L235.245 99.969L246.046 103.739L246.43 103.854L247.007 102.238Z" fill="#FFA8DB"/>
<path d="M152.331 76.7748C151.294 73.6592 148.026 72.7745 145.22 74.7747C140.954 77.8134 137.148 80.5059 131.767 78.3903C125.194 75.7748 121.619 67.9665 124.425 61.5045C127.885 53.5423 135.957 53.5039 142.876 56.7349C145.835 58.1196 149.103 56.1194 149.487 53.0807L147.411 35.9641L146.066 24.5786L146.028 24.194L136.841 25.3094L68.5741 33.5408L65.0762 33.9639L65.1146 34.3486L66.3831 44.8494L68.5741 63.12C68.5356 63.2354 68.4972 63.3507 68.4972 63.4277L71.1879 85.7755C71.2263 85.8524 71.3032 85.9678 71.3416 86.0448L74.8395 114.893L75.2239 114.855L75.2624 115.085L85.7561 113.816L104.014 111.624C106.782 112.239 108.55 115.355 107.243 118.163C104.014 125.086 104.053 133.164 112.01 136.625C118.467 139.433 126.462 136.164 129.076 129.586C131.229 124.201 128.423 120.009 125.271 115.816C123.464 113.393 124.425 110.085 126.924 108.854L155.752 105.354L154.33 93.5069L152.331 76.7748Z" fill="#2BAC76"/>
<path d="M67.9597 89.5452L67.8828 92.3531L72.7645 94.1224L75.5705 91.9684L75.609 88.7374L72.8798 88.5836L72.7645 87.8912L71.8804 87.3142L67.9597 89.5452Z" fill="#B97262"/>
<path d="M53.6214 83.4293L68.7277 86.4296C68.7277 86.4296 67.8437 95.661 67.8821 94.8917C67.8821 94.1224 48.0479 93.2378 48.0479 93.2378L53.6214 83.4293Z" fill="#CCD2D9"/>
<path d="M296.976 62.9279L278.487 80.4292L251.004 72.2362L249.043 78.429L279.218 92.2377H287.174L303.972 77.929L296.976 62.9279Z" fill="#2BAC76"/>
<path d="M249.235 77.852L244.431 77.929L241.509 73.8133L248.928 69.6976L251.004 72.2362L249.235 77.852Z" fill="#EAC5B0"/>
</g>
<defs>
<clipPath id="clip0_66_1728">
<rect width="320" height="198.169" fill="white"/>
</clipPath>
</defs>
</svg>
