<svg width="320" height="180" viewBox="0 0 320 180" fill="none" xmlns="http://www.w3.org/2000/svg">
<path d="M290.945 0H29.0455C25.2303 -2.25731e-07 21.4526 0.751612 17.928 2.21191C14.4033 3.67221 11.201 5.81257 8.5037 8.51076C5.80644 11.2089 3.66718 14.4121 2.20809 17.9372C0.749007 21.4623 -0.00131068 25.2403 1.71869e-06 29.0555V109.498C-0.00131068 113.313 0.749007 117.091 2.20809 120.616C3.66718 124.141 5.80644 127.344 8.5037 130.042C11.201 132.741 14.4033 134.881 17.928 136.341C21.4526 137.801 25.2303 138.553 29.0455 138.553H240.047L276.707 179.069V138.573H290.945C294.762 138.573 298.542 137.821 302.068 136.359C305.595 134.898 308.799 132.756 311.497 130.056C314.195 127.356 316.335 124.15 317.794 120.623C319.253 117.095 320.003 113.315 320 109.498V29.0555C320 21.3495 316.939 13.9591 311.49 8.51015C306.041 3.06119 298.651 0 290.945 0Z" fill="white"/>
<path d="M26.9808 74.2675H25.6694V64.3228H26.9808V74.2675Z" fill="black"/>
<path d="M36.2289 68.0111C36.0376 67.9792 35.8305 67.9633 35.6073 67.9633C34.7786 67.9633 34.2163 68.3162 33.9203 69.0219V74.2675H32.6567V66.8773H33.8861L33.9066 67.731C34.321 67.0708 34.9084 66.7407 35.6688 66.7407C35.9147 66.7407 36.1014 66.7725 36.2289 66.8363V68.0111Z" fill="black"/>
<path d="M40.327 74.4041C39.3252 74.4041 38.5102 74.0763 37.8818 73.4206C37.2534 72.7603 36.9392 71.8792 36.9392 70.7773V70.5451C36.9392 69.812 37.0781 69.1585 37.3559 68.5848C37.6382 68.0065 38.0298 67.5557 38.5307 67.2324C39.0361 66.9046 39.5825 66.7407 40.1699 66.7407C41.1307 66.7407 41.8774 67.0571 42.4102 67.6901C42.9429 68.323 43.2093 69.2291 43.2093 70.4085V70.9344H38.2028C38.221 71.6629 38.4328 72.2526 38.838 72.7034C39.2478 73.1496 39.7669 73.3728 40.3953 73.3728C40.8415 73.3728 41.2195 73.2817 41.5291 73.0996C41.8387 72.9174 42.1097 72.6761 42.3419 72.3756L43.1137 72.9766C42.4944 73.9283 41.5655 74.4041 40.327 74.4041ZM40.1699 67.7789C39.6599 67.7789 39.2319 67.9655 38.8858 68.3389C38.5398 68.7078 38.3257 69.2268 38.2438 69.8962H41.9457V69.8006C41.9093 69.1585 41.7363 68.6622 41.4266 68.3116C41.117 67.9564 40.6981 67.7789 40.1699 67.7789Z" fill="black"/>
<path d="M47.6421 73.3728C48.0929 73.3728 48.4868 73.2362 48.8237 72.963C49.1607 72.6897 49.3474 72.3482 49.3838 71.9384H50.5791C50.5563 72.3619 50.4106 72.7649 50.142 73.1474C49.8733 73.5299 49.5136 73.8349 49.0628 74.0626C48.6165 74.2903 48.143 74.4041 47.6421 74.4041C46.6358 74.4041 45.8344 74.0694 45.2379 73.4001C44.6459 72.7262 44.35 71.8064 44.35 70.6407V70.429C44.35 69.7095 44.482 69.0698 44.7461 68.5097C45.0102 67.9496 45.3881 67.5148 45.8799 67.2051C46.3762 66.8955 46.9614 66.7407 47.6353 66.7407C48.464 66.7407 49.1516 66.9888 49.698 67.4852C50.249 67.9815 50.5427 68.6258 50.5791 69.4181H49.3838C49.3474 68.94 49.1652 68.5484 48.8374 68.2433C48.5141 67.9337 48.1134 67.7789 47.6353 67.7789C46.9932 67.7789 46.4946 68.0111 46.1395 68.4755C45.7889 68.9354 45.6135 69.6025 45.6135 70.4768V70.7158C45.6135 71.5673 45.7889 72.223 46.1395 72.6829C46.4901 73.1428 46.991 73.3728 47.6421 73.3728Z" fill="black"/>
<path d="M51.6651 70.5041C51.6651 69.7801 51.8062 69.1289 52.0886 68.5507C52.3754 67.9724 52.7716 67.5261 53.277 67.2119C53.787 66.8978 54.3676 66.7407 55.0187 66.7407C56.025 66.7407 56.8378 67.089 57.4571 67.7857C58.0809 68.4824 58.3928 69.409 58.3928 70.5656V70.6544C58.3928 71.3738 58.2539 72.0204 57.9762 72.5941C57.703 73.1633 57.3091 73.6073 56.7945 73.926C56.2846 74.2448 55.6972 74.4041 55.0324 74.4041C54.0306 74.4041 53.2178 74.0558 52.594 73.3591C51.9747 72.6624 51.6651 71.7404 51.6651 70.5929V70.5041ZM52.9355 70.6544C52.9355 71.474 53.1245 72.1319 53.5024 72.6283C53.8849 73.1246 54.3949 73.3728 55.0324 73.3728C55.6744 73.3728 56.1844 73.1223 56.5623 72.6214C56.9403 72.116 57.1292 71.4102 57.1292 70.5041C57.1292 69.6936 56.9357 69.0379 56.5487 68.537C56.1662 68.0316 55.6562 67.7789 55.0187 67.7789C54.3949 67.7789 53.8917 68.027 53.5092 68.5233C53.1267 69.0197 52.9355 69.73 52.9355 70.6544Z" fill="black"/>
<path d="M61.1659 66.8773L61.2 67.6969C61.7419 67.0594 62.4727 66.7407 63.3925 66.7407C64.4261 66.7407 65.1296 67.1368 65.503 67.9291C65.7489 67.5739 66.0676 67.2871 66.4592 67.0685C66.8554 66.8499 67.3221 66.7407 67.8594 66.7407C69.4805 66.7407 70.3046 67.599 70.332 69.3156V74.2675H69.0684V69.3908C69.0684 68.8626 68.9477 68.4687 68.7064 68.2092C68.465 67.9451 68.0598 67.813 67.4906 67.813C67.0216 67.813 66.6323 67.9542 66.3226 68.2365C66.013 68.5142 65.8331 68.8899 65.7831 69.3635V74.2675H64.5126V69.4249C64.5126 68.3503 63.9867 67.813 62.9349 67.813C62.1061 67.813 61.5392 68.1659 61.2342 68.8717V74.2675H59.9706V66.8773H61.1659Z" fill="black"/>
<path d="M73.4328 66.8773L73.467 67.6969C74.0089 67.0594 74.7397 66.7407 75.6595 66.7407C76.6931 66.7407 77.3966 67.1368 77.77 67.9291C78.0159 67.5739 78.3346 67.2871 78.7262 67.0685C79.1224 66.8499 79.5891 66.7407 80.1264 66.7407C81.7474 66.7407 82.5716 67.599 82.5989 69.3156V74.2675H81.3354V69.3908C81.3354 68.8626 81.2147 68.4687 80.9734 68.2092C80.732 67.9451 80.3268 67.813 79.7576 67.813C79.2886 67.813 78.8993 67.9542 78.5896 68.2365C78.28 68.5142 78.1001 68.8899 78.05 69.3635V74.2675H76.7796V69.4249C76.7796 68.3503 76.2537 67.813 75.2019 67.813C74.3731 67.813 73.8062 68.1659 73.5012 68.8717V74.2675H72.2376V66.8773H73.4328Z" fill="black"/>
<path d="M87.5781 74.4041C86.5764 74.4041 85.7613 74.0763 85.1329 73.4206C84.5046 72.7603 84.1904 71.8792 84.1904 70.7773V70.5451C84.1904 69.812 84.3293 69.1585 84.607 68.5848C84.8893 68.0065 85.2809 67.5557 85.7818 67.2324C86.2872 66.9046 86.8337 66.7407 87.421 66.7407C88.3818 66.7407 89.1286 67.0571 89.6613 67.6901C90.1941 68.323 90.4605 69.2291 90.4605 70.4085V70.9344H85.454C85.4722 71.6629 85.6839 72.2526 86.0892 72.7034C86.499 73.1496 87.0181 73.3728 87.6464 73.3728C88.0927 73.3728 88.4706 73.2817 88.7803 73.0996C89.0899 72.9174 89.3608 72.6761 89.593 72.3756L90.3649 72.9766C89.7456 73.9283 88.8167 74.4041 87.5781 74.4041ZM87.421 67.7789C86.9111 67.7789 86.483 67.9655 86.137 68.3389C85.7909 68.7078 85.5769 69.2268 85.4949 69.8962H89.1969V69.8006C89.1605 69.1585 88.9874 68.6622 88.6778 68.3116C88.3682 67.9564 87.9492 67.7789 87.421 67.7789Z" fill="black"/>
<path d="M93.1242 66.8773L93.1652 67.8062C93.7299 67.0958 94.4675 66.7407 95.3782 66.7407C96.94 66.7407 97.7278 67.6218 97.7414 69.3839V74.2675H96.4779V69.3771C96.4733 68.8444 96.3504 68.4505 96.109 68.1955C95.8723 67.9405 95.5011 67.813 94.9957 67.813C94.5859 67.813 94.2262 67.9223 93.9165 68.1408C93.6069 68.3594 93.3656 68.6463 93.1925 69.0015V74.2675H91.929V66.8773H93.1242Z" fill="black"/>
<path d="M99.3397 70.5109C99.3397 69.3771 99.6084 68.4664 100.146 67.7789C100.683 67.0867 101.386 66.7407 102.256 66.7407C103.121 66.7407 103.807 67.0366 104.312 67.6286V63.7764H105.576V74.2675H104.415L104.353 73.4752C103.848 74.0945 103.144 74.4041 102.243 74.4041C101.386 74.4041 100.688 74.0535 100.146 73.3523C99.6084 72.651 99.3397 71.7358 99.3397 70.6065V70.5109ZM100.603 70.6544C100.603 71.4922 100.776 72.1479 101.122 72.6214C101.468 73.095 101.947 73.3318 102.557 73.3318C103.358 73.3318 103.943 72.9721 104.312 72.2526V68.858C103.934 68.1613 103.354 67.813 102.57 67.813C101.951 67.813 101.468 68.0521 101.122 68.5302C100.776 69.0083 100.603 69.7163 100.603 70.6544Z" fill="black"/>
<path d="M112.385 74.2675H111.122V66.8773H112.385V74.2675ZM111.019 64.917C111.019 64.7121 111.081 64.5391 111.204 64.3979C111.331 64.2568 111.518 64.1862 111.764 64.1862C112.01 64.1862 112.196 64.2568 112.324 64.3979C112.451 64.5391 112.515 64.7121 112.515 64.917C112.515 65.1219 112.451 65.2927 112.324 65.4293C112.196 65.5659 112.01 65.6342 111.764 65.6342C111.518 65.6342 111.331 65.5659 111.204 65.4293C111.081 65.2927 111.019 65.1219 111.019 64.917Z" fill="black"/>
<path d="M116.128 65.0878V66.8773H117.508V67.854H116.128V72.437C116.128 72.733 116.19 72.9561 116.313 73.1064C116.436 73.2521 116.645 73.325 116.941 73.325C117.087 73.325 117.287 73.2976 117.542 73.243V74.2675C117.21 74.3586 116.886 74.4041 116.572 74.4041C116.008 74.4041 115.582 74.2334 115.295 73.8919C115.008 73.5503 114.865 73.0654 114.865 72.437V67.854H113.519V66.8773H114.865V65.0878H116.128Z" fill="black"/>
<path d="M120.404 71.4603H119.263L119.175 64.3228H120.5L120.404 71.4603ZM119.127 73.6323C119.127 73.4274 119.188 73.2567 119.311 73.12C119.439 72.9789 119.625 72.9083 119.871 72.9083C120.117 72.9083 120.304 72.9789 120.431 73.12C120.559 73.2567 120.623 73.4274 120.623 73.6323C120.623 73.8372 120.559 74.008 120.431 74.1446C120.304 74.2766 120.117 74.3426 119.871 74.3426C119.625 74.3426 119.439 74.2766 119.311 74.1446C119.188 74.008 119.127 73.8372 119.127 73.6323Z" fill="black"/>
<path d="M39.4569 29.5655L40.6958 33.3823C40.8282 33.7744 41.0791 34.1157 41.4138 34.3591C41.7485 34.6025 42.1505 34.736 42.5643 34.7411H46.5609C46.9694 34.7569 47.3633 34.8976 47.6894 35.1442C48.0154 35.3909 48.258 35.7316 48.3843 36.1204C48.5107 36.5093 48.5147 36.9275 48.3959 37.3187C48.2771 37.7099 48.0412 38.0552 47.7199 38.3081L44.4727 40.6661C44.1396 40.9127 43.8915 41.2567 43.7626 41.6506C43.6337 42.0444 43.6305 42.4685 43.7533 42.8643L44.9922 46.6811C45.0967 47.0695 45.0815 47.4804 44.9486 47.86C44.8158 48.2397 44.5715 48.5704 44.2477 48.8089C43.9239 49.0475 43.5356 49.1828 43.1336 49.1971C42.7316 49.2114 42.3347 49.1041 41.9947 48.8892L38.7475 46.5212C38.41 46.2825 38.0068 46.1543 37.5934 46.1543C37.1801 46.1543 36.7769 46.2825 36.4394 46.5212L33.1822 48.8892C32.8422 49.1041 32.4453 49.2114 32.0433 49.1971C31.6413 49.1828 31.2531 49.0475 30.9292 48.8089C30.6054 48.5704 30.3611 48.2397 30.2283 47.86C30.0954 47.4804 30.0802 47.0695 30.1847 46.6811L31.4336 42.8643C31.5564 42.4685 31.5532 42.0444 31.4243 41.6506C31.2954 41.2567 31.0473 40.9127 30.7143 40.6661L27.417 38.2782C27.0958 38.0253 26.8598 37.6799 26.741 37.2887C26.6222 36.8975 26.6263 36.4793 26.7526 36.0905C26.8789 35.7016 27.1215 35.3609 27.4476 35.1143C27.7736 34.8676 28.1675 34.7269 28.5761 34.7112H32.5727C32.9865 34.706 33.3885 34.5725 33.7232 34.3291C34.0579 34.0857 34.3087 33.7444 34.4411 33.3523L35.71 29.5655C35.852 29.1831 36.1076 28.8532 36.4425 28.6203C36.7774 28.3874 37.1755 28.2626 37.5835 28.2626C37.9914 28.2626 38.3895 28.3874 38.7244 28.6203C39.0593 28.8532 39.3149 29.1831 39.4569 29.5655Z" fill="#F2994A"/>
<path d="M65.0949 29.5653L66.3339 33.382C66.4663 33.7741 66.7171 34.1154 67.0518 34.3589C67.3865 34.6023 67.7885 34.7357 68.2023 34.7409H72.1989C72.6075 34.7567 73.0013 34.8974 73.3274 35.144C73.6535 35.3906 73.896 35.7314 74.0224 36.1202C74.1487 36.509 74.1528 36.9273 74.034 37.3185C73.9151 37.7097 73.6792 38.055 73.3579 38.3079L70.1107 40.6659C69.7777 40.9125 69.5295 41.2565 69.4007 41.6503C69.2718 42.0441 69.2685 42.4683 69.3913 42.864L70.6302 46.6808C70.7347 47.0692 70.7195 47.4801 70.5867 47.8598C70.4539 48.2394 70.2095 48.5701 69.8857 48.8087C69.5619 49.0473 69.1736 49.1825 68.7716 49.1969C68.3697 49.2112 67.9728 49.1039 67.6328 48.889L64.3855 46.491C64.048 46.2523 63.6449 46.1241 63.2315 46.1241C62.8181 46.1241 62.4149 46.2523 62.0775 46.491L58.8202 48.859C58.4802 49.0739 58.0833 49.1812 57.6813 49.1669C57.2794 49.1526 56.8911 49.0173 56.5673 48.7787C56.2434 48.5402 55.9991 48.2094 55.8663 47.8298C55.7335 47.4502 55.7183 47.0393 55.8227 46.6508L57.0717 42.8341C57.1945 42.4383 57.1912 42.0142 57.0623 41.6203C56.9334 41.2265 56.6853 40.8825 56.3523 40.6359L53.105 38.2779C52.7838 38.025 52.5478 37.6797 52.429 37.2885C52.3102 36.8973 52.3142 36.4791 52.4406 36.0902C52.5669 35.7014 52.8095 35.3607 53.1356 35.114C53.4616 34.8674 53.8555 34.7267 54.264 34.7109H58.2607C58.6745 34.7058 59.0765 34.5723 59.4112 34.3289C59.7458 34.0855 59.9967 33.7442 60.1291 33.3521L61.388 29.5653C61.537 29.1957 61.7931 28.879 62.1233 28.6561C62.4536 28.4331 62.843 28.314 63.2415 28.314C63.64 28.314 64.0294 28.4331 64.3596 28.6561C64.6899 28.879 64.946 29.1957 65.0949 29.5653Z" fill="#F2994A"/>
<path d="M90.7334 29.5652L91.9723 33.382C92.1047 33.7741 92.3556 34.1154 92.6902 34.3588C93.0249 34.6022 93.4269 34.7357 93.8407 34.7408H97.8374C98.2459 34.7566 98.6398 34.8973 98.9659 35.1439C99.2919 35.3906 99.5345 35.7313 99.6608 36.1201C99.7872 36.509 99.7912 36.9272 99.6724 37.3184C99.5536 37.7096 99.3176 38.0549 98.9964 38.3078L95.7491 40.6658C95.4161 40.9124 95.168 41.2564 95.0391 41.6503C94.9102 42.0441 94.9069 42.4682 95.0297 42.864L96.2787 46.6808C96.3831 47.0692 96.368 47.4801 96.2351 47.8597C96.1023 48.2394 95.858 48.5701 95.5342 48.8086C95.2103 49.0472 94.822 49.1825 94.4201 49.1968C94.0181 49.2111 93.6212 49.1038 93.2812 48.8889L90.0339 46.5209C89.6965 46.2822 89.2933 46.154 88.8799 46.154C88.4666 46.154 88.0634 46.2822 87.7259 46.5209L84.4687 48.8889C84.1287 49.1038 83.7317 49.2111 83.3298 49.1968C82.9278 49.1825 82.5395 49.0472 82.2157 48.8086C81.8919 48.5701 81.6476 48.2394 81.5147 47.8597C81.3819 47.4801 81.3667 47.0692 81.4712 46.6808L82.7201 42.864C82.8429 42.4682 82.8396 42.0441 82.7108 41.6503C82.5819 41.2564 82.3337 40.9124 82.0007 40.6658L78.7535 38.3078C78.4322 38.0549 78.1963 37.7096 78.0775 37.3184C77.9586 36.9272 77.9627 36.509 78.089 36.1201C78.2154 35.7313 78.4579 35.3906 78.784 35.1439C79.1101 34.8973 79.5039 34.7566 79.9125 34.7408H83.9091C84.3229 34.7357 84.7249 34.6022 85.0596 34.3588C85.3943 34.1154 85.6451 33.7741 85.7775 33.382L87.0165 29.5652C87.1638 29.1925 87.4198 28.8727 87.7512 28.6473C88.0826 28.4219 88.4741 28.3014 88.8749 28.3014C89.2757 28.3014 89.6672 28.4219 89.9987 28.6473C90.3301 28.8727 90.586 29.1925 90.7334 29.5652Z" fill="#F2994A"/>
<path d="M116.342 29.5652L117.581 33.382C117.714 33.7741 117.965 34.1154 118.299 34.3588C118.634 34.6022 119.036 34.7357 119.45 34.7408H123.446C123.855 34.7566 124.249 34.8973 124.575 35.1439C124.901 35.3906 125.144 35.7313 125.27 36.1201C125.396 36.509 125.4 36.9272 125.282 37.3184C125.163 37.7096 124.927 38.0549 124.606 38.3078L121.358 40.6658C121.025 40.9124 120.777 41.2564 120.648 41.6502C120.519 42.0441 120.516 42.4682 120.639 42.864L121.888 46.6807C121.992 47.0692 121.977 47.4801 121.844 47.8597C121.711 48.2393 121.467 48.5701 121.143 48.8086C120.819 49.0472 120.431 49.1825 120.029 49.1968C119.627 49.2111 119.23 49.1038 118.89 48.8889L115.633 46.5209C115.296 46.2822 114.892 46.154 114.479 46.154C114.066 46.154 113.662 46.2822 113.325 46.5209L110.078 48.8889C109.738 49.1038 109.341 49.2111 108.939 49.1968C108.537 49.1825 108.149 49.0472 107.825 48.8086C107.501 48.5701 107.257 48.2393 107.124 47.8597C106.991 47.4801 106.976 47.0692 107.08 46.6807L108.329 42.864C108.452 42.4682 108.449 42.0441 108.32 41.6502C108.191 41.2564 107.943 40.9124 107.61 40.6658L104.353 38.2778C104.031 38.025 103.795 37.6796 103.677 37.2884C103.558 36.8972 103.562 36.479 103.688 36.0901C103.814 35.7013 104.057 35.3606 104.383 35.1139C104.709 34.8673 105.103 34.7266 105.512 34.7109H109.508C109.922 34.7057 110.324 34.5722 110.659 34.3288C110.993 34.0854 111.244 33.7441 111.377 33.352L112.616 29.5352C112.764 29.1605 113.023 28.8394 113.357 28.6142C113.691 28.389 114.086 28.2703 114.489 28.2735C114.892 28.2767 115.285 28.4018 115.616 28.6324C115.947 28.8629 116.2 29.1881 116.342 29.5652Z" fill="#F2994A"/>
<path d="M142.01 29.565L143.249 33.3818C143.381 33.7739 143.632 34.1152 143.967 34.3586C144.302 34.602 144.704 34.7355 145.117 34.7407H149.114C149.523 34.7564 149.916 34.8971 150.242 35.1438C150.569 35.3904 150.811 35.7311 150.937 36.12C151.064 36.5088 151.068 36.927 150.949 37.3182C150.83 37.7094 150.594 38.0548 150.273 38.3077L147.026 40.6657C146.693 40.9123 146.445 41.2563 146.316 41.6501C146.187 42.0439 146.184 42.4681 146.306 42.8638L147.555 46.6806C147.66 47.069 147.645 47.4799 147.512 47.8596C147.379 48.2392 147.135 48.5699 146.811 48.8085C146.487 49.047 146.099 49.1823 145.697 49.1966C145.295 49.211 144.898 49.1036 144.558 48.8887L141.321 46.4908C140.983 46.2521 140.58 46.1239 140.167 46.1239C139.753 46.1239 139.35 46.2521 139.013 46.4908L135.765 48.8588C135.425 49.0737 135.028 49.181 134.626 49.1667C134.224 49.1524 133.836 49.0171 133.512 48.7785C133.188 48.54 132.944 48.2092 132.811 47.8296C132.679 47.4499 132.663 47.039 132.768 46.6506L134.007 42.8339C134.13 42.4381 134.126 42.0139 133.997 41.6201C133.868 41.2263 133.62 40.8823 133.287 40.6357L130.04 38.2777C129.719 38.0248 129.483 37.6795 129.364 37.2883C129.245 36.8971 129.249 36.4788 129.376 36.09C129.502 35.7012 129.745 35.3604 130.071 35.1138C130.397 34.8672 130.791 34.7265 131.199 34.7107H135.196C135.61 34.7056 136.012 34.5721 136.346 34.3287C136.681 34.0852 136.932 33.7439 137.064 33.3519L138.303 29.5351C138.455 29.1667 138.714 28.8521 139.046 28.6318C139.378 28.4114 139.768 28.2954 140.167 28.2986C140.565 28.3019 140.954 28.4242 141.282 28.6498C141.611 28.8755 141.864 29.1942 142.01 29.565Z" fill="#F2994A"/>
<path d="M263.208 101.274C284.36 101.274 301.506 84.128 301.506 62.9768C301.506 41.8255 284.36 24.6791 263.208 24.6791C242.057 24.6791 224.911 41.8255 224.911 62.9768C224.911 84.128 242.057 101.274 263.208 101.274Z" fill="#317FCA"/>
<path d="M246.693 18.4744H279.735C282.358 18.4744 284.874 19.5165 286.729 21.3716C288.584 23.2266 289.626 25.7426 289.626 28.366V53.5648C289.626 59.2992 287.348 64.7988 283.294 68.8536C279.239 72.9085 273.739 75.1865 268.005 75.1865H258.413C252.678 75.1865 247.179 72.9085 243.124 68.8536C239.069 64.7988 236.791 59.2992 236.791 53.5648V28.366C236.791 27.0662 237.047 25.7791 237.545 24.5783C238.043 23.3776 238.772 22.2867 239.692 21.368C240.611 20.4494 241.703 19.721 242.904 19.2245C244.106 18.7279 245.393 18.4731 246.693 18.4744Z" fill="#FDC082"/>
<path d="M236.919 40.5762H236.68C234.621 40.5762 232.953 42.2447 232.953 44.303V54.7242C232.953 56.7825 234.621 58.4511 236.68 58.4511H236.919C238.978 58.4511 240.646 56.7825 240.646 54.7242V44.303C240.646 42.2447 238.978 40.5762 236.919 40.5762Z" fill="#FDC082"/>
<path d="M289.745 40.5762H289.505C287.447 40.5762 285.778 42.2447 285.778 44.303V54.7242C285.778 56.7825 287.447 58.4511 289.505 58.4511H289.745C291.803 58.4511 293.472 56.7825 293.472 54.7242V44.303C293.472 42.2447 291.803 40.5762 289.745 40.5762Z" fill="#FDC082"/>
<path d="M253.896 54.2845H272.53V58.5709C272.53 60.9559 271.583 63.2431 269.896 64.9295C268.21 66.6159 265.923 67.5633 263.538 67.5633H262.948C260.563 67.5633 258.276 66.6159 256.59 64.9295C254.903 63.2431 253.956 60.9559 253.956 58.5709V54.2845H253.896Z" fill="#111111"/>
<path d="M262.658 40.5762H262.488C261.065 40.5762 259.911 41.7303 259.911 43.154V46.661C259.911 48.0847 261.065 49.2389 262.488 49.2389H262.658C264.082 49.2389 265.236 48.0847 265.236 46.661V43.154C265.236 41.7303 264.082 40.5762 262.658 40.5762Z" fill="#FC8C83"/>
<path d="M248.09 46.8306C249.265 46.8306 250.218 45.8778 250.218 44.7024C250.218 43.5271 249.265 42.5742 248.09 42.5742C246.915 42.5742 245.962 43.5271 245.962 44.7024C245.962 45.8778 246.915 46.8306 248.09 46.8306Z" fill="#111111"/>
<path d="M277.057 46.8306C278.233 46.8306 279.186 45.8778 279.186 44.7024C279.186 43.5271 278.233 42.5742 277.057 42.5742C275.882 42.5742 274.929 43.5271 274.929 44.7024C274.929 45.8778 275.882 46.8306 277.057 46.8306Z" fill="#111111"/>
<path d="M290.964 25.808C289.965 13.1087 281.971 9.87146 272.31 9.87146H254.115C244.403 9.87146 236.42 12.749 235.451 25.858C235.383 26.1023 235.347 26.354 235.341 26.6073V46.0909C235.327 46.9031 235.622 47.6904 236.165 48.2945C236.708 48.8987 237.459 49.2751 238.268 49.3482C238.686 49.3713 239.105 49.3088 239.498 49.1645C239.891 49.0202 240.251 48.7972 240.555 48.5091C240.859 48.221 241.101 47.8739 241.266 47.489C241.431 47.1041 241.516 46.6896 241.516 46.2708V30.3242C241.514 29.4495 241.81 28.6002 242.354 27.9157C242.899 27.2313 243.66 26.7523 244.513 26.5574L256.223 23.8796C260.798 22.8406 265.547 22.8406 270.121 23.8796L281.901 26.5674C282.754 26.7623 283.515 27.2412 284.06 27.9257C284.605 28.6102 284.901 29.4595 284.899 30.3342V46.0809C284.883 46.8922 285.175 47.6794 285.717 48.2838C286.258 48.8883 287.008 49.265 287.816 49.3382C288.235 49.3613 288.653 49.2988 289.046 49.1545C289.44 49.0103 289.799 48.7872 290.103 48.4991C290.407 48.211 290.649 47.8639 290.814 47.479C290.98 47.0941 291.064 46.6796 291.064 46.2608V26.5674C291.065 26.3109 291.031 26.0554 290.964 25.808Z" fill="#111111"/>
<path d="M270.412 72.0997H256.004V86.3677H270.412V72.0997Z" fill="#FDC082"/>
<path d="M272.669 78.6334H252.466C248.9 78.636 245.424 79.7578 242.529 81.8408C239.634 83.9238 237.466 86.8628 236.33 90.2436C243.316 97.1515 252.69 101.108 262.513 101.294C272.336 101.48 281.853 97.8812 289.096 91.2428C288.131 87.6242 285.997 84.4259 283.026 82.1455C280.056 79.8651 276.414 78.6304 272.669 78.6334Z" fill="#9BC8FF"/>
<path d="M272.369 77.1053H254.055C253.078 77.1053 252.286 77.8971 252.286 78.8739V79.0038C252.286 79.9805 253.078 80.7723 254.055 80.7723H272.369C273.346 80.7723 274.138 79.9805 274.138 79.0038V78.8739C274.138 77.8971 273.346 77.1053 272.369 77.1053Z" fill="white"/>
</svg>
