<svg width="24" height="24" viewBox="0 0 24 24" fill="none" xmlns="http://www.w3.org/2000/svg">
<g clip-path="url(#clip0_102_1002)">
<path d="M23.998 12.0737C23.998 5.44573 18.626 0.0737305 11.999 0.0737305C5.372 0.0737305 0 5.44573 0 12.0737C0 18.0617 4.388 23.0257 10.124 23.9257V15.5417H7.078V12.0727H10.124V9.42973C10.124 6.42173 11.916 4.76073 14.656 4.76073C15.969 4.76073 17.342 4.99473 17.342 4.99473V7.94773H15.83C14.34 7.94773 13.875 8.87273 13.875 9.82173V12.0737H17.203L16.671 15.5427H13.875V23.9267C19.611 23.0267 23.999 18.0627 23.999 12.0737H23.998Z" fill="#718094"/>
</g>
<defs>
<clipPath id="clip0_102_1002">
<rect width="23.999" height="23.853" fill="white" transform="translate(0 0.0737305)"/>
</clipPath>
</defs>
</svg>
