<svg width="320" height="293" viewBox="0 0 320 293" fill="none" xmlns="http://www.w3.org/2000/svg">
<g clip-path="url(#clip0_68_1995)">
<path d="M301.283 268.257H158.354C154.914 268.257 151.638 267.284 148.853 265.662C143.529 262.498 139.925 256.657 139.925 250.005V35.2724C139.925 30.9729 141.481 26.9979 143.938 23.8341C147.296 19.6968 152.539 17.0198 158.272 17.0198H301.283C308.245 17.0198 314.306 20.8326 317.418 26.5112C318.893 29.1071 319.712 32.1086 319.712 35.2724V250.005C319.712 253.899 318.483 257.468 316.435 260.389C313.077 265.094 307.508 268.257 301.283 268.257Z" fill="#F2994A"/>
<path d="M146.15 21.6442C145.413 22.2931 144.676 23.1044 144.02 23.8345C141.481 26.9983 140.007 30.8922 140.007 35.2728V250.005C140.007 256.657 143.611 262.417 148.935 265.662C151.72 267.284 154.996 268.258 158.436 268.258H301.283C306.279 268.258 310.784 266.311 314.06 263.147C289.324 227.696 189.97 85.0823 146.15 21.6442Z" fill="#F2994A"/>
<path d="M306.525 31.6222H153.03V253.656H306.525V31.6222Z" fill="white"/>
<path opacity="0.2" d="M306.525 253.656H153.03V31.6222L306.525 253.656Z" fill="#F2994A"/>
<path d="M248.699 9.71886C247.388 9.71886 246.242 8.82651 245.914 7.52854C244.931 3.31015 241.082 0.227478 236.577 0.227478H223.062C218.557 0.227478 214.707 3.31015 213.725 7.52854C213.397 8.82651 212.25 9.71886 210.94 9.71886H201.029C199.473 9.71886 198.162 11.0168 198.162 12.5582V33.6501C198.162 35.1915 199.473 36.4894 201.029 36.4894H258.61C260.166 36.4894 261.477 35.1915 261.477 33.6501V12.5582C261.477 11.0168 260.166 9.71886 258.61 9.71886H248.699Z" fill="#F2994A"/>
<path d="M240.426 26.5114C226.093 26.5114 213.315 19.9405 205.042 9.71899H201.029C199.473 9.71899 198.162 11.017 198.162 12.5583V33.6503C198.162 35.1916 199.473 36.4896 201.029 36.4896H258.61C260.166 36.4896 261.477 35.1916 261.477 33.6503V21.4007C255.17 24.6456 248.044 26.5114 240.426 26.5114Z" fill="#F2994A"/>
<path d="M206.189 100.658H169.495V64.396H206.189V100.658ZM172.034 98.2243H203.814V66.8297H172.034V98.2243Z" fill="#18355C"/>
<path d="M287.278 66.9101H215.937C215.2 66.9101 214.626 66.3423 214.626 65.6122C214.626 64.8821 215.2 64.3142 215.937 64.3142H287.278C288.016 64.3142 288.589 64.8821 288.589 65.6122C288.589 66.3423 288.016 66.9101 287.278 66.9101Z" fill="#D4E1F2"/>
<path d="M287.278 75.3469H215.937C215.2 75.3469 214.626 74.779 214.626 74.0489C214.626 73.3188 215.2 72.751 215.937 72.751H287.278C288.016 72.751 288.589 73.3188 288.589 74.0489C288.589 74.779 288.016 75.3469 287.278 75.3469Z" fill="#D4E1F2"/>
<path d="M287.278 83.7837H215.937C215.2 83.7837 214.626 83.2158 214.626 82.4857C214.626 81.7556 215.2 81.1877 215.937 81.1877H287.278C288.016 81.1877 288.589 81.7556 288.589 82.4857C288.589 83.2158 288.016 83.7837 287.278 83.7837Z" fill="#D4E1F2"/>
<path d="M287.278 92.2207H215.937C215.2 92.2207 214.626 91.6528 214.626 90.9227C214.626 90.1926 215.2 89.6248 215.937 89.6248H287.278C288.016 89.6248 288.589 90.1926 288.589 90.9227C288.589 91.6528 288.016 92.2207 287.278 92.2207Z" fill="#D4E1F2"/>
<path d="M269.423 100.657H216.02C215.282 100.657 214.709 100.089 214.709 99.3594C214.709 98.6293 215.282 98.0614 216.02 98.0614H269.423C270.16 98.0614 270.734 98.6293 270.734 99.3594C270.652 100.089 270.078 100.657 269.423 100.657Z" fill="#D4E1F2"/>
<path d="M175.064 79.1599L185.139 92.8697L211.922 64.2333L185.139 83.1349L180.06 74.6981L175.064 79.1599Z" fill="#2F80ED"/>
<path d="M206.189 162.393H169.495V126.05H206.189V162.393ZM172.034 159.959H203.814V128.484H172.034V159.959Z" fill="#18355C"/>
<path d="M287.278 128.645H215.937C215.2 128.645 214.626 128.077 214.626 127.347C214.626 126.617 215.2 126.049 215.937 126.049H287.278C288.016 126.049 288.589 126.617 288.589 127.347C288.589 128.077 288.016 128.645 287.278 128.645Z" fill="#D4E1F2"/>
<path d="M287.278 137.082H215.937C215.2 137.082 214.626 136.514 214.626 135.784C214.626 135.053 215.2 134.486 215.937 134.486H287.278C288.016 134.486 288.589 135.053 288.589 135.784C288.589 136.514 288.016 137.082 287.278 137.082Z" fill="#D4E1F2"/>
<path d="M287.278 145.518H215.937C215.2 145.518 214.626 144.95 214.626 144.22C214.626 143.49 215.2 142.922 215.937 142.922H287.278C288.016 142.922 288.589 143.49 288.589 144.22C288.589 144.95 288.016 145.518 287.278 145.518Z" fill="#D4E1F2"/>
<path d="M287.278 153.955H215.937C215.2 153.955 214.626 153.387 214.626 152.657C214.626 151.927 215.2 151.359 215.937 151.359H287.278C288.016 151.359 288.589 151.927 288.589 152.657C288.589 153.387 288.016 153.955 287.278 153.955Z" fill="#D4E1F2"/>
<path d="M269.423 162.392H216.02C215.282 162.392 214.709 161.824 214.709 161.094C214.709 160.364 215.282 159.796 216.02 159.796H269.423C270.16 159.796 270.734 160.364 270.734 161.094C270.652 161.824 270.078 162.392 269.423 162.392Z" fill="#D4E1F2"/>
<path d="M175.064 140.895L185.139 154.604L211.922 125.968L185.139 144.87L180.06 136.433L175.064 140.895Z" fill="#2F80ED"/>
<path d="M206.189 224.128H169.495V187.785H206.189V224.128ZM172.034 221.694H203.814V190.219H172.034V221.694Z" fill="#18355C"/>
<path d="M287.278 190.38H215.937C215.2 190.38 214.626 189.812 214.626 189.082C214.626 188.352 215.2 187.784 215.937 187.784H287.278C288.016 187.784 288.589 188.352 288.589 189.082C288.589 189.812 288.016 190.38 287.278 190.38Z" fill="#D4E1F2"/>
<path d="M287.278 198.817H215.937C215.2 198.817 214.626 198.249 214.626 197.519C214.626 196.789 215.2 196.221 215.937 196.221H287.278C288.016 196.221 288.589 196.789 288.589 197.519C288.589 198.249 288.016 198.817 287.278 198.817Z" fill="#D4E1F2"/>
<path d="M287.278 207.254H215.937C215.2 207.254 214.626 206.686 214.626 205.956C214.626 205.225 215.2 204.658 215.937 204.658H287.278C288.016 204.658 288.589 205.225 288.589 205.956C288.589 206.686 288.016 207.254 287.278 207.254Z" fill="#D4E1F2"/>
<path d="M287.278 215.691H215.937C215.2 215.691 214.626 215.123 214.626 214.393C214.626 213.663 215.2 213.095 215.937 213.095H287.278C288.016 213.095 288.589 213.663 288.589 214.393C288.589 215.123 288.016 215.691 287.278 215.691Z" fill="#D4E1F2"/>
<path d="M269.423 224.128H216.02C215.282 224.128 214.709 223.56 214.709 222.83C214.709 222.099 215.282 221.532 216.02 221.532H269.423C270.16 221.532 270.734 222.099 270.734 222.83C270.652 223.56 270.078 224.128 269.423 224.128Z" fill="#D4E1F2"/>
<path d="M175.064 202.629L185.139 216.339L211.922 187.703L185.139 206.604L180.06 198.167L175.064 202.629Z" fill="#2F80ED"/>
<path d="M87.0126 292.919C121.302 292.919 149.098 290.559 149.098 287.647C149.098 284.734 121.302 282.374 87.0126 282.374C52.7235 282.374 24.9268 284.734 24.9268 287.647C24.9268 290.559 52.7235 292.919 87.0126 292.919Z" fill="#E5DAEA"/>
<path d="M7.2355 162.068L26.8933 152.334L21.0779 140.814L1.42007 150.549C0.764806 150.873 0.273362 151.441 0.0276399 152.09C-0.218083 152.739 -0.136176 153.469 0.191454 154.199L3.54966 160.851C3.87729 161.5 4.45064 161.987 5.1059 162.231C5.84307 162.393 6.58024 162.393 7.2355 162.068Z" fill="#2F80ED"/>
<path d="M17.2283 142.679L21.4875 151.035L3.22217 160.04L3.5498 160.77C3.87743 161.419 4.45078 161.906 5.10604 162.149C5.7613 162.392 6.49847 162.311 7.23563 161.987L26.8934 152.252L21.078 140.732L17.2283 142.679Z" fill="#286ECD"/>
<path d="M23.0438 154.199L18.8665 145.843L0.601116 154.848L0.273486 154.118C-0.0541438 153.469 -0.136052 152.657 0.109671 152.008C0.355393 151.36 0.846839 150.792 1.5021 150.467L21.1599 140.732L26.8934 152.333L23.0438 154.199Z" fill="#2F80ED"/>
<path d="M161.057 88.4896L18.1287 158.823C17.4734 159.148 16.7362 159.148 16.081 158.985C15.4257 158.742 14.7704 158.336 14.4428 157.606L9.28265 147.385C8.95502 146.736 8.95502 146.006 9.11883 145.357C9.36456 144.708 9.77409 144.14 10.5113 143.815L153.44 73.4008L161.057 88.4896Z" fill="#F7AA54"/>
<path d="M153.441 73.4009L173.509 72.9142L161.059 88.4898L153.441 73.4009Z" fill="#FFBB99"/>
<path d="M159.011 84.3525L173.508 72.9142L161.058 88.4898L159.011 84.3525Z" fill="#F4A27D"/>
<path d="M153.441 73.4009L173.509 72.9142L155.489 77.5382L153.441 73.4009Z" fill="#FFD1BD"/>
<path d="M168.103 73.0764L170.15 77.1326L173.508 72.9142L168.103 73.0764Z" fill="#2F80ED"/>
<path d="M13.6235 155.984L14.4426 157.688C14.7702 158.337 15.3436 158.823 16.0808 159.067C16.736 159.229 17.4732 159.229 18.1284 158.904L161.057 88.4897L159.009 84.4336L13.6235 155.984Z" fill="#D9873E"/>
<path d="M10.1842 149.089L9.36517 147.385C9.03754 146.736 9.03754 145.925 9.20135 145.276C9.44707 144.627 9.85661 144.059 10.5938 143.734L153.522 73.3197L155.57 77.3758L10.1842 149.089Z" fill="#D9873E"/>
<path d="M18.3231 139.95L14.146 142.016L16.1949 146.08L20.372 144.015L18.3231 139.95Z" fill="#286ECD"/>
<path d="M23.8817 150.886L19.7046 152.951L21.7535 157.016L25.9306 154.95L23.8817 150.886Z" fill="#286ECD"/>
<path d="M20.3905 144.002L16.2134 146.068L19.6892 152.963L23.8664 150.897L20.3905 144.002Z" fill="#286ECD"/>
<path d="M80.3783 178.293L70.6313 191.11C70.6313 191.11 79.4774 197.438 88.5691 193.625C97.7427 189.812 116.09 190.543 116.5 184.215C116.991 177.887 98.2342 174.237 98.2342 174.237L80.3783 178.293Z" fill="#47236D"/>
<path d="M104.214 280.589C104.214 280.589 115.6 280.914 115.845 284.159C116.091 287.403 110.357 289.918 103.068 289.756C96.5151 289.594 90.9454 289.35 91.0273 287.403C91.1911 285.456 92.0921 280.589 92.0921 280.589H104.214Z" fill="#18355C"/>
<path d="M104.215 280.589H92.1743C92.1743 280.589 91.2733 285.456 91.1095 287.403C90.9457 289.35 96.5154 289.594 103.15 289.756C108.801 289.918 113.47 288.377 115.19 286.187C112.405 282.293 104.215 280.589 104.215 280.589Z" fill="#18355C"/>
<path d="M68.2566 274.261C68.2566 274.261 75.1368 285.537 72.6796 289.999C70.2224 294.461 59.902 283.671 57.6905 278.885C54.8238 272.801 54.9057 272.233 62.2773 265.094C65.0622 262.417 65.5536 263.472 65.5536 263.472C65.5536 263.472 67.028 266.96 67.847 267.285C68.6661 267.609 68.2566 274.261 68.2566 274.261Z" fill="#18355C"/>
<path d="M72.5974 289.999C72.7613 289.674 72.9251 289.35 73.007 288.944C72.0241 283.347 65.7991 275.235 64.4886 272.72C63.0962 269.962 65.5534 267.934 65.5534 267.934C65.5534 267.934 66.1267 267.285 66.9458 266.392C66.2087 265.257 65.3896 263.391 65.3896 263.391C65.3896 263.391 64.8981 262.417 62.1133 265.013C54.7416 272.152 54.6597 272.639 57.5265 278.804C59.9018 283.59 70.1402 294.38 72.5974 289.999Z" fill="#18355C"/>
<path d="M56.298 274.261C56.1342 274.424 56.0522 274.667 56.0522 274.829C56.298 275.884 56.8713 277.182 57.6085 278.804C59.5743 283.023 67.765 291.865 71.3689 290.892C71.3689 289.35 70.7956 287.241 69.4032 285.051C66.2088 280.264 58.2637 271.503 56.298 274.261Z" fill="#2F80ED"/>
<path d="M75.0557 183.241C75.0557 183.241 75.3014 183.809 75.629 184.945C79.2329 195.329 98.2355 251.952 92.0924 280.67C92.0924 280.67 100.119 281.562 104.133 280.67C104.133 280.67 109.129 236.134 100.857 211.067C95.6145 195.085 90.7 177.076 90.7 177.076" fill="#2F80ED"/>
<path d="M113.471 178.292C113.471 178.292 118.467 232.645 68.176 274.261C68.176 274.261 67.7665 268.096 62.1968 265.094C62.1968 265.094 95.9427 216.015 92.2568 204.09C88.571 192.083 79.3974 187.703 80.2983 178.374C81.1993 168.963 97.6627 168.152 97.6627 168.152L113.471 178.292Z" fill="#2F80ED"/>
<path d="M112.979 193.625C114.044 184.215 113.471 178.293 113.471 178.293L97.6627 168.071C97.6627 168.071 81.2812 168.882 80.2983 178.293C79.3973 187.703 88.4891 192.084 92.2568 204.009C95.9427 216.015 62.1968 265.013 62.1968 265.013C63.6711 265.824 64.7359 266.798 65.555 267.852C96.5979 239.622 105.69 211.553 112.979 193.625Z" fill="#2F80ED"/>
<path d="M129.607 103.822C129.607 103.822 126.658 115.828 121.088 118.83C115.519 121.912 93.7311 124.508 93.7311 124.508L85.7042 123.535L66.4559 141.382C66.4559 141.382 61.1319 148.358 54.8251 152.496C48.5182 156.552 36.1502 148.602 36.1502 148.602L31.4814 153.388C30.4166 152.252 43.1123 164.015 50.1563 164.258C59.1662 164.583 70.7151 156.308 70.7151 156.308L71.2066 155.903C71.2885 156.227 71.2885 156.552 71.3704 156.876C73.0904 168.639 70.7151 191.029 70.7151 191.029C82.2641 177.725 116.583 184.134 116.583 184.134C115.6 167.585 105.116 136.19 105.116 136.19C105.116 136.19 120.843 131.566 127.313 127.266C133.784 122.967 137.06 106.012 137.06 106.012L129.607 103.822Z" fill="#AFD8F9"/>
<path d="M128.622 119.641C125.018 124.508 103.067 135.054 91.5178 130.268C88.0777 128.889 85.9481 126.779 84.5556 124.589L81.6889 127.266C80.2146 130.673 78.9859 135.541 75.1363 140.246C55.7242 163.609 43.52 156.308 34.1826 149.737L31.5615 153.469C32.5444 154.199 43.7657 164.096 50.2364 164.339C59.2462 164.664 70.7952 156.389 70.7952 156.389L71.2866 155.984C71.3685 156.308 71.3685 156.633 71.4505 156.957C73.1705 168.72 70.7952 191.11 70.7952 191.11C78.2488 182.511 95.2855 182.105 106.343 182.916C105.606 163.853 98.398 137.082 98.398 137.082L105.114 136.271C105.114 136.271 120.841 131.647 127.311 127.347C133.782 123.048 137.058 106.093 137.058 106.093L133.946 105.12C132.717 109.744 130.833 116.639 128.622 119.641Z" fill="#2F80ED"/>
<path d="M31.4007 153.472C31.315 153.386 31.315 153.386 31.4007 153.472V153.472Z" fill="#9032C6"/>
<path d="M92.667 112.258C92.667 112.258 91.4384 120.614 93.7318 124.508C93.7318 124.508 90.6193 129.7 85.7048 127.266C80.7085 124.832 80.3809 115.747 80.3809 115.747L87.5887 107.959L92.667 112.258Z" fill="#F4A27D"/>
<path d="M81.9347 86.3802C81.9347 86.3802 92.7464 86.7047 97.0875 99.6033C101.429 112.502 93.4836 121.182 83.8185 116.558C74.2354 111.934 69.0752 94.4925 69.0752 94.4925L81.9347 86.3802Z" fill="#FFBB99"/>
<path d="M98.2351 107.716C95.4502 108.851 91.3548 109.257 87.0137 105.039C81.9354 100.171 81.9354 91.8157 82.6726 86.3804C82.1812 86.2993 81.9354 86.2993 81.9354 86.2993L71.9427 92.6269L70.8779 96.1152L71.8608 101.632C74.318 106.986 78.3315 113.8 83.8193 116.477C91.191 120.046 97.5798 115.747 98.2351 107.716Z" fill="#F4A27D"/>
<path d="M84.1464 85.7314C84.1464 85.7314 85.2931 81.9186 82.6721 78.2681C80.0511 74.6176 70.3041 73.2385 69.0755 80.1339C67.8468 87.0294 67.7649 92.059 67.7649 92.059C67.7649 92.059 57.7722 92.708 56.216 105.444C55.0693 114.692 72.2699 136.839 64.0791 140.246C55.8883 143.653 52.3663 139.11 53.2673 135.379C53.2673 135.379 48.0252 142.274 53.1035 148.764C58.1818 155.254 80.0511 153.063 86.6037 138.056C93.2382 123.129 85.457 109.663 85.457 109.663C85.457 109.663 82.1807 112.177 80.2149 108.851C78.2491 105.525 82.9178 104.795 82.9178 104.795C82.9178 104.795 79.0682 96.034 75.9557 96.1963C76.0376 96.1151 84.0645 90.4365 84.1464 85.7314Z" fill="#1B3C68"/>
<path d="M129.278 105.039C129.278 105.039 125.101 101.226 125.183 98.4677C125.265 95.7095 127.394 97.8187 128.705 98.711C130.015 99.6034 133.046 99.1978 135.094 96.7641C137.223 94.3304 140.909 91.1666 142.056 94.8983C143.202 98.6299 139.762 105.525 136.65 107.391C136.65 107.391 133.374 104.552 129.278 105.039Z" fill="#FFBB99"/>
<path d="M32.5456 154.524C32.5456 154.524 32.8733 151.036 37.2963 149.332C37.2963 149.332 39.8354 143.086 39.0982 140.814C38.3611 138.543 36.8867 140.976 36.0676 142.599C35.3305 144.221 33.6104 145.114 30.2522 142.599C26.894 140.084 22.2253 141.544 22.7987 146.006C23.1263 149.089 29.0236 154.281 32.5456 154.524Z" fill="#FFBB99"/>
<path d="M142.138 95.2229C140.663 102.524 133.701 105.607 133.701 105.607L133.783 105.688C135.585 106.418 136.732 107.31 136.732 107.31C139.68 105.525 142.957 99.0357 142.138 95.2229Z" fill="#F4A27D"/>
<path d="M32.5466 154.523C32.5466 154.523 32.7924 152.333 35.0858 150.629C29.1884 151.522 25.5026 145.924 23.8644 142.679C23.1273 143.491 22.7177 144.626 22.8816 146.168C23.1273 149.088 29.0246 154.28 32.5466 154.523Z" fill="#F4A27D"/>
<path d="M86.6855 137.975C91.6 126.78 88.5694 116.477 86.6855 112.015C82.4264 114.449 67.8468 121.263 62.1952 107.959C60.639 104.227 60.1475 100.009 60.3933 95.7095C58.5094 97.6564 56.7893 100.739 56.216 105.363C55.0693 114.611 72.2698 136.758 64.0791 140.165C55.8883 143.572 52.3663 139.029 53.2673 135.297C53.2673 135.297 48.0252 142.193 53.1035 148.683C58.2637 155.091 80.1329 152.901 86.6855 137.975Z" fill="#18355C"/>
</g>
<defs>
<clipPath id="clip0_68_1995">
<rect width="320" height="293" fill="white"/>
</clipPath>
</defs>
</svg>
