<svg width="320" height="230" viewBox="0 0 320 230" fill="none" xmlns="http://www.w3.org/2000/svg">
<g clip-path="url(#clip0_188_485)">
<g opacity="0.6">
<path opacity="0.3" d="M296.585 230.312C315.385 230.312 326.763 211.036 315.711 197.303C315.481 197.014 315.237 196.732 314.992 196.45C308.237 188.778 297.985 186.033 288.903 181.752C286.392 180.572 283.874 179.185 282.118 176.967C279.681 173.873 279.096 169.54 279.6 165.556C281.711 148.892 299.852 138.623 302.778 122.093C304.992 109.591 297.348 96.8968 287 90.2788C276.652 83.6607 264.141 81.9988 252.029 81.4794C239.918 80.9601 227.637 81.4201 215.852 78.4597C212.74 77.6807 209.526 76.5604 207.407 74.0378C205.015 71.1888 204.511 67.0636 204.889 63.2798C205.918 53.0856 229.103 18.0439 217.489 6.48459C212.918 1.9291 206.711 -0.534123 200.474 0.0965225C194.229 0.727168 188.407 3.59104 182.941 6.81846C171.392 13.6294 131.118 58.7985 116.622 65.6243C102.378 72.3314 86.022 70.3578 70.4146 70.0388C54.8072 69.7197 37.459 72.0494 27.2516 84.4472C23.6368 88.8394 21.1405 94.7527 22.3553 100.414C23.1109 103.945 25.222 107.002 27.622 109.599C33.0961 115.542 40.2368 119.645 45.422 125.869C50.6072 132.094 53.3331 141.992 48.4664 148.491C46.5775 151.014 43.8294 152.631 41.1331 154.152C26.0738 162.662 9.17754 171.387 2.60717 187.947C-0.748383 196.405 -0.689124 205.731 1.80717 214.508C4.45162 223.805 13.7331 230.312 24.3701 230.312H296.585Z" fill="#2F80ED"/>
</g>
<path d="M48.1999 55.0072C48.1999 55.0072 109.155 76.0263 136.259 26.8953C163.363 -22.2357 -2.95564 36.7556 48.1999 55.0072Z" fill="#D4E4FC"/>
<path opacity="0.41" d="M123.096 7.79785C127.415 10.6691 128.274 15.8479 123.755 24.0314C104.578 58.7911 68.4665 58.4349 48.9702 55.252C56.0813 57.4704 110.941 72.784 136.259 26.8953C143.748 13.3253 136.467 8.00559 123.096 7.79785Z" fill="#D4E4FC"/>
<path d="M171.889 175.928H165.244V230.364H171.889V175.928Z" fill="white"/>
<path d="M171.889 175.928H169.281V230.357H171.889V175.928Z" fill="#E8F2FC"/>
<path d="M187.652 225.897H151.333C150.103 225.897 149.111 226.892 149.111 228.123C149.111 229.355 150.103 230.349 151.333 230.349H187.652C188.881 230.349 189.874 229.347 189.874 228.123C189.881 226.899 188.881 225.897 187.652 225.897Z" fill="white"/>
<path d="M187.652 225.897H151.333C150.526 225.897 149.822 226.335 149.43 226.981H180.889C182.119 226.981 183.111 227.975 183.111 229.206C183.111 229.629 182.985 230.015 182.785 230.349H187.652C188.882 230.349 189.874 229.347 189.874 228.123C189.882 226.899 188.882 225.897 187.652 225.897Z" fill="#E8F2FC"/>
<path d="M171.889 175.928H165.244V180.773H171.889V175.928Z" fill="#E8F2FC"/>
<path d="M206.311 100.036C205.378 99.6201 204.341 99.3901 203.237 99.3901H165.83C162.178 99.3901 159.037 101.987 158.348 105.585L146.622 166.966C146.437 167.952 146.444 168.939 146.622 169.852C146.63 169.874 146.63 169.896 146.637 169.911H136.237C134.526 169.911 133.141 171.299 133.141 173.012C133.141 174.726 134.526 176.114 136.237 176.114H169.852V176.017H191.518C195.17 176.017 198.311 173.413 199 169.822L210.718 108.442C211.407 104.836 209.437 101.416 206.311 100.036Z" fill="#FF9933"/>
<path d="M210.718 108.456L199.007 169.837C198.326 173.428 195.185 176.032 191.526 176.032H169.859V176.128H136.252C134.54 176.128 133.155 174.741 133.155 173.027C133.155 171.313 134.54 169.926 136.252 169.926H146.652C146.644 169.904 146.637 169.889 146.637 169.859C146.726 169.866 146.829 169.866 146.926 169.866H184.326C189.348 169.866 193.681 166.29 194.622 161.349L206.326 100.05C209.437 101.423 211.4 104.836 210.718 108.456Z" fill="#E8F2FC"/>
<path d="M194.681 160.971L194.607 161.342C193.666 166.283 189.34 169.859 184.311 169.859H146.911C146.822 169.859 146.718 169.859 146.622 169.852C146.622 169.874 146.629 169.896 146.637 169.918H136.237C134.689 169.918 133.4 171.061 133.177 172.552V164.161C133.177 164.146 133.17 164.124 133.17 164.094C132.926 162.432 134.318 160.971 136 160.971H194.681Z" fill="white"/>
<path d="M206.311 100.036L194.607 161.334C193.666 166.276 189.333 169.859 184.318 169.859H146.911C146.815 169.859 146.718 169.859 146.622 169.852C146.444 168.932 146.437 167.952 146.622 166.966L158.348 105.585C159.037 101.987 162.178 99.3901 165.829 99.3901H203.237C204.34 99.3901 205.378 99.6201 206.311 100.036Z" fill="white"/>
<path d="M117.667 85.3228H53.9852C52.5037 85.3228 51.3704 86.636 51.5778 88.105L57.037 125.602C57.2074 126.797 58.237 127.687 59.4444 127.687H123.126C124.607 127.687 125.741 126.374 125.533 124.905L120.081 87.4076C119.896 86.2057 118.874 85.3228 117.667 85.3228Z" fill="#2F80ED"/>
<path d="M108.756 85.3228H53.9852C52.5037 85.3228 51.3704 86.636 51.5778 88.105L53.9852 104.68C59.8592 107.254 66.5111 108.716 73.5778 108.716C91.8444 108.716 102.607 98.9966 108.756 85.3228Z" fill="#2F80ED"/>
<path d="M88.7777 113.946H80.6518H76.7259C75.6814 113.946 74.8814 114.866 75.037 115.905L78.6888 141.02C78.6888 141.094 78.6962 141.183 78.7036 141.257L78.8666 142.244C78.9851 143.082 79.711 143.705 80.5555 143.705H84.474H92.4592L88.7777 113.946Z" fill="#2775DE"/>
<path d="M106.385 141.947C106.371 141.005 105.6 140.241 104.659 140.241H95.5409C94.2002 140.241 93.0594 139.246 92.8742 137.911L90.2002 118.346H91.7853C92.8224 118.346 93.6224 117.419 93.4742 116.387L93.3113 115.393C93.1927 114.555 92.4668 113.932 91.6224 113.932H88.4594C87.015 113.932 85.9039 115.208 86.0965 116.64L89.4298 141.524C89.5927 142.763 90.652 143.691 91.9039 143.691H104.659C105.622 143.706 106.4 142.912 106.385 141.947Z" fill="#3E90FF"/>
<path d="M99.8298 122.271C99.8298 122.902 99.3187 123.414 98.6891 123.414C98.0594 123.414 97.5483 122.902 97.5483 122.271C97.5483 121.64 98.0594 121.128 98.6891 121.128C99.3187 121.128 99.8298 121.64 99.8298 122.271Z" fill="#3E90FF"/>
<path d="M105.689 122.271C105.689 122.902 105.178 123.414 104.548 123.414C103.919 123.414 103.408 122.902 103.408 122.271C103.408 121.64 103.919 121.128 104.548 121.128C105.178 121.128 105.689 121.64 105.689 122.271Z" fill="#3E90FF"/>
<path d="M109.689 123.414C110.319 123.414 110.83 122.902 110.83 122.271C110.83 121.64 110.319 121.128 109.689 121.128C109.059 121.128 108.548 121.64 108.548 122.271C108.548 122.902 109.059 123.414 109.689 123.414Z" fill="#3E90FF"/>
<path d="M116.43 102.714L119.756 125.602C119.926 126.797 120.956 127.687 122.163 127.687H123.119C124.6 127.687 125.733 126.374 125.526 124.905L120.074 87.4076C119.904 86.2131 118.874 85.3228 117.667 85.3228H116.711C115.23 85.3228 114.096 86.636 114.304 88.105L116.43 102.714Z" fill="#3E90FF"/>
<path d="M92.3406 89.4185H70.1036C69.5628 89.4185 69.148 89.9081 69.2295 90.4423L69.3776 91.3623C69.4443 91.7927 69.8147 92.1043 70.2517 92.1043H92.4887C93.0295 92.1043 93.4443 91.6146 93.3628 91.0804L93.2147 90.1604C93.1406 89.7301 92.7702 89.4185 92.3406 89.4185Z" fill="#3E90FF"/>
<path d="M182.615 100.844C181.911 95.4128 173.97 97.9576 176.948 92.8976C179.704 88.216 176.496 86.146 172.704 85.4189C167.867 84.4915 170.615 82.5847 168.259 78.0663C165.274 72.3238 160.659 74.0302 160.659 74.0302C160.659 74.0302 154.881 70.8844 148.993 75.8628C142.785 81.1083 144.141 85.7454 147.459 92.1112C149.141 95.3312 147.074 98.1951 145.607 104.116C143.844 111.216 152.6 125.506 171.326 115.853C178.578 112.114 182.993 103.722 182.615 100.844Z" fill="#13448C"/>
<path d="M156.748 102.328C156.748 102.328 153.889 102.632 150.978 105.548C149.022 107.507 139.444 126.597 139.444 126.597L130.607 99.4863L124.141 99.9834C124.141 99.9834 131.43 143.58 137.096 143.661C142.459 143.735 159.481 115.512 159.481 115.512L156.748 102.328Z" fill="#F2994A"/>
<path d="M175.022 113.754L180.689 134.995L147.193 137.741L147.348 143.802C147.348 143.802 185.971 143.973 193.245 143.899C198.089 143.847 188.971 105.422 183.148 101.03C178.548 97.5499 165.822 98.4774 165.822 98.4774L156.756 102.328C156.756 102.328 146.237 112.76 152.519 122.575C157.467 130.306 151.163 145.331 151.163 145.331L172.578 146.607L191.704 146.785L175.022 113.754Z" fill="#F2994A"/>
<path d="M153.645 137.214L154.845 136.991C155.993 131.968 156.2 125.105 153.578 121.804C148.393 115.267 153.734 105.778 156.726 102.343H156.719C156.237 102.825 146.378 112.99 152.496 122.575C155.437 127.153 154.719 133.111 153.645 137.214Z" fill="#E28B3D"/>
<path d="M147.282 139.143C143.741 139.276 139.948 140.545 138.178 142.63C137.785 143.09 138.119 143.809 138.726 143.809H147.341L147.282 139.143Z" fill="#FFB19E"/>
<path d="M165.822 91.3396V98.5067L159.415 105.859L159.371 105.778L157.622 102.038V98.017C154.422 97.5645 151.6 95.1383 150.845 91.6661L149.941 86.7099C149.941 86.7099 154.719 86.2054 158.519 82.3325C158.519 82.3325 159.659 84.4322 161.296 86.057C162.489 87.2441 164.134 87.5335 164.763 88.179C165.608 89.0396 165.911 90.1599 165.822 91.3396Z" fill="#FFB19E"/>
<path d="M164.067 85.1372C164.067 85.1372 163.823 82.1175 162.689 79.543C161.378 76.5753 159.534 73.0956 155.704 73.0882C155.704 73.0882 165.008 71.6414 166.563 84.6104L164.067 85.1372Z" fill="#F2994A"/>
<path d="M169.63 87.2664C169.363 84.7735 167.274 82.9483 164.971 83.2005C162.667 83.4528 161.015 85.6712 161.282 88.1715C161.548 90.6644 163.637 92.4896 165.941 92.2373C168.245 91.9851 169.904 89.7593 169.63 87.2664Z" fill="#F2994A"/>
<path d="M166.734 91.7921C164.511 92.0295 162.504 90.2785 162.245 87.8747C162.008 85.6489 163.356 83.6531 165.319 83.1782C165.208 83.1782 165.089 83.1856 164.971 83.1931C162.667 83.4453 161.015 85.6637 161.282 88.164C161.548 90.6569 163.637 92.4821 165.941 92.2298C166.652 92.1556 167.296 91.8885 167.845 91.4879C167.504 91.6437 167.126 91.7476 166.734 91.7921Z" fill="#E39147"/>
<path d="M168.022 87.3778C167.889 86.1684 166.882 85.2855 165.763 85.4043C164.645 85.523 163.845 86.6062 163.978 87.8155C164.111 89.0249 165.119 89.9078 166.237 89.7891C167.348 89.6704 168.148 88.5872 168.022 87.3778Z" fill="#E39147"/>
<path d="M163.682 94.9751C163.415 95.3238 161.897 97.238 160.682 98.2619C160.193 98.6699 159.934 99.2783 159.934 99.909L159.371 105.778L157.623 102.038V98.0319L157.667 97.9874C157.667 97.9874 161.704 97.379 163.682 94.9751Z" fill="#F48F7A"/>
<path d="M160.956 94.6713L160.889 94.2632C163.23 93.8626 164.934 90.7094 164.956 90.6797L165.319 90.8726C165.245 91.0136 163.489 94.2336 160.956 94.6713Z" fill="#F2994A"/>
<path d="M161.393 94.4339C161.341 94.0481 160.756 93.8404 160.097 93.9591C159.437 94.0852 158.949 94.4933 159 94.8791C159.052 95.2649 159.637 95.4727 160.297 95.354C160.956 95.2352 161.445 94.8198 161.393 94.4339Z" fill="#F2994A"/>
<path d="M130.082 99.6571C130.082 99.6571 130.993 92.1561 130.17 91.8816C129.348 91.6071 128.526 94.8123 128.526 94.8123C128.526 94.8123 125.052 88.0458 122.682 88.7729C120.311 89.5 124.674 99.9168 124.674 99.9168L130.082 99.6571Z" fill="#FFB19E"/>
<path d="M153.63 137.169L180.008 134.958C180.911 134.884 181.548 134.038 181.378 133.148C180.4 128.206 177.585 114.043 177.415 114.466C177.208 114.978 180.067 131.137 176.704 132.769C174.4 133.897 153.63 137.169 153.63 137.169Z" fill="#E28B3D"/>
<path d="M171.57 215.332C171.378 215.377 171.2 215.488 171.067 215.674C169.385 218.011 167.896 218.567 164.956 218.96C164.778 218.983 164.6 219.049 164.4 219.146C164.63 218.805 165.608 217.195 164.933 215.748C164.17 214.116 163.252 212.928 163.252 212.928L167.556 210.361C167.556 210.361 170.2 213.411 171.57 215.332Z" fill="#FFB19E"/>
<path d="M174.756 220.808C173.993 221.535 161.719 228.257 158.8 229.948C158.445 230.156 157.719 230.535 157.593 230.141C157.385 229.533 162.697 219.272 164.956 218.96C167.897 218.56 169.393 218.011 171.067 215.666C171.415 215.177 172.148 215.177 172.482 215.681C173.659 217.477 175.371 220.222 174.756 220.808Z" fill="#13448C"/>
<path d="M151.319 145.301C151.319 145.301 121.526 159.138 120.733 168.731C120.03 177.263 163.941 216.297 163.941 216.297L170.882 213.433L146.852 174.637C146.852 174.637 172.311 162.069 178.533 146.933L151.319 145.301Z" fill="#13448C"/>
<path d="M132.333 166.208C130.311 170.104 128.83 175.542 127.792 180.476C131.163 184.49 135.422 189.001 139.815 193.445C136.563 180.587 133.681 167.7 134.681 165.852C136.585 162.328 149.207 152.972 158.126 148.313C158.126 148.313 137.022 157.172 132.333 166.208Z" fill="#09326D"/>
<path d="M154.023 223.345C153.83 223.293 153.623 223.301 153.415 223.397C150.808 224.614 149.238 224.369 146.475 223.278C146.312 223.211 146.119 223.174 145.904 223.167C146.267 222.981 147.912 222.054 148.023 220.459C148.156 218.663 147.934 217.172 147.934 217.172L152.941 217.039C152.941 217.039 153.756 220.993 154.023 223.345Z" fill="#FFB19E"/>
<path d="M154.126 230.045C153.104 230.312 138.615 230.149 135.245 230.193C134.83 230.201 134.519 229.83 134.593 229.422C134.711 228.791 144.349 222.432 146.474 223.271C149.237 224.361 150.808 224.614 153.415 223.39C153.963 223.13 154.593 223.493 154.637 224.094C154.793 226.231 154.949 229.837 154.126 230.045Z" fill="#13448C"/>
<path d="M191.586 146.725C191.586 146.725 194.082 163.626 178.956 167.9C167.03 171.276 154.252 172.99 154.252 172.99L155.171 220.956H147.215C147.215 220.956 132.615 169.666 134.682 165.845C137.03 161.504 155.6 148.335 163.541 145.961L191.586 146.725Z" fill="#1D54B5"/>
<path opacity="0.13" d="M154.252 172.997C154.252 172.997 167.037 171.276 178.956 167.907C194.082 163.626 191.585 146.732 191.585 146.732L182.222 146.473C179.408 152.534 170.259 167.536 148.074 169.154L153.096 220.963H155.163L154.252 172.997Z" fill="#0E367C"/>
<path d="M55.822 230.349L52.4961 230.326L66.3405 146.985L69.6887 146.962L55.822 230.349Z" fill="white"/>
<path d="M192.963 230.326L196.496 230.349L179.333 146.035L175.822 146.065L192.963 230.326Z" fill="white"/>
<path d="M68.7773 151.585L69.6885 146.962L66.3403 146.985L65.4292 151.585H68.7773Z" fill="#E4EDF7"/>
<path d="M180.459 151.585L179.333 146.035L175.822 146.065L176.94 151.585H180.459Z" fill="#E4EDF7"/>
<path d="M190.504 144.232H57.4962C56.6694 144.232 56 144.905 56 145.735C56 146.565 56.6694 147.237 57.4962 147.237H190.504C191.331 147.237 192 146.565 192 145.735C192 144.905 191.331 144.232 190.504 144.232Z" fill="white"/>
<path d="M140.207 69.8829L136.252 46.9348C136.096 45.8739 135.185 45.0874 134.118 45.0874L97.3108 45.488C95.9923 45.488 94.9849 46.6603 95.1775 47.9587L98.6515 68.0874L100.407 79.4835C100.503 80.0845 101.281 80.2626 101.622 79.7506L106.303 72.6874L138.074 72.3387C139.392 72.3535 140.4 71.1887 140.207 69.8829Z" fill="#2F80ED"/>
<path d="M127.126 52.21H105.792C105.422 52.21 105.148 52.5364 105.207 52.9L105.311 53.5232C105.355 53.8125 105.607 54.0277 105.896 54.0277H127.23C127.6 54.0277 127.874 53.7012 127.815 53.3377L127.711 52.7145C127.667 52.4177 127.415 52.21 127.126 52.21Z" fill="white"/>
<path d="M127.837 57.8784H106.503C106.133 57.8784 105.859 58.2049 105.918 58.5684L106.022 59.1916C106.066 59.481 106.318 59.6962 106.607 59.6962H127.94C128.311 59.6962 128.585 59.3697 128.526 59.0062L128.422 58.3829C128.377 58.0936 128.133 57.8784 127.837 57.8784Z" fill="white"/>
<path d="M122.755 64.0366L112.881 64.0515C112.511 64.0515 112.237 64.3779 112.296 64.7415L112.4 65.3647C112.444 65.654 112.696 65.8692 112.985 65.8692L122.859 65.8544C123.229 65.8544 123.504 65.5279 123.444 65.1644L123.341 64.5411C123.304 64.2444 123.052 64.0366 122.755 64.0366Z" fill="white"/>
<path d="M289.718 33.5207L294.614 11.9378C294.866 10.9362 294.311 10.2017 293.303 10.2017L258.533 10.58C257.296 10.58 255.911 11.6781 255.6 12.9023L251.303 31.8365L248.674 42.5575C248.533 43.1213 249.207 43.2846 249.718 42.8097L256.777 36.1694L286.792 35.843C288.022 35.8504 289.407 34.7449 289.718 33.5207Z" fill="#2F80ED"/>
<path d="M283.511 17.2056H264.422C264.096 17.2056 263.726 17.5023 263.644 17.8288L263.511 18.3852C263.452 18.6449 263.6 18.8378 263.859 18.8378H282.948C283.274 18.8378 283.644 18.541 283.718 18.2146L283.852 17.6581C283.918 17.3985 283.778 17.2056 283.511 17.2056Z" fill="white"/>
<path d="M282.126 22.2803H263.037C262.711 22.2803 262.341 22.577 262.259 22.9035L262.126 23.46C262.067 23.7196 262.215 23.9125 262.474 23.9125H281.563C281.889 23.9125 282.259 23.6158 282.341 23.2893L282.474 22.7329C282.533 22.4732 282.392 22.2803 282.126 22.2803Z" fill="white"/>
<path d="M275.378 27.793L266.541 27.8078C266.215 27.8078 265.845 28.1046 265.763 28.431L265.63 28.9875C265.57 29.2472 265.719 29.4401 265.978 29.4401L274.815 29.4252C275.141 29.4252 275.511 29.1285 275.593 28.802L275.726 28.2455C275.793 27.9859 275.645 27.793 275.378 27.793Z" fill="white"/>
<path d="M91.6441 69.7195C92.1181 70.1201 92.8367 69.7047 92.7255 69.0888L88.007 41.8376C87.8737 40.9398 87.1033 40.2646 86.1922 40.2646L54.9626 40.6134C53.8441 40.6134 52.9922 41.6076 53.1478 42.713L56.5033 62.1814C56.6367 63.0792 57.407 63.7543 58.3181 63.7543L82.37 63.4872C83.5181 63.4724 84.6292 63.873 85.5107 64.6076L91.6441 69.7195Z" fill="#F2994A"/>
<path d="M81.9182 48.4482H60.5923C60.2219 48.4482 59.9478 48.7747 60.0071 49.1382L60.1108 49.7615C60.1552 50.0508 60.4071 50.266 60.696 50.266H82.0293C82.3997 50.266 82.6738 49.9395 82.6145 49.576L82.5108 48.9528C82.4589 48.6634 82.2145 48.4482 81.9182 48.4482Z" fill="white"/>
<path d="M82.6366 54.1167H61.3032C60.9329 54.1167 60.6588 54.4432 60.718 54.8067L60.8217 55.4299C60.8662 55.7193 61.118 55.9344 61.4069 55.9344H82.7403C83.1106 55.9344 83.3847 55.608 83.3254 55.2444L83.2217 54.6212C83.1773 54.3319 82.9254 54.1167 82.6366 54.1167Z" fill="white"/>
<path d="M256.311 115.229L256.192 119.518L253.622 219.115H243.348L234.244 133.77C234.244 133.77 234.237 133.778 234.237 133.793L222.667 162.565L230.563 219.108L226.763 219.138L220.481 219.197C220.481 219.197 201.696 162.773 202.074 159.115C202.459 155.465 216.563 115.586 216.563 115.586L256.311 115.229Z" fill="#1D54B5"/>
<path d="M257.303 53.5823L238.007 50.9261L237.548 50.8594L228.318 50.8965L228.237 50.9187L217.214 53.6787V115.771H257.303V53.5823Z" fill="#F2994A"/>
<path d="M290.333 65.646C290.333 65.646 291.733 56.8689 292.755 56.8244C293.77 56.7798 293.666 60.6676 293.666 60.6676C293.666 60.6676 299.785 54.146 302.237 55.7486C304.681 57.3511 296.37 67.6937 296.37 67.6937L290.333 65.646Z" fill="#FFB19E"/>
<path d="M228.34 50.9481L229.385 119.518H214.948L213.926 100.747L194.77 100.435C192.777 100.502 191.303 98.6027 191.859 96.6885L201.4 63.4646C202.511 59.5768 205.6 56.5868 209.511 55.6075L228.237 50.9185L228.34 50.9481Z" fill="#2F80ED"/>
<path d="M296.985 67.976L278.415 106.186C277.237 108.322 274.192 108.374 272.933 106.289L258.4 82.1692L257.674 119.518H242.252L237.933 50.9411L237.992 50.9263L257.607 53.6269C261.303 54.1834 264.496 56.5427 266.133 59.9185L276.052 80.4108C276.296 80.9153 276.978 80.9969 277.341 80.5666L289.963 65.4682L296.985 67.976Z" fill="#2F80ED"/>
<path d="M213.837 100.932H232.652L232.837 91.2799L214.022 91.0054L213.837 100.932Z" fill="#2F80ED"/>
<path d="M232.77 98.2688C238.081 98.0759 243.755 96.1766 246.414 93.0456C247.007 92.3482 246.503 91.2798 245.592 91.2798H232.688L232.77 98.2688Z" fill="#FFB19E"/>
<path opacity="0.41" d="M225.437 101.326L225.452 101.022L213.94 100.933L214.948 119.518L218.385 104.123L225.437 101.326Z" fill="#13448C"/>
<path opacity="0.32" d="M256.192 119.518L253.622 219.115H252.903L246 119.518H256.192Z" fill="#0E367C"/>
<path opacity="0.41" d="M232.814 91.2132C232.814 91.2132 207.288 93.0681 207.451 92.5784L211.881 77.2871L211.948 77.5171L212.385 88.1861C212.444 89.6329 231.481 90.8349 232.814 91.2132Z" fill="#13448C"/>
<path opacity="0.41" d="M278.422 106.186L296.992 67.976L296.904 67.9463C294.933 67.9389 277.659 104.123 275.837 105.028C273.77 106.067 258.407 82.1618 258.407 82.1618L272.941 106.282C274.192 108.374 277.244 108.322 278.422 106.186Z" fill="#2067C6"/>
<path d="M221.651 219.101C219.437 223.649 208.903 225.941 208.903 225.941C208.903 225.941 208.14 227.284 209.348 228.976C210.548 230.675 221.629 229.636 223.022 229.325C224.414 229.013 225.37 227.885 225.37 227.885C225.37 227.885 226.303 228.902 226.822 229.154C227.34 229.406 230.17 228.835 230.17 228.835C230.837 227.025 230.17 220.125 229.977 219.019L221.651 219.101Z" fill="#13448C"/>
<path d="M252.659 219.101C254.874 223.649 265.407 225.941 265.407 225.941C265.407 225.941 266.17 227.284 264.962 228.976C263.762 230.675 252.681 229.636 251.288 229.325C249.896 229.013 248.94 227.885 248.94 227.885C248.94 227.885 248.007 228.902 247.488 229.154C246.97 229.406 244.14 228.835 244.14 228.835C243.474 227.025 244.14 220.125 244.333 219.019L252.659 219.101Z" fill="#13448C"/>
<path opacity="0.32" d="M222.666 162.573L230.563 219.115L226.763 219.145C224.422 206.97 216.229 166.26 216.533 163.708C216.889 160.658 233.718 134.661 234.237 133.8L222.666 162.573Z" fill="#0E367C"/>
<path fill-rule="evenodd" clip-rule="evenodd" d="M237.963 50.9857C236.563 52.106 233.185 54.4876 233.185 54.4876C233.185 54.4876 229.748 52.1283 228.326 50.9931L228.311 42.8096H237.963V50.9857Z" fill="#FFB19E"/>
<path fill-rule="evenodd" clip-rule="evenodd" d="M237.97 42.8096V46.2299C235.178 48.5522 231.118 48.5596 228.318 46.267V42.8096H237.97Z" fill="#FFB19E"/>
<path fill-rule="evenodd" clip-rule="evenodd" d="M222.422 37.5195H244.118L244.452 31.4728C249.244 29.4399 245.652 17.9844 245.652 17.9844C245.926 20.7518 238.459 20.8482 235.504 20.3882C232.556 19.9282 230.526 21.1302 230.526 21.1302C230.526 21.1302 221.119 19.0973 221.674 32.3037C221.756 34.2995 222.015 35.9837 222.422 37.5195Z" fill="#13448C"/>
<path fill-rule="evenodd" clip-rule="evenodd" d="M241.822 31.4577V36.911C241.822 39.2406 240.867 41.4739 239.171 43.069C238.896 43.3139 238.615 43.581 238.333 43.8481C235.408 46.6081 230.837 46.6081 227.911 43.8481L227.082 43.069C225.385 41.4813 224.422 39.2555 224.422 36.9258V32.7636C224.422 32.7636 226.933 31.0794 230.393 26.9468C230.385 26.9542 234.215 30.6268 241.822 31.4577Z" fill="#FFB19E"/>
<path fill-rule="evenodd" clip-rule="evenodd" d="M237.97 44.167V46.237C235.178 48.5593 231.118 48.5667 228.318 46.2741V44.1967C231.118 46.4967 235.17 46.4893 237.97 44.167Z" fill="#F48F7A"/>
<path fill-rule="evenodd" clip-rule="evenodd" d="M226.578 38.1573C228.259 35.4566 225.422 32.6076 222.719 34.2918C222.511 34.4253 222.326 34.6034 222.193 34.8186C220.504 37.5266 223.348 40.3757 226.052 38.6841C226.259 38.5505 226.444 38.3724 226.578 38.1573Z" fill="#FFB19E"/>
<path fill-rule="evenodd" clip-rule="evenodd" d="M243.904 38.1573C245.548 35.516 242.881 32.7411 240.237 34.1805C239.889 34.3734 239.6 34.6627 239.407 35.0115C237.97 37.6527 240.741 40.3311 243.378 38.684C243.593 38.5579 243.778 38.3724 243.904 38.1573Z" fill="#FFB19E"/>
<path d="M243.822 32.4077H243V29.5439C243 24.7955 238.674 20.93 233.356 20.93H232.948C227.63 20.93 223.304 24.7955 223.304 29.5439V32.4077H222.481V29.5439C222.481 24.3577 227.178 20.1436 232.948 20.1436H233.356C239.126 20.1436 243.822 24.3577 243.822 29.5439V32.4077Z" fill="#F2994A"/>
<path d="M243.14 30.8794C241.859 30.8794 240.814 31.9255 240.814 33.2091V37.3639C240.814 38.6475 241.859 39.6936 243.14 39.6936C244.422 39.6936 245.466 38.6475 245.466 37.3639V33.2091C245.466 31.9255 244.414 30.8794 243.14 30.8794Z" fill="#F2994A"/>
<path d="M243.14 30.8794C242.896 30.8794 242.666 30.9313 242.444 30.9981C243.385 31.2949 244.073 32.1704 244.073 33.2091V37.3639C244.073 38.4026 243.385 39.2707 242.444 39.5749C242.666 39.6491 242.896 39.6936 243.14 39.6936C244.422 39.6936 245.466 38.6475 245.466 37.3639V33.2091C245.466 31.9255 244.414 30.8794 243.14 30.8794Z" fill="#E39147"/>
<path d="M223.17 30.8794C221.889 30.8794 220.844 31.9255 220.844 33.2091V37.3639C220.844 38.6475 221.889 39.6936 223.17 39.6936C224.452 39.6936 225.496 38.6475 225.496 37.3639V33.2091C225.496 31.9255 224.444 30.8794 223.17 30.8794Z" fill="#F2994A"/>
<path d="M223.17 30.8794C222.925 30.8794 222.696 30.9313 222.474 30.9981C223.414 31.2949 224.103 32.1704 224.103 33.2091V37.3639C224.103 38.4026 223.414 39.2707 222.474 39.5749C222.696 39.6491 222.925 39.6936 223.17 39.6936C224.451 39.6936 225.496 38.6475 225.496 37.3639V33.2091C225.496 31.9255 224.444 30.8794 223.17 30.8794Z" fill="#E39147"/>
<path d="M236.851 42.298L236.822 41.838C239.474 41.6673 241.755 38.3657 241.777 38.3286L242.163 38.5883C242.066 38.7293 239.733 42.1125 236.851 42.298Z" fill="#F2994A"/>
<path d="M237.37 42.0904C237.355 41.6526 236.733 41.3484 235.985 41.4078C235.237 41.4671 234.637 41.8678 234.652 42.3055C234.666 42.7433 235.289 43.0475 236.037 42.9881C236.792 42.9213 237.385 42.5207 237.37 42.0904Z" fill="#F2994A"/>
<path d="M248.385 62.9458H214.689C212.851 62.9458 211.422 64.5335 211.496 66.4626L212.377 88.1864C212.451 89.9374 213.918 91.3545 215.651 91.3545H247.414C249.14 91.3545 250.614 89.9374 250.689 88.1864L251.57 66.4626C251.651 64.541 250.214 62.9458 248.385 62.9458Z" fill="#13448C"/>
<path d="M248.385 62.9458H214.689C213.763 62.9458 212.948 63.3465 212.363 63.9994C212.637 63.9177 212.926 63.8584 213.229 63.8584H246.926C248.763 63.8584 250.192 65.4461 250.118 67.3752L249.237 89.099C249.207 89.9077 248.859 90.6423 248.341 91.2061C249.644 90.8055 250.637 89.6184 250.696 88.1864L251.578 66.4626C251.652 64.541 250.215 62.9458 248.385 62.9458Z" fill="#1D54B5"/>
<path d="M235.111 77.7179C235.111 75.6034 233.399 73.897 231.296 73.897C229.185 73.897 227.481 75.6108 227.481 77.7179C227.481 79.8325 229.192 81.5389 231.296 81.5389C233.399 81.5389 235.111 79.825 235.111 77.7179Z" fill="#4286E8"/>
</g>
<defs>
<clipPath id="clip0_188_485">
<rect width="320" height="230" fill="white"/>
</clipPath>
</defs>
</svg>
