<svg width="72" height="72" viewBox="0 0 72 72" fill="none" xmlns="http://www.w3.org/2000/svg">
<path d="M0.181152 20.3675H18.8635L10.5533 6.86475L0.181152 20.3675Z" fill="#2F80ED"/>
<path d="M23.5244 20.3673H39.7067L31.6156 7.22021L23.5244 20.3673Z" fill="#2F80ED"/>
<path d="M21.1939 19.1845L29.2812 6.04273L13.104 6.0376L21.1939 19.1845Z" fill="#2F80ED"/>
<path d="M44.3682 20.3676H63.0297L52.677 6.86621L44.3682 20.3676Z" fill="#2F80ED"/>
<path d="M42.0377 19.1845L50.121 6.04922L33.9517 6.04395L42.0377 19.1845Z" fill="#2F80ED"/>
<path d="M71.4435 37.016L61.0218 29.7208C60.5729 29.4062 59.9751 29.4062 59.5262 29.7208L49.1045 37.016C48.7567 37.2604 48.5501 37.6592 48.5508 38.0842V64.6597C48.5508 65.3791 49.134 65.9624 49.8535 65.9624H70.6971C71.4165 65.9624 71.9998 65.3792 71.9998 64.6597V38.0842C71.9999 37.6586 71.7922 37.2598 71.4435 37.016ZM68.6648 50.5642L66.2183 53.0393L66.8228 56.5084C66.99 57.4638 66.5925 58.4302 65.8014 58.9913C65.0547 59.5292 64.0645 59.5876 63.2598 59.1411L60.2753 57.5205L57.2908 59.1502C56.4856 59.5948 55.4966 59.5365 54.7492 59.0005C53.9581 58.4392 53.5606 57.4729 53.7278 56.5175L54.3076 53.0001L51.8845 50.5692C51.2093 49.8864 50.9779 48.8808 51.2865 47.9716C51.5703 47.0903 52.3261 46.444 53.2405 46.3002L56.5599 45.7987L58.0683 42.6214C58.4635 41.7621 59.3228 41.2114 60.2686 41.2114C61.2144 41.2114 62.0737 41.7621 62.4688 42.6214L63.9773 45.7987L67.2967 46.3002C68.2113 46.444 68.967 47.0904 69.2507 47.9716C69.5625 48.8786 69.3355 49.8838 68.6645 50.5692V50.5642H68.6648Z" fill="#2F80ED"/>
<path d="M29.6381 58.3915L20.1934 22.9731H0L29.6381 58.3915Z" fill="#2F80ED"/>
<path d="M59.9417 26.9082L63.2441 22.9727H43.0377L33.5957 58.3806L45.9454 43.6416V38.0843C45.9456 36.8095 46.5674 35.6149 47.6116 34.8835L58.0334 27.5883C58.5981 27.1966 59.2566 26.9621 59.9417 26.9082Z" fill="#2F80ED"/>
<path d="M22.8901 22.9731L31.6158 55.6961L40.3414 22.9731H22.8901Z" fill="#2F80ED"/>
</svg>
