<svg width="320" height="210" viewBox="0 0 320 210" fill="none" xmlns="http://www.w3.org/2000/svg">
<g clip-path="url(#clip0_69_742)">
<path d="M25.661 121.299L24.4976 148.402L27.9213 194.417L33.0402 194.784L39.256 152.963L47.8319 117.603L25.661 121.299Z" fill="#1A3151"/>
<path d="M32.8407 196.948L27.1234 199.312L24.564 196.349L27.5223 193.785L33.0401 194.184L32.8407 196.948Z" fill="#F2994A"/>
<path d="M61.8595 111.742L62.9897 132.186L59.6657 193.052L54.5467 193.318L46.8683 153.396L40.0874 109.645L61.8595 111.742Z" fill="#1A3151"/>
<path d="M54.6798 195.483L60.3639 197.98L62.9898 195.05L60.0647 192.419L54.5469 192.686L54.6798 195.483Z" fill="#F2994A"/>
<path d="M24.3316 53.1408L39.7881 48.779C39.7881 48.779 48.6964 48.2462 58.1698 68.0576C63.4217 79.0786 67.5434 97.1918 70.1361 111.076C70.1029 113.141 69.4048 122.197 60.0312 122.264C43.9099 122.397 35.1346 121.265 28.5198 123.696C22.9023 125.96 22.0381 117.836 21.6392 111.609L20.7417 92.264L24.3316 53.1408Z" fill="#FF63BE"/>
<path d="M24.0657 32.9967C27.8883 31.4317 31.8438 29.9667 35.9323 30.0666C36.8298 30.0999 37.827 30.2331 38.4253 30.899C38.658 31.1654 38.8242 31.465 38.9572 31.798C40.5859 35.3607 42.813 40.6881 40.9183 44.5505C40.5527 45.283 40.0208 45.9157 39.4225 46.4484C38.6248 47.1809 37.694 47.7137 36.6968 48.1132C37.0625 49.0122 37.5278 49.8779 38.0597 50.677C37.3949 52.2087 33.1734 53.0744 32.1762 51.909C31.9436 50.7769 31.7109 49.6448 31.4782 48.5128C30.9131 48.3796 30.3813 48.2131 29.8494 47.98C27.8218 47.081 26.326 45.4828 25.2956 43.5849C24.1654 41.4872 22.7361 39.5893 21.6724 37.4584C21.2736 36.6926 20.9412 35.7936 21.2403 34.9612C21.5727 34.0955 22.5034 33.6626 23.3677 33.2963C23.5671 33.1965 23.7998 33.0966 24.0657 32.9967Z" fill="#AA6755"/>
<path d="M37.6275 32.8967C35.4669 31.9644 32.4088 31.9311 30.5806 32.364C25.0628 33.7291 23.7332 38.1576 24.2983 43.3518C22.4369 41.6537 19.1461 39.6892 18.5478 37.192C18.0492 35.1609 17.883 32.2974 18.714 30.3329C19.5118 28.5016 22.1045 27.1032 23.6003 25.8712C24.9964 24.7058 26.3924 23.5405 27.7885 22.3418C28.0877 22.1087 28.3868 21.8424 28.7192 21.7092C29.1513 21.576 29.6167 21.6093 30.0488 21.6426C33.8714 21.9755 37.6607 22.3085 41.4833 22.6082C42.2146 22.6748 43.0456 22.8079 43.4445 23.4406C43.6771 23.8401 43.6439 24.3063 43.6439 24.7391C43.5442 26.7036 43.0788 28.8013 43.2118 30.7325C43.1785 31.8978 43.4777 37.7247 41.3836 37.3917C40.6523 36.526 40.3532 35.394 39.7216 34.4284C39.2562 33.7957 38.525 33.263 37.6275 32.8967Z" fill="#333333"/>
<path d="M39.7881 48.7791L45.9042 49.5782L70.9338 68.2907L73.4601 75.4161L66.1473 93.9622L62.358 88.2685L64.5518 75.1165L56.9066 71.4539L44.3087 52.4417L39.7881 48.7791Z" fill="white"/>
<path d="M183.273 14.0294L51.6802 25.6028L66.9641 199.976L198.557 188.403L183.273 14.0294Z" fill="#2F80ED"/>
<path d="M177.121 20.1489L58.8066 30.5544L72.9479 191.892L191.263 181.487L177.121 20.1489Z" fill="#FCFCFC"/>
<path opacity="0.12" d="M143.591 22.2566L92.1992 26.7764L92.6179 31.5528L144.01 27.0331L143.591 22.2566Z" fill="#2F80ED"/>
<path d="M131.796 8.69041L130.998 8.75701L130.965 8.22427C130.533 3.19652 125.447 -0.466079 119.63 0.0333662L111.952 0.699293C106.135 1.19874 101.78 5.69374 102.213 10.7215L102.246 11.2542L101.448 11.3208C95.6311 11.8203 91.2767 16.3153 91.7088 21.343L92.6062 31.5317L143.995 27.0034L143.098 16.8147C142.665 11.8536 137.613 8.19097 131.796 8.69041ZM123.42 9.62271L109.891 10.8214C108.495 10.9546 107.265 9.92238 107.165 8.55723C107.032 7.19208 108.063 5.96011 109.459 5.82693L122.987 4.62826C124.384 4.49508 125.613 5.52726 125.713 6.89241C125.813 8.29086 124.782 9.52282 123.42 9.62271Z" fill="#2F80ED"/>
<g opacity="0.47">
<path opacity="0.47" d="M96.4954 87.5693C90.7116 88.0687 84.9279 88.6015 79.1109 89.1009C78.6123 89.1342 78.2467 89.6004 78.2799 90.0665C78.7785 95.8268 79.2771 101.554 79.809 107.314C79.8422 107.813 80.3076 108.18 80.8062 108.146C86.5899 107.647 92.3736 107.114 98.1906 106.615C98.4565 106.581 98.656 106.482 98.7889 106.315L98.8222 106.282C98.8222 106.282 98.8222 106.282 98.8222 106.249C98.9551 106.082 99.0216 105.882 99.0216 105.616C98.523 99.8556 98.0244 94.1287 97.4926 88.3684C97.4261 87.9023 96.994 87.5027 96.4954 87.5693ZM97.0937 104.883C91.9083 105.35 86.7229 105.782 81.5374 106.249C81.0721 101.088 80.64 95.96 80.1746 90.799C85.36 90.3329 90.5454 89.9 95.7309 89.4339C96.1962 94.5948 96.6283 99.7557 97.0937 104.883Z" fill="#879195"/>
<path opacity="0.47" d="M99.2873 119.467C93.5036 119.967 87.7199 120.499 81.9029 120.999C81.4043 121.032 81.0387 121.498 81.0719 121.964C81.5705 127.725 82.0691 133.452 82.601 139.212C82.6342 139.711 83.0996 140.078 83.5981 140.044C89.3819 139.545 95.1656 139.012 100.983 138.513C101.248 138.479 101.448 138.38 101.581 138.213L101.614 138.18C101.614 138.18 101.614 138.18 101.614 138.146C101.747 137.98 101.814 137.78 101.814 137.514C101.315 131.754 100.816 126.027 100.285 120.266C100.218 119.8 99.7859 119.401 99.2873 119.467ZM99.8856 136.781C94.7002 137.247 89.5148 137.68 84.3294 138.146C83.8641 132.986 83.4319 127.858 82.9666 122.697C88.152 122.231 93.3374 121.798 98.5228 121.332C98.9882 126.493 99.4535 131.62 99.8856 136.781Z" fill="#879195"/>
<path opacity="0.47" d="M102.08 151.365C96.2961 151.864 90.5124 152.397 84.6954 152.897C84.1968 152.93 83.8312 153.396 83.8644 153.862C84.363 159.622 84.8616 165.349 85.3934 171.11C85.4267 171.609 85.892 171.975 86.3906 171.942C92.1744 171.443 97.9581 170.91 103.775 170.41C104.041 170.377 104.24 170.277 104.373 170.111L104.407 170.078C104.407 170.078 104.407 170.078 104.407 170.044C104.54 169.878 104.606 169.678 104.606 169.412C104.107 163.651 103.609 157.924 103.077 152.164C103.011 151.698 102.578 151.298 102.08 151.365ZM102.678 168.679C97.4927 169.145 92.3073 169.578 87.1219 170.044C86.6566 164.883 86.2244 159.756 85.7591 154.595C90.9445 154.129 96.1299 153.696 101.315 153.23C101.781 158.39 102.246 163.518 102.678 168.679Z" fill="#879195"/>
</g>
<path d="M85.5259 95.0944L89.4149 93.4296L91.9744 97.1921L109.857 81.8757L112.118 82.1088L91.509 102.12L85.5259 95.0944Z" fill="#2BAC76"/>
<path d="M86.9551 127.925L90.8441 126.26L93.4036 130.022L111.287 114.706L113.547 114.939L92.9382 134.95L86.9551 127.925Z" fill="#2BAC76"/>
<path d="M89.249 158.158L93.1381 156.493L95.6976 160.255L113.581 144.906L115.841 145.172L95.2322 165.183L89.249 158.158Z" fill="#2BAC76"/>
<path opacity="0.32" d="M175.149 151.988L113.855 157.379L114.611 166.003L175.905 160.612L175.149 151.988Z" fill="#879195"/>
<path opacity="0.32" d="M172.192 118.224L110.899 123.615L111.655 132.239L172.948 126.848L172.192 118.224Z" fill="#879195"/>
<path opacity="0.32" d="M169.232 84.4266L107.939 89.8171L108.695 98.4413L169.988 93.0507L169.232 84.4266Z" fill="#879195"/>
<path d="M30.88 62.8969L28.6862 80.3109L56.8736 99.2232L55.3446 104.251L19.3458 90.4663L16.1548 78.7127L24.3318 53.1411L30.88 62.8969Z" fill="#FF63BE"/>
<path d="M55.6768 103.185L57.9038 105.117L63.5214 105.45L63.4549 102.353L59.4329 100.888L59.034 99.2564L56.8734 99.2231L55.6768 103.185Z" fill="#AA6755"/>
<path d="M300.454 190.355L300.72 193.086L295.535 196.382L292.543 193.918L295.003 190.921L300.188 187.625L300.454 190.355Z" fill="#F2994A"/>
<path d="M300.654 106.948L301.485 115.239L294.106 152.364L300.654 189.423L295.335 191.088L278.184 146.97L277.253 133.518L279.58 105.583L300.654 106.948Z" fill="#1A3151"/>
<path d="M260.467 109.778L260.301 144.839L267.181 190.022L272.267 189.989L275.192 148.235L281.84 106.482L260.467 109.778Z" fill="#1A3151"/>
<path d="M272.234 192.153L266.782 194.917L264.023 192.187L266.749 189.423L272.234 189.39V192.153Z" fill="#F2994A"/>
<path d="M256.179 104.617C259.836 93.2631 260.235 81.343 261.298 69.4895C261.597 65.9934 261.963 62.4307 263.392 59.2343C265.054 55.5717 267.813 53.6405 271.004 52.575C275.093 51.2431 279.913 51.3097 284.167 51.0434C288.189 50.9102 291.746 66.0933 295.868 73.4518C298.394 77.9468 300.987 81.9424 302.682 86.8702C304.311 91.5983 305.873 96.393 306.837 101.288C308.266 108.713 311.923 113.874 308.432 116.404C308.1 116.504 307.801 116.604 307.502 116.737C301.751 118.801 295.834 120.333 289.785 121.132C284.433 121.831 278.982 121.965 273.597 121.432C266.218 120.699 259.071 119.667 252.589 115.805C253.786 112.076 254.983 108.346 256.179 104.617Z" fill="#FF63BE"/>
<path d="M230.917 81.6428L256.179 74.0845L264.755 56.9702L269.475 65.7271L264.024 81.6428L236.368 87.1367L230.917 81.6428Z" fill="#FF63BE"/>
<path d="M269.481 120.342L287.43 102.394L221.182 35.92L203.233 53.8687L269.481 120.342Z" fill="#2BAC76"/>
<path d="M221.178 35.9268L196.182 28.8347L203.228 53.8736L221.178 35.9268Z" fill="white"/>
<path d="M205.588 31.4984L196.182 28.8347L198.841 38.2243L205.588 31.4984Z" fill="#145566"/>
<path d="M280.81 126.926L294.14 113.607C295.403 112.342 295.403 110.244 294.14 108.979L287.425 102.386L269.476 120.333L276.19 126.926C277.453 128.191 279.514 128.191 280.81 126.926Z" fill="#F2994A"/>
<path d="M269.476 120.333L287.425 102.386L284.068 99.0234L265.985 116.837L269.476 120.333Z" fill="#EDEDEF"/>
<path d="M286.128 39.789C283.835 32.8633 273.73 30.4327 271.37 38.4904C270.672 40.921 270.24 43.4849 270.705 45.9488C271.17 48.4127 272.699 50.8101 274.993 51.809H275.026C274.927 52.4416 274.86 53.1075 274.76 53.7401C274.727 53.8733 274.727 54.0398 274.794 54.1397C274.893 54.2729 275.059 54.3062 275.226 54.3395C275.99 54.4394 276.755 54.5725 277.519 54.6724C277.885 54.739 278.284 54.7723 278.649 54.6724C279.447 54.4061 279.78 53.4405 279.813 52.6081C279.813 52.4083 279.813 52.2085 279.813 52.0087C284.433 50.5104 287.657 44.3173 286.128 39.789Z" fill="#EAC1A4"/>
<path d="M273.83 27.9356C271.968 27.6692 270.406 29.4672 268.678 30.3995C267.248 31.1986 265.653 31.3984 264.157 32.031C262.694 32.6969 261.232 34.0288 261.199 35.7269C259.703 34.9611 258.074 34.162 256.412 34.4616C254.75 34.7946 253.188 36.7924 253.853 38.4239C254.451 39.8889 256.379 40.2552 257.01 41.6869C258.008 43.9844 255.282 47.5471 257.143 49.0787C257.609 49.445 258.207 49.5449 258.639 49.9111C259.171 50.3773 259.37 51.1764 259.603 51.9089C260.7 55.1387 263.958 57.2696 267.182 56.8368C269.176 55.9045 270.772 53.94 271.503 51.7424C272.367 49.0454 270.938 48.1131 270.705 45.6159C270.439 42.8523 271.304 39.9555 273.032 37.8246C274.162 36.4261 275.758 35.2275 277.486 35.061C278.184 34.9944 277.951 35.5604 278.749 35.0277C279.082 34.7946 279.547 33.9289 279.647 33.496C277.819 32.0643 276.256 28.3018 273.83 27.9356Z" fill="#333333"/>
<path d="M293.84 31.4983C294.804 31.7647 295.835 31.7314 296.732 32.1309C298.095 32.7303 298.028 34.162 298.394 35.394C298.826 36.7591 299.458 38.5904 300.355 39.6559C301.02 40.4217 301.918 40.8546 302.715 41.4539C303.513 42.0532 304.244 42.919 304.211 43.9844C304.211 44.9833 303.513 45.9156 303.413 46.9145C303.28 48.4128 303.546 49.1787 303.081 50.7103C302.848 51.5094 302.582 52.3418 301.984 52.8746C301.186 53.5738 300.089 53.5738 299.092 53.4073C298.128 53.2408 297.098 52.9744 296.134 53.3074C294.04 54.0066 294.439 56.1376 293.874 57.9023C293.009 60.5993 289.885 62.1975 287.491 61.2319C285.464 60.4328 284.3 58.0688 284.367 55.7047C284.4 54.5394 284.866 53.4406 284.899 52.2752C284.932 51.1431 284.3 49.5782 285.331 48.6792C285.564 48.4461 285.896 48.3463 286.129 48.1132C286.295 47.9134 286.395 47.647 286.461 47.3807C286.694 46.4484 286.461 45.4495 285.929 44.717C285.53 44.2175 284.965 43.818 284.733 43.2186C284.467 42.5194 284.666 41.687 284.733 40.8879C284.832 38.99 283.802 37.1254 282.24 36.3929C281.209 35.9267 280.278 35.6271 279.348 34.8945C279.215 34.7946 277.154 32.9633 277.087 33.3629C277.187 32.6637 277.586 32.0643 277.985 31.5316C278.65 30.6326 279.381 29.7336 280.345 29.2009C283.37 27.4361 283.536 31.5316 285.962 30.9989C286.561 30.8657 286.993 30.3329 287.525 30C288.522 29.4006 289.752 29.6004 290.782 30.0666C291.846 30.5327 292.777 31.1986 293.84 31.4983Z" fill="#333333"/>
<path d="M230.086 85.2054L233.078 84.5728L236.834 87.4362L234.008 90.7659L231.183 88.4351L230.086 85.2054Z" fill="#EAC1A4"/>
<path d="M263.06 94.7946L261.032 96.9588L255.514 97.9244L255.215 94.8279L259.071 92.93L259.304 91.2985L261.431 90.9988L263.06 94.7946Z" fill="#EAC1A4"/>
<path d="M257.841 90.8657L283.104 83.3074L291.679 66.1931L296.433 74.9501L290.981 90.8657L263.326 96.3596L257.841 90.8657Z" fill="#FF63BE"/>
<path d="M90.4788 47.8469L72.9946 49.5117L73.3603 53.1743L79.8088 52.575L81.4043 69.5228L85.9914 69.09L84.3627 52.1422L90.8112 51.5095L90.4788 47.8469Z" fill="#F2994A"/>
<path d="M110.39 50.6771C109.426 49.1788 108.163 48.0467 106.567 47.3475C104.972 46.6482 103.177 46.3819 101.116 46.5816C99.0548 46.7814 97.3263 47.3808 95.897 48.3796C94.4677 49.3785 93.404 50.7104 92.7392 52.3752C92.0744 54.04 91.8418 55.9379 92.0412 58.1022C92.2406 60.2331 92.839 62.0977 93.8029 63.5961C94.7669 65.1277 96.0632 66.2265 97.6587 66.959C99.2542 67.6582 101.082 67.9246 103.11 67.7248C105.171 67.525 106.899 66.9257 108.295 65.9268C109.725 64.9279 110.755 63.5961 111.42 61.898C112.085 60.2331 112.318 58.3019 112.085 56.171C111.919 54.0067 111.354 52.1754 110.39 50.6771ZM106.7 61.9646C105.836 63.2631 104.539 64.0289 102.811 64.1954C101.082 64.3619 99.6531 63.8957 98.5895 62.7637C97.4925 61.6649 96.861 59.9335 96.6283 57.636C96.3956 55.3719 96.728 53.5739 97.5923 52.2753C98.4565 50.9768 99.7528 50.2442 101.481 50.0778C103.21 49.9113 104.639 50.3774 105.703 51.4762C106.8 52.575 107.431 54.2731 107.664 56.5372C107.863 58.868 107.564 60.666 106.7 61.9646Z" fill="#F2994A"/>
<path d="M140.771 47.8467C139.774 46.3816 138.411 45.3162 136.716 44.6502C135.02 43.9843 133.026 43.7845 130.799 43.9843L122.854 44.7501L124.816 65.3938L132.76 64.628C135.02 64.395 136.948 63.8289 138.477 62.83C140.006 61.8644 141.136 60.5659 141.834 58.9344C142.533 57.3028 142.798 55.4049 142.566 53.2407C142.366 51.1097 141.768 49.3117 140.771 47.8467ZM132.095 60.9987L128.937 61.2984L127.674 47.9799L130.832 47.6802C135.22 47.2473 137.646 49.2784 138.045 53.6735C138.477 58.1352 136.516 60.5659 132.095 60.9987Z" fill="#F2994A"/>
<path d="M165.568 51.0433C165.368 48.9123 164.77 47.081 163.806 45.5494C162.842 44.0511 161.579 42.919 159.984 42.2198C158.388 41.5205 156.593 41.2542 154.532 41.454C152.471 41.6537 150.743 42.2531 149.314 43.252C147.884 44.2508 146.821 45.5827 146.156 47.2475C145.491 48.9123 145.258 50.8102 145.458 52.9745C145.657 55.1055 146.255 56.97 147.219 58.4684C148.183 60 149.48 61.0988 151.075 61.8313C152.671 62.5305 154.499 62.7969 156.527 62.5971C158.587 62.3974 160.316 61.798 161.712 60.7991C163.141 59.8002 164.172 58.4684 164.837 56.7703C165.568 55.1055 165.767 53.2076 165.568 51.0433ZM160.116 56.8702C159.252 58.1687 157.956 58.9345 156.227 59.0677C154.499 59.2342 153.07 58.7681 152.006 57.636C150.909 56.5372 150.277 54.8058 150.045 52.5083C149.812 50.2442 150.145 48.4462 151.009 47.1476C151.873 45.8491 153.169 45.1165 154.898 44.9501C156.626 44.7836 158.056 45.2497 159.119 46.3485C160.216 47.4473 160.848 49.1454 161.08 51.4096C161.313 53.7736 160.981 55.5383 160.116 56.8702Z" fill="#F2994A"/>
</g>
<defs>
<clipPath id="clip0_69_742">
<rect width="320" height="210" fill="white"/>
</clipPath>
</defs>
</svg>
