<svg width="320" height="370" viewBox="0 0 320 370" fill="none" xmlns="http://www.w3.org/2000/svg">
<path fill-rule="evenodd" clip-rule="evenodd" d="M100.738 208.174C97.9578 207.96 61.8178 217.342 62.887 217.555C63.9563 217.768 101.807 215.209 101.807 215.209L100.738 208.174Z" fill="#2D2925"/>
<path fill-rule="evenodd" clip-rule="evenodd" d="M186.49 246.125C186.49 246.125 187.56 264.248 182.427 276.614C177.295 288.98 169.383 287.488 167.03 289.407C164.678 291.326 162.753 294.311 165.961 296.016C168.955 297.722 174.943 300.281 183.497 288.128C192.05 275.975 189.484 248.684 189.484 248.684L186.49 246.125Z" fill="#2D2925"/>
<path opacity="0.7" fill-rule="evenodd" clip-rule="evenodd" d="M167.885 167.663C167.672 164.678 187.773 103.487 201.673 89.4147C215.787 75.5559 261.55 84.2976 256.632 117.559C251.713 150.82 177.936 167.877 174.301 168.729C170.665 169.795 167.885 167.663 167.885 167.663Z" fill="#D4E1F2"/>
<path fill-rule="evenodd" clip-rule="evenodd" d="M142.652 240.795C142.652 240.795 143.721 258.918 138.588 271.284C133.456 283.651 125.544 282.158 123.192 284.077C120.839 285.996 118.915 288.981 122.122 290.687C125.116 292.392 131.104 294.951 139.658 282.798C148.212 270.645 145.645 243.354 145.645 243.354L142.652 240.795Z" fill="#2D2925"/>
<path fill-rule="evenodd" clip-rule="evenodd" d="M160.187 268.299C199.963 268.299 232.254 244.42 232.254 214.997C232.254 185.787 199.749 161.694 160.187 161.694C120.626 161.694 88.1212 185.573 88.1212 214.997C87.9073 244.207 120.412 268.299 160.187 268.299Z" fill="#F2994A"/>
<path fill-rule="evenodd" clip-rule="evenodd" d="M141.582 163.613C134.312 165.105 127.255 167.237 121.053 170.222C108.222 179.603 95.6055 197.726 95.6055 215.21C95.6055 232.693 107.153 248.258 123.192 260.624C128.324 262.969 133.67 264.675 139.444 265.954C104.159 239.303 105.015 189.198 141.582 163.613Z" fill="#2D2925"/>
<path fill-rule="evenodd" clip-rule="evenodd" d="M170.452 162.333C149.281 168.943 133.457 193.249 133.457 214.783C133.457 236.317 146.073 259.557 171.735 267.66C174.515 267.233 177.081 266.807 179.647 266.38C144.149 239.942 144.577 190.051 180.717 164.039C177.509 163.186 173.873 162.759 170.452 162.333Z" fill="#2D2925"/>
<path fill-rule="evenodd" clip-rule="evenodd" d="M162.753 251.242C162.753 251.242 167.886 263.395 159.546 275.762C151.206 288.128 146.501 285.356 143.507 287.275C140.727 289.194 142.01 292.819 145.004 293.885C164.892 300.494 173.659 262.116 165.106 253.588L162.753 251.242Z" fill="#2D2925"/>
<path fill-rule="evenodd" clip-rule="evenodd" d="M201.887 164.892C224.983 164.039 244.443 181.949 245.298 204.976C246.153 228.002 228.404 247.405 205.095 248.258C182 249.11 162.54 231.414 161.47 208.174C160.829 185.36 178.792 165.958 201.887 164.892Z" fill="#2D2925"/>
<path fill-rule="evenodd" clip-rule="evenodd" d="M196.541 171.928C209.158 171.501 219.85 181.096 220.278 193.675C220.705 206.255 210.869 216.915 198.465 217.342C185.849 217.768 175.156 208.174 174.729 195.594C174.301 183.015 183.924 172.354 196.541 171.928Z" fill="#F8FAFF"/>
<path fill-rule="evenodd" clip-rule="evenodd" d="M196.755 174.913C201.887 174.699 206.378 178.75 206.592 183.867C206.805 188.985 202.742 193.462 197.61 193.675C192.478 193.888 187.987 189.837 187.773 184.72C187.559 179.39 191.622 175.126 196.755 174.913Z" fill="#231915"/>
<path fill-rule="evenodd" clip-rule="evenodd" d="M198.68 177.258C201.032 177.258 203.171 178.964 203.171 181.522C203.171 183.867 201.46 185.999 198.894 185.999C196.541 185.999 194.403 184.294 194.403 181.735C194.403 179.39 196.327 177.471 198.68 177.258Z" fill="#EEEEEE"/>
<path fill-rule="evenodd" clip-rule="evenodd" d="M232.895 170.222C245.512 169.796 256.204 179.603 256.632 191.97C257.059 204.549 247.222 215.21 234.819 215.636C222.202 216.063 211.51 206.255 211.082 193.889C210.441 181.522 220.278 170.862 232.895 170.222Z" fill="#F8FAFF"/>
<path fill-rule="evenodd" clip-rule="evenodd" d="M232.895 173.207C238.027 172.994 242.518 177.045 242.732 182.162C242.946 187.279 238.883 191.756 233.75 191.969C228.618 192.183 224.127 188.132 223.913 183.015C223.699 177.897 227.763 173.42 232.895 173.207Z" fill="#231915"/>
<path fill-rule="evenodd" clip-rule="evenodd" d="M235.034 175.765C237.386 175.765 239.525 177.471 239.525 180.03C239.525 182.375 237.814 184.507 235.248 184.507C232.895 184.507 230.757 182.801 230.757 180.243C230.543 177.898 232.468 175.979 235.034 175.765Z" fill="#EEEEEE"/>
<path opacity="0.7" fill-rule="evenodd" clip-rule="evenodd" d="M166.175 167.877C166.175 164.465 143.293 95.5979 128.752 79.8203C113.996 64.2558 68.6608 74.0636 75.0762 111.589C81.7054 148.901 156.124 168.303 159.759 169.369C163.395 170.222 166.175 167.877 166.175 167.877Z" fill="#D4E1F2"/>
<path fill-rule="evenodd" clip-rule="evenodd" d="M118.701 245.699C118.701 245.699 123.833 257.852 115.493 270.218C107.153 282.585 102.449 279.813 99.4549 281.732C96.6749 283.651 97.958 287.275 100.952 288.341C120.84 294.951 129.607 256.573 121.053 248.044L118.701 245.699Z" fill="#2D2925"/>
<path d="M73.0285 34.0947H69.2405C68.443 29.0651 64.2563 25.4438 59.0728 25.4438C58.2753 25.4438 57.4778 25.6449 56.6804 25.6449C54.0886 21.2189 49.3038 18 43.9209 18C35.7468 18 29.3671 24.639 29.3671 32.6864C29.3671 33.0887 29.3671 33.4911 29.3671 33.8935H27.9715C22.9873 33.8935 19 37.9172 19 42.9467C19 47.9763 22.9873 52 27.9715 52H73.0285C78.0127 52 82 47.9763 82 42.9467C81.8006 38.1183 77.8133 34.0947 73.0285 34.0947Z" fill="#AFD8F9"/>
<path d="M304.592 257.361H301.886C301.316 253.811 298.326 251.254 294.623 251.254C294.054 251.254 293.484 251.396 292.915 251.396C291.063 248.272 287.646 246 283.801 246C277.962 246 273.405 250.686 273.405 256.367C273.405 256.651 273.405 256.935 273.405 257.219H272.408C268.848 257.219 266 260.059 266 263.609C266 267.16 268.848 270 272.408 270H304.592C308.152 270 311 267.16 311 263.609C310.858 260.201 308.009 257.361 304.592 257.361Z" fill="#AFD8F9"/>
<path d="M71.5918 291.361H68.8861C68.3165 287.811 65.3259 285.254 61.6234 285.254C61.0538 285.254 60.4842 285.396 59.9146 285.396C58.0633 282.272 54.6456 280 50.8006 280C44.962 280 40.4051 284.686 40.4051 290.367C40.4051 290.651 40.4051 290.935 40.4051 291.219H39.4082C35.8481 291.219 33 294.059 33 297.609C33 301.16 35.8481 304 39.4082 304H71.5918C75.1519 304 78 301.16 78 297.609C77.8576 294.201 75.0095 291.361 71.5918 291.361Z" fill="#D7EBFC"/>
<path d="M278.728 51.574H276.924C276.544 49.2071 274.551 47.503 272.082 47.503C271.703 47.503 271.323 47.5976 270.943 47.5976C269.709 45.5148 267.43 44 264.867 44C260.975 44 257.937 47.1242 257.937 50.9112C257.937 51.1006 257.937 51.2899 257.937 51.4793H257.272C254.899 51.4793 253 53.3728 253 55.7396C253 58.1065 254.899 60 257.272 60H278.728C281.101 60 283 58.1065 283 55.7396C282.905 53.4675 281.006 51.574 278.728 51.574Z" fill="#D7EBFC"/>
</svg>
