<svg width="320" height="305" viewBox="0 0 320 305" fill="none" xmlns="http://www.w3.org/2000/svg">
<g clip-path="url(#clip0_69_1136)">
<path d="M177.932 293.049C177.932 301.261 142.141 301.261 142.141 293.049L154.657 136.664C154.949 133.878 157.218 131.825 160 131.825C162.781 131.825 165.05 133.951 165.343 136.664L177.932 293.049Z" fill="#F2994A"/>
<path d="M160 112.029C154.803 112.029 150.558 107.776 150.558 102.571C150.558 97.3654 154.803 93.113 160 93.113C165.197 93.113 169.442 97.3654 169.442 102.571C169.442 107.776 165.197 112.029 160 112.029Z" fill="#F2994A"/>
<path d="M217.602 59.3867C222.214 63.9324 225.434 68.8447 228.581 74.93C235.022 87.2473 237.438 101.471 234.144 115.035C231.363 126.472 225.215 136.59 217.602 145.461C213.723 150.007 220.237 156.606 224.19 152.06C237.438 136.59 246.807 117.307 244.611 96.4853C243.22 83.1416 237.95 70.4577 229.972 59.7533C228.215 57.4072 226.312 54.9877 224.19 52.8615C219.871 48.6091 213.357 55.2077 217.602 59.3867Z" fill="#F2994A"/>
<path d="M196.597 71.924C201.061 76.4697 205.014 83.0683 207.283 89.8868C212.699 105.797 207.576 121.047 196.597 133.217C192.571 137.616 199.158 144.215 203.184 139.816C215.92 125.739 222.434 107.63 216.725 88.9337C214.163 80.4288 209.479 71.7774 203.184 65.3255C198.939 61.0731 192.425 67.6716 196.597 71.924Z" fill="#F2994A"/>
<path d="M175.59 84.7548C178.445 87.3209 180.567 90.4003 182.031 94.2128C185.764 103.597 181.958 112.615 175.59 119.801C171.638 124.273 178.152 130.871 182.177 126.399C190.375 117.234 195.425 105.43 191.473 93.1863C189.716 87.6875 186.496 82.1154 182.177 78.2296C177.713 74.1971 171.125 80.7224 175.59 84.7548Z" fill="#F2994A"/>
<path d="M102.397 145.388C97.786 140.843 94.5655 135.93 91.4182 129.845C84.9772 117.528 82.5619 103.304 85.8555 89.7403C88.6369 78.3028 94.7851 68.185 102.397 59.3136C106.276 54.768 99.7622 48.1694 95.8098 52.7151C82.5619 68.185 73.1931 87.4675 75.3889 108.29C76.7796 121.633 82.0495 134.317 90.0275 145.022C91.7842 147.368 93.6872 149.787 95.8098 151.913C100.128 156.166 106.716 149.641 102.397 145.388Z" fill="#F2994A"/>
<path d="M123.404 132.851C118.939 128.305 114.987 121.707 112.718 114.888C107.301 98.9785 112.425 83.7285 123.404 71.5578C127.429 67.1588 120.842 60.5602 116.816 64.9593C104.081 79.0362 97.5666 97.1456 103.276 115.841C105.837 124.346 110.522 132.998 116.816 139.45C121.062 143.702 127.649 137.177 123.404 132.851Z" fill="#F2994A"/>
<path d="M144.483 120.021C141.628 117.455 139.506 114.375 138.042 110.563C134.309 101.178 138.115 92.1602 144.483 84.9751C148.435 80.5028 141.921 73.9042 137.896 78.3766C129.698 87.5412 124.648 99.3453 128.6 111.589C130.357 117.088 133.577 122.66 137.896 126.546C142.36 130.579 148.948 124.053 144.483 120.021Z" fill="#F2994A"/>
<path d="M163.879 304.707L151.144 304.12C149.387 304.047 147.923 302.58 147.923 300.748C147.923 299.061 149.168 297.595 150.851 297.448L163.513 295.909C166.148 295.615 168.491 297.668 168.491 300.308C168.491 302.8 166.441 304.78 163.879 304.707Z" fill="#001056"/>
<path d="M168.637 298.768C168.637 301.261 166.661 303.24 164.172 303.24C161.684 303.24 159.708 301.261 159.708 298.768C159.708 296.275 161.684 294.295 164.172 294.295C166.661 294.369 168.637 296.348 168.637 298.768Z" fill="#001056"/>
<path d="M157.292 301.187C156.999 301.187 156.78 300.967 156.78 300.674V297.961C156.78 297.668 156.999 297.448 157.292 297.448C157.585 297.448 157.804 297.668 157.804 297.961V300.674C157.804 300.967 157.585 301.187 157.292 301.187Z" fill="#3DA2FF"/>
<path d="M154.657 301.187C154.364 301.187 154.145 300.967 154.145 300.674V297.961C154.145 297.668 154.364 297.448 154.657 297.448C154.95 297.448 155.169 297.668 155.169 297.961V300.674C155.169 300.967 154.95 301.187 154.657 301.187Z" fill="#3DA2FF"/>
<path d="M163.952 295.322L181.592 287.111C183.202 286.378 185.178 287.111 185.91 288.724C186.642 290.337 185.91 292.316 184.3 293.049L166.66 301.261C165.05 301.994 163.074 301.261 162.342 299.648C161.61 298.035 162.342 296.129 163.952 295.322Z" fill="#FEFDFE"/>
<path d="M171.857 289.237L196.45 277.946C199.158 276.7 202.378 277.946 203.623 280.659C204.867 283.371 203.623 286.597 200.914 287.844L176.321 299.135C173.613 300.381 170.393 299.135 169.149 296.422C167.904 293.709 169.149 290.483 171.857 289.237Z" fill="#F2994A"/>
<path d="M188.912 304.853L201.648 304.267C203.404 304.194 204.868 302.727 204.868 300.894C204.868 299.208 203.624 297.742 201.94 297.595L189.278 296.055C186.643 295.762 184.301 297.815 184.301 300.454C184.301 302.947 186.423 305 188.912 304.853Z" fill="#001056"/>
<path d="M184.154 298.988C184.154 301.481 186.131 303.461 188.619 303.461C191.108 303.461 193.084 301.481 193.084 298.988C193.084 296.495 191.108 294.516 188.619 294.516C186.204 294.516 184.154 296.495 184.154 298.988Z" fill="#001056"/>
<path d="M195.5 301.334C195.792 301.334 196.012 301.114 196.012 300.821V298.108C196.012 297.815 195.792 297.595 195.5 297.595C195.207 297.595 194.987 297.815 194.987 298.108V300.821C194.987 301.114 195.28 301.334 195.5 301.334Z" fill="#3DA2FF"/>
<path d="M198.134 301.334C198.427 301.334 198.646 301.114 198.646 300.821V298.108C198.646 297.815 198.427 297.595 198.134 297.595C197.841 297.595 197.622 297.815 197.622 298.108V300.821C197.622 301.114 197.841 301.334 198.134 301.334Z" fill="#3DA2FF"/>
<path d="M186.35 301.554L168.125 294.882C166.442 294.222 165.563 292.389 166.222 290.703C166.881 289.017 168.711 288.137 170.394 288.797L188.619 295.469C190.303 296.129 191.181 297.962 190.522 299.648C189.863 301.334 188.034 302.141 186.35 301.554Z" fill="#FEFDFE"/>
<path d="M176.469 300.234L151.071 290.776C148.289 289.75 146.899 286.597 147.923 283.811C148.948 281.025 152.095 279.632 154.877 280.659L180.275 290.117C183.056 291.143 184.447 294.296 183.422 297.082C182.397 299.868 179.25 301.334 176.469 300.234Z" fill="#F2994A"/>
<path d="M157.585 264.529C155.974 263.136 155.755 260.716 157.145 259.103L164.026 250.452C165.197 248.986 167.392 248.839 168.783 250.012L169.515 250.599C170.979 251.845 171.125 253.971 169.954 255.364L163.074 264.016C161.61 265.702 159.195 265.922 157.585 264.529Z" fill="#3DA2FF"/>
<path d="M153.193 269.734C151.949 268.634 151.802 266.801 152.827 265.482L156.926 260.423C157.877 259.323 159.561 259.176 160.659 260.13L161.171 260.569C162.269 261.523 162.415 263.209 161.464 264.309L157.365 269.368C156.34 270.687 154.437 270.834 153.193 269.734Z" fill="#F9B48D"/>
<path d="M152.973 265.335C151.802 266.435 151.729 268.268 152.827 269.441L162.342 279.705C163.44 280.879 165.343 280.952 166.514 279.852C167.685 278.752 167.758 276.846 166.661 275.673L157.145 265.409C156.048 264.235 154.145 264.162 152.973 265.335Z" fill="#F9B48D"/>
<path d="M161.464 276.187C161.61 276.92 162.269 277.433 163.074 277.286L170.613 276.04C171.345 275.893 171.857 275.233 171.711 274.427C171.565 273.694 170.906 273.18 170.101 273.327L162.562 274.574C161.83 274.72 161.318 275.453 161.464 276.187Z" fill="#F9B48D"/>
<path d="M163.66 279.339C163.806 280.072 164.465 280.585 165.27 280.439L172.809 279.192C173.541 279.046 174.053 278.386 173.907 277.579C173.76 276.846 173.102 276.333 172.297 276.479L164.758 277.726C164.026 277.872 163.587 278.606 163.66 279.339Z" fill="#F9B48D"/>
<path d="M169.442 274.867C171.345 276.26 171.784 278.899 170.466 280.879C169.076 282.785 166.441 283.225 164.465 281.905C162.562 280.512 162.122 277.873 163.44 275.893C164.831 273.913 167.539 273.474 169.442 274.867Z" fill="#F9B48D"/>
<path d="M194.4 264.529C196.011 263.136 196.23 260.716 194.84 259.103L187.959 250.452C186.715 248.986 184.592 248.839 183.202 250.012L182.47 250.599C181.006 251.845 180.86 253.971 182.031 255.364L188.911 264.016C190.302 265.702 192.717 265.922 194.4 264.529Z" fill="#3DA2FF"/>
<path d="M198.719 269.734C199.963 268.634 200.11 266.801 199.085 265.482L194.986 260.423C194.035 259.323 192.351 259.176 191.253 260.13L190.741 260.569C189.643 261.523 189.497 263.209 190.448 264.309L194.547 269.368C195.572 270.687 197.475 270.834 198.719 269.734Z" fill="#F9B48D"/>
<path d="M198.938 265.335C200.11 266.435 200.183 268.268 199.085 269.441L189.57 279.705C188.472 280.878 186.569 280.952 185.398 279.852C184.227 278.752 184.153 276.846 185.251 275.673L194.693 265.482C195.938 264.235 197.767 264.162 198.938 265.335Z" fill="#F9B48D"/>
<path d="M190.521 276.186C190.375 276.919 189.716 277.433 188.911 277.286L181.372 276.04C180.64 275.893 180.128 275.233 180.274 274.427C180.42 273.693 181.079 273.18 181.884 273.327L189.423 274.573C190.082 274.72 190.594 275.453 190.521 276.186Z" fill="#F9B48D"/>
<path d="M188.252 279.339C188.106 280.072 187.447 280.585 186.642 280.439L179.103 279.192C178.371 279.046 177.859 278.386 178.005 277.579C178.151 276.846 178.81 276.333 179.615 276.479L187.154 277.726C187.886 277.872 188.398 278.606 188.252 279.339Z" fill="#F9B48D"/>
<path d="M182.47 274.866C180.567 276.259 180.128 278.899 181.445 280.878C182.836 282.785 185.471 283.225 187.447 281.905C189.35 280.512 189.789 277.872 188.472 275.893C187.081 273.913 184.446 273.473 182.47 274.866Z" fill="#F9B48D"/>
<path d="M186.789 287.477H165.124L163.879 250.818C163.879 246.566 188.033 246.566 188.033 250.818L186.789 287.477Z" fill="#3DA2FF"/>
<path d="M175.956 250.452V269.368" stroke="#0171FE" stroke-width="0.3118" stroke-miterlimit="10"/>
<path d="M176.688 253.238C176.688 253.678 176.322 253.971 175.956 253.971C175.59 253.971 175.224 253.604 175.224 253.238C175.224 252.871 175.59 252.505 175.956 252.505C176.322 252.505 176.688 252.871 176.688 253.238Z" fill="#FACB53"/>
<path d="M176.688 261.376C176.688 261.816 176.322 262.109 175.956 262.109C175.59 262.109 175.224 261.743 175.224 261.376C175.224 260.936 175.59 260.643 175.956 260.643C176.322 260.643 176.688 260.936 176.688 261.376Z" fill="#FACB53"/>
<path d="M179.616 249.279H172.296V247.079C172.296 246.786 172.589 246.493 172.882 246.493H179.03C179.323 246.493 179.616 246.786 179.616 247.079V249.279Z" fill="#E2E2E2"/>
<path d="M178.298 240.261H173.687V250.232H178.298V240.261Z" fill="#F9B48D"/>
<path d="M187.52 238.061C187.52 239.527 186.349 240.774 184.812 240.774C183.348 240.774 182.104 239.601 182.104 238.061C182.104 236.595 183.275 235.348 184.812 235.348C186.276 235.348 187.52 236.521 187.52 238.061Z" fill="#F9B48D"/>
<path d="M169.807 238.061C169.807 239.527 168.636 240.774 167.099 240.774C165.635 240.774 164.391 239.601 164.391 238.061C164.391 236.595 165.562 235.348 167.099 235.348C168.636 235.348 169.807 236.521 169.807 238.061Z" fill="#F9B48D"/>
<path d="M175.956 246.199C180.859 246.199 184.812 242.9 184.812 238.061V233.075C184.812 228.163 180.859 224.204 175.956 224.204C171.052 224.204 167.099 228.163 167.099 233.075V238.061C167.099 242.9 171.052 246.199 175.956 246.199Z" fill="#F9B48D"/>
<path d="M180.567 219.878H175.37C175.077 219.878 174.784 219.878 174.492 219.952L175.37 218.852C170.539 218.852 168.636 222.445 168.124 226.037C167.099 227.357 166.44 229.043 166.44 230.876V234.689C166.44 235.348 166.66 235.862 167.099 236.302V233.076C167.099 232.636 167.099 232.196 167.172 231.829C167.538 231.243 168.197 230.803 169.002 230.803C169.295 230.803 169.588 230.876 169.807 230.949V228.75C172.589 229.043 177.932 229.19 182.031 228.97V230.949C182.25 230.876 182.543 230.803 182.836 230.803C183.641 230.803 184.3 231.243 184.666 231.829C184.739 232.269 184.739 232.636 184.739 233.076V236.302C185.105 235.862 185.397 235.275 185.397 234.689V230.876C185.397 230.143 185.324 229.41 185.105 228.75C186.495 228.603 187.374 228.383 187.374 228.163V227.21C187.447 223.178 184.373 219.878 180.567 219.878Z" fill="#001056"/>
<path d="M173.614 251.258C172.882 251.258 172.296 250.672 172.296 249.939V246.933C172.296 246.639 172.516 246.493 172.736 246.493H172.809C173.98 246.493 174.858 247.446 174.858 248.546V250.012C174.931 250.745 174.346 251.258 173.614 251.258Z" fill="#FEFDFE"/>
<path d="M178.298 251.258C179.03 251.258 179.616 250.672 179.616 249.939V246.933C179.616 246.639 179.396 246.493 179.177 246.493H179.104C177.933 246.493 177.054 247.446 177.054 248.546V250.012C177.054 250.745 177.64 251.258 178.298 251.258Z" fill="#FEFDFE"/>
<path d="M188.619 287.844H163.806C162.928 287.844 162.269 287.184 162.269 286.304C162.269 285.425 162.928 284.765 163.806 284.765H188.619C189.497 284.765 190.156 285.425 190.156 286.304C190.156 287.111 189.424 287.844 188.619 287.844Z" fill="#BCBBB8"/>
<path d="M187.521 285.498H164.904C163.733 285.498 162.708 284.691 162.489 283.518L159.854 269.661C159.561 268.048 160.805 266.582 162.416 266.582H189.936C191.547 266.582 192.791 268.048 192.498 269.661L189.863 283.518C189.717 284.618 188.692 285.498 187.521 285.498Z" fill="#D3D3D3"/>
<path d="M178.298 276.406C178.298 277.433 177.347 278.239 176.176 278.239C175.005 278.239 174.053 277.433 174.053 276.406C174.053 275.38 175.005 274.573 176.176 274.573C177.347 274.573 178.298 275.453 178.298 276.406Z" fill="#FEFDFE"/>
<path d="M109.497 238.281H89.0757V253.605H109.497V238.281Z" fill="#001056"/>
<path d="M92.7358 297.814L93.1018 279.852C93.1018 278.165 91.7843 276.846 90.174 276.846C88.5638 276.846 87.1731 278.165 87.1731 279.778L86.8071 297.741C86.8071 299.427 88.1246 300.747 89.7349 300.747C91.3451 300.82 92.7358 299.501 92.7358 297.814Z" fill="#F2994A"/>
<path d="M89.8808 235.641L86.0016 265.555C85.6356 268.268 87.5387 270.76 90.2468 271.127C92.9549 271.494 95.4435 269.587 95.8094 266.875L99.6887 236.961C100.055 234.248 98.1516 231.756 95.4435 231.389C92.7353 230.949 90.2468 232.855 89.8808 235.641Z" fill="#001056"/>
<path d="M85.8557 266.801L84.9774 290.556C84.831 293.342 86.9536 295.615 89.6617 295.762C92.3699 295.908 94.712 293.782 94.7852 290.996L95.6635 267.241C95.8099 264.455 93.6873 262.182 90.9792 262.036C88.271 261.889 85.9289 264.015 85.8557 266.801Z" fill="#001056"/>
<path d="M94.5654 303.093H74.3642C74.1446 301.627 75.1693 300.307 76.56 300.16L91.1986 298.108C91.2718 298.108 91.345 298.108 91.4913 298.108C93.1016 298.034 94.4923 299.427 94.5654 301.04V303.093Z" fill="#001056"/>
<path d="M93.2481 299.354H83.6598C83.5134 298.621 84.0989 297.888 84.8309 297.741L92.5894 296.641C93.3213 296.568 94.0532 297.008 94.346 297.741C94.5656 298.548 94.0532 299.354 93.2481 299.354Z" fill="#001056"/>
<path d="M80.0731 298.034C81.0978 298.547 81.7565 299.207 81.6101 299.574C81.4638 299.94 80.5122 299.867 79.4875 299.354C78.4628 298.841 77.8041 298.181 77.9505 297.814C78.0969 297.448 79.1216 297.521 80.0731 298.034Z" stroke="#3DA2FF" stroke-width="0.4838" stroke-miterlimit="10"/>
<path d="M83.2203 298.181C82.8543 299.061 82.2688 299.647 81.9028 299.501C81.61 299.354 81.6832 298.548 82.0492 297.668C82.4152 296.788 83.0007 296.202 83.3667 296.348C83.7327 296.421 83.6595 297.301 83.2203 298.181Z" stroke="#3DA2FF" stroke-width="0.4838" stroke-miterlimit="10"/>
<path d="M109.277 299.501L106.715 281.758C106.495 280.145 107.666 278.605 109.277 278.385C110.887 278.165 112.424 279.339 112.644 280.952L115.205 298.694C115.425 300.307 114.254 301.847 112.644 302.067C111.033 302.287 109.496 301.187 109.277 299.501Z" fill="#F2994A"/>
<path d="M108.545 235.641L115.791 289.896C116.157 292.609 114.254 295.102 111.546 295.468C108.838 295.835 106.349 293.929 105.983 291.216L98.737 236.961C98.371 234.248 100.274 231.756 102.982 231.389C105.617 230.949 108.179 232.855 108.545 235.641Z" fill="#001056"/>
<path d="M106.642 303.093H127.063C127.283 301.627 126.258 300.307 124.867 300.16L110.082 298.108C110.009 298.108 109.936 298.108 109.789 298.108C108.106 298.034 106.788 299.427 106.715 301.04L106.642 303.093Z" fill="#001056"/>
<path d="M107.959 299.354H117.621C117.767 298.621 117.182 297.888 116.45 297.741L108.545 296.641C107.74 296.568 107.008 297.008 106.788 297.741C106.569 298.548 107.154 299.354 107.959 299.354Z" fill="#001056"/>
<path d="M121.281 298.034C120.256 298.547 119.597 299.207 119.743 299.574C119.89 299.94 120.915 299.867 121.939 299.354C122.964 298.841 123.623 298.181 123.476 297.814C123.257 297.448 122.305 297.521 121.281 298.034Z" stroke="#3DA2FF" stroke-width="0.4865" stroke-miterlimit="10"/>
<path d="M118.06 298.181C118.499 299.061 119.085 299.647 119.377 299.501C119.67 299.354 119.597 298.548 119.231 297.668C118.792 296.788 118.206 296.202 117.914 296.348C117.621 296.421 117.694 297.301 118.06 298.181Z" stroke="#3DA2FF" stroke-width="0.4865" stroke-miterlimit="10"/>
<path d="M106.716 239.601H88.7833L87.5391 202.942C87.5391 198.69 107.96 198.69 107.96 202.942L106.716 239.601Z" fill="#FF63BE"/>
<path d="M88.5635 243.266V229.263H95.8828V235.935C95.8828 240.04 92.5891 243.266 88.5635 243.266Z" fill="#FF63BE"/>
<path d="M101.446 243.633H107.228V218.412H94.0532V236.228C94.0532 240.334 97.3469 243.633 101.446 243.633Z" fill="#FF63BE"/>
<path d="M118.426 219.805C120.256 218.265 120.476 215.553 118.866 213.72L108.984 201.402C107.594 199.79 105.252 199.643 103.641 200.963L102.836 201.622C101.226 203.015 101.08 205.362 102.397 206.975L112.278 219.292C113.888 221.125 116.597 221.345 118.426 219.805Z" fill="#FF63BE"/>
<path d="M114.767 220.025C116.45 220.685 117.255 222.518 116.67 224.205L111.253 238.721C110.595 240.408 108.691 241.214 107.008 240.628C105.325 239.968 104.519 238.061 105.105 236.375L110.521 221.858C111.18 220.245 113.083 219.366 114.767 220.025Z" fill="#FF63BE"/>
<path d="M110.668 234.762C110.887 235.569 110.375 236.375 109.497 236.595L101.226 238.501C100.421 238.721 99.6155 238.208 99.3959 237.328C99.1764 236.522 99.6887 235.715 100.567 235.495L108.838 233.589C109.643 233.443 110.448 233.956 110.668 234.762Z" fill="#FF63BE"/>
<path d="M109.716 239.015C109.936 239.821 109.424 240.628 108.545 240.848L100.275 242.754C99.4695 242.974 98.6643 242.461 98.4448 241.581C98.2252 240.774 98.7375 239.968 99.6159 239.748L107.887 237.842C108.692 237.622 109.497 238.135 109.716 239.015Z" fill="#FF63BE"/>
<path d="M101.885 236.815C100.494 239.014 101.153 242.02 103.349 243.414C105.545 244.807 108.545 244.147 109.936 241.947C111.327 239.748 110.668 236.742 108.472 235.349C106.203 233.882 103.276 234.542 101.885 236.815Z" fill="#FF63BE"/>
<path d="M108.106 235.569C110.302 236.448 112.864 235.349 113.669 233.149L119.817 218.632C120.549 216.653 119.598 214.453 117.695 213.72L116.743 213.353C114.767 212.62 112.571 213.573 111.839 215.48L105.691 229.996C104.813 232.123 105.91 234.689 108.106 235.569Z" fill="#FF63BE"/>
<path d="M113.962 235.055L112.791 237.695C112.352 238.575 111.254 238.868 110.449 238.428L104.227 235.202C103.349 234.762 103.056 233.736 103.495 232.856L104.666 230.217C105.105 229.337 106.13 229.043 107.008 229.483L113.23 232.709C114.035 233.149 114.401 234.176 113.962 235.055Z" fill="#FF63BE"/>
<path d="M87.6119 202.942C86.9532 203.236 86.2945 203.749 85.9285 204.482L77.5113 217.826C76.267 219.879 76.999 222.518 79.0484 223.765C81.0978 225.011 83.7327 224.278 84.977 222.225L88.1243 217.239L87.6119 202.942Z" fill="#FF63BE"/>
<path d="M76.9993 218.706C76.3406 220.172 74.6572 220.832 73.1201 220.172L60.3113 214.6C58.8475 213.94 58.1887 212.18 58.8475 210.714C59.5062 209.248 61.2628 208.588 62.7267 209.248L75.4623 214.82C76.9993 215.48 77.6581 217.239 76.9993 218.706Z" fill="#DC7A63"/>
<path d="M62.2141 211.52C62.2141 212.473 61.4822 213.207 60.5307 213.207H51.162C50.2104 213.207 49.4785 212.473 49.4785 211.52C49.4785 210.567 50.2104 209.834 51.162 209.834H60.5307C61.4822 209.834 62.2141 210.567 62.2141 211.52Z" fill="#DC7A63"/>
<path d="M62.6538 212.547C61.7755 214.746 62.8734 217.313 65.0692 218.119L79.5614 224.278C81.5376 225.011 83.7334 224.058 84.4653 222.152L84.8313 221.198C85.5632 219.219 84.6117 217.019 82.7087 216.286L68.2165 210.128C66.0207 209.174 63.5321 210.274 62.6538 212.547Z" fill="#FF63BE"/>
<path d="M62.4341 209.468V208.514L63.0196 208.001L62.9464 208.881L62.4341 209.468Z" fill="#001056"/>
<path d="M62.9465 208.881C62.9465 209.394 62.5073 209.834 61.995 209.834L47.4295 209.394C46.9172 209.394 46.478 208.954 46.478 208.441C46.478 207.928 46.9172 207.488 47.4295 207.488L62.9465 207.928V208.881Z" fill="#001056"/>
<path d="M41.0615 192.165L48.7468 208.515L47.3561 209.101L39.5977 192.751L41.0615 192.165Z" fill="#001056"/>
<path d="M51.4549 208.515L43.6965 192.165H41.0615L48.7468 208.515H51.4549Z" fill="#001056"/>
<path d="M49.0396 208.074L41.7935 192.604H43.4037L50.723 208.074H49.0396Z" fill="#3DA2FF"/>
<path d="M62.4338 209.468C62.4338 209.981 61.9946 210.421 61.4823 210.421L46.9168 209.981C46.4045 209.981 45.9653 209.541 45.9653 209.028C45.9653 208.515 46.4045 208.075 46.9168 208.075L62.4338 208.515V209.468Z" fill="#001056"/>
<path d="M63.1663 218.339L60.5314 217.166C59.653 216.726 59.3603 215.699 59.7994 214.82L63.0199 208.588C63.4591 207.708 64.557 207.415 65.3621 207.854L67.9971 209.028C68.8754 209.467 69.1681 210.567 68.729 211.374L65.5085 217.606C65.0693 218.485 63.9714 218.779 63.1663 218.339Z" fill="#FF63BE"/>
<path d="M96.4693 203.162C94.859 203.162 93.6147 201.842 93.6147 200.303V190.698H99.3238V200.303C99.3238 201.916 98.0795 203.162 96.4693 203.162Z" fill="#F9B48D"/>
<path d="M89.3688 197.956H99.3962V181.167C99.3962 177.647 96.5417 174.788 93.0285 174.788H90.1007C84.9772 174.788 80.8052 178.967 80.8052 184.099V189.378C80.732 194.071 84.6113 197.956 89.3688 197.956Z" fill="#F9B48D"/>
<path d="M84.5386 190.552C84.5386 192.092 83.2944 193.411 81.6841 193.411C80.1471 193.411 78.8296 192.165 78.8296 190.552C78.8296 189.012 80.0739 187.693 81.6841 187.693C83.2944 187.693 84.5386 189.012 84.5386 190.552Z" fill="#F9B48D"/>
<path d="M96.6882 187.252C96.6882 189.159 95.1511 190.772 93.1749 190.772C91.2719 190.772 89.6616 189.232 89.6616 187.252C89.6616 185.346 91.1987 183.733 93.1749 183.733C95.0779 183.733 96.6882 185.273 96.6882 187.252Z" fill="#F9B48D"/>
<path d="M92.0039 179.26H79.7075C77.6581 179.26 76.0479 177.647 76.0479 175.595C76.0479 173.542 77.6581 171.929 79.7075 171.929H92.0039C94.0533 171.929 95.6635 173.542 95.6635 175.595C95.6635 177.647 93.9801 179.26 92.0039 179.26Z" fill="#001056"/>
<path d="M86.8075 173.029C86.8075 176.475 84.0261 179.334 80.5129 179.334C76.9996 179.334 74.2183 176.548 74.2183 173.029C74.2183 169.583 76.9996 166.723 80.5129 166.723C84.0261 166.723 86.8075 169.509 86.8075 173.029Z" fill="#001056"/>
<path d="M99.982 189.525C99.982 188.205 98.8842 187.106 97.5667 187.106H96.6152V187.179C96.6152 188.352 96.0296 189.452 95.0781 190.112V190.845C95.0781 192.165 96.176 193.264 97.4935 193.264H99.982V189.525Z" fill="#001056"/>
<path d="M101.153 182.414C101.153 177.208 96.9079 172.956 91.7113 172.956H87.832V180.361C87.832 182.56 88.6372 184.613 89.8814 186.226C90.3206 184.833 91.6381 183.733 93.2483 183.733C95.1513 183.733 96.7616 185.273 96.7616 187.252C96.7616 188.206 96.3956 189.085 95.81 189.672C96.3224 189.745 96.8348 189.819 97.4203 189.819H98.445C100.055 189.819 101.3 188.499 101.3 186.959L101.153 182.414Z" fill="#001056"/>
<path d="M94.6391 204.555H98.5916C99.6163 204.555 100.495 203.675 100.495 202.649V198.69C100.495 197.737 99.7626 197.003 98.8111 197.003H97.8596C96.0298 197.003 94.5659 198.47 94.5659 200.303L94.6391 204.555C94.6391 204.482 94.6391 204.555 94.6391 204.555Z" fill="#FF63BE"/>
<path d="M252.663 238.208H234.877V253.532H252.663V238.208Z" fill="#001056"/>
<path d="M281.793 287.917L268.545 275.82C267.301 274.72 265.398 274.793 264.3 276.04C263.202 277.286 263.348 279.119 264.592 280.219L277.84 292.316C279.085 293.416 280.988 293.343 282.086 292.096C283.183 290.923 283.037 289.017 281.793 287.917Z" fill="#FEFDFE"/>
<path d="M243.074 242.021L252.589 270.614C253.467 273.254 256.249 274.647 258.811 273.84C261.372 272.96 262.763 270.174 261.958 267.535L252.443 238.941C251.564 236.302 248.783 234.909 246.221 235.715C243.586 236.595 242.196 239.381 243.074 242.021Z" fill="#001056"/>
<path d="M253.907 272.74L271.253 289.017C273.23 290.923 276.377 290.85 278.28 288.87C280.183 286.891 280.11 283.738 278.06 281.832L260.714 265.555C258.737 263.649 255.59 263.722 253.687 265.702C251.784 267.681 251.93 270.834 253.907 272.74Z" fill="#001056"/>
<path d="M287.283 290.484L273.23 305C272.058 304.121 271.766 302.508 272.644 301.335L281.354 289.384C281.427 289.311 281.5 289.237 281.5 289.164C282.598 287.918 284.501 287.918 285.745 289.017L287.283 290.484Z" fill="#001056"/>
<path d="M283.696 288.797L277.035 295.689C276.377 295.249 276.303 294.369 276.743 293.783L281.354 287.404C281.793 286.744 282.671 286.598 283.33 286.891C284.062 287.257 284.208 288.211 283.696 288.797Z" fill="#001056"/>
<path d="M273.596 297.302C274.62 296.935 275.645 296.862 275.791 297.302C275.938 297.668 275.206 298.328 274.181 298.695C273.157 299.061 272.132 299.135 271.985 298.695C271.839 298.328 272.571 297.668 273.596 297.302Z" stroke="#3DA2FF" stroke-width="0.4838" stroke-miterlimit="10"/>
<path d="M275.865 295.176C276.231 296.056 276.231 296.935 275.938 297.009C275.645 297.155 275.06 296.496 274.694 295.616C274.328 294.736 274.328 293.856 274.62 293.783C274.986 293.636 275.572 294.223 275.865 295.176Z" stroke="#3DA2FF" stroke-width="0.4838" stroke-miterlimit="10"/>
<path d="M234.73 299.429L237.292 281.686C237.511 280.073 236.34 278.533 234.73 278.313C233.12 278.093 231.583 279.266 231.363 280.879L228.801 298.622C228.582 300.235 229.753 301.775 231.363 301.995C232.973 302.215 234.51 301.042 234.73 299.429Z" fill="#FEFDFE"/>
<path d="M235.535 235.496L228.289 289.75C227.923 292.463 229.826 294.956 232.534 295.323C235.243 295.689 237.731 293.783 238.097 291.07L245.343 236.815C245.709 234.103 243.806 231.61 241.098 231.243C238.39 230.877 235.901 232.783 235.535 235.496Z" fill="#001056"/>
<path d="M237.365 303.021H216.944C216.725 301.554 217.749 300.235 219.14 300.088L233.925 298.035C233.998 298.035 234.071 298.035 234.218 298.035C235.901 297.962 237.219 299.355 237.292 300.968L237.365 303.021Z" fill="#001056"/>
<path d="M236.048 299.208H226.386C226.24 298.475 226.826 297.742 227.557 297.595L235.462 296.495C236.268 296.422 236.999 296.862 237.219 297.595C237.439 298.402 236.853 299.208 236.048 299.208Z" fill="#001056"/>
<path d="M222.8 297.889C223.824 298.402 224.483 299.062 224.337 299.429C224.19 299.795 223.166 299.722 222.141 299.209C221.116 298.695 220.457 298.036 220.604 297.669C220.75 297.302 221.775 297.449 222.8 297.889Z" stroke="#3DA2FF" stroke-width="0.4865" stroke-miterlimit="10"/>
<path d="M225.947 298.035C225.508 298.915 224.922 299.502 224.629 299.355C224.337 299.208 224.41 298.402 224.776 297.522C225.215 296.642 225.8 296.056 226.093 296.202C226.386 296.349 226.313 297.156 225.947 298.035Z" stroke="#3DA2FF" stroke-width="0.4865" stroke-miterlimit="10"/>
<path d="M241.318 223.398C243.44 222.664 244.685 220.392 243.953 218.192L239.781 203.749C239.195 201.842 237.146 200.816 235.243 201.402L234.291 201.696C232.388 202.282 231.364 204.335 231.949 206.241L236.121 220.685C236.78 222.958 239.122 224.131 241.318 223.398Z" fill="#FF63BE"/>
<path d="M253.248 240.994H234.657L233.34 202.942C233.34 198.543 254.493 198.543 254.493 202.942L253.248 240.994Z" fill="#FF63BE"/>
<path d="M234.072 245.32L235.097 228.604L242.123 229.85V237.182C242.123 241.727 238.537 245.32 234.072 245.32Z" fill="#FF63BE"/>
<path d="M249.881 246.346H256.249L253.321 229.117L241.757 218.559V238.208C241.757 242.68 245.416 246.346 249.881 246.346Z" fill="#FF63BE"/>
<path d="M255.81 205.655C255.81 208.807 253.248 211.3 250.174 211.3C247.027 211.3 244.538 208.734 244.538 205.655C244.538 202.502 247.1 200.009 250.174 200.009C253.248 199.936 255.81 202.502 255.81 205.655Z" fill="#FF63BE"/>
<path d="M241.538 199.643V197.37C241.538 197.077 241.245 196.784 240.952 196.784H240.879C239.488 196.784 238.317 197.957 238.317 199.35V200.01C239.269 199.863 240.367 199.716 241.538 199.643Z" fill="#D38E20"/>
<path d="M242.27 203.089C240.659 203.089 239.415 201.769 239.415 200.23V190.625H245.124V200.23C245.124 201.843 243.88 203.089 242.27 203.089Z" fill="#F9B48D"/>
<path d="M235.17 197.811H245.198V181.021C245.198 177.502 242.343 174.642 238.83 174.642H235.902C230.779 174.642 226.606 178.821 226.606 183.954V189.232C226.533 193.998 230.413 197.811 235.17 197.811Z" fill="#F9B48D"/>
<path d="M239.781 174.642C239.781 179.114 236.195 182.707 231.73 182.707C227.265 182.707 223.679 179.114 223.679 174.642C223.679 170.17 227.265 166.577 231.73 166.577C236.195 166.65 239.781 170.243 239.781 174.642Z" fill="#001056"/>
<path d="M245.783 189.452C245.783 188.132 244.685 187.032 243.368 187.032H242.416V187.106C242.416 188.279 241.831 189.379 240.879 190.038V190.772C240.879 192.091 241.977 193.191 243.295 193.191H245.783V189.452Z" fill="#001056"/>
<path d="M246.954 182.341C246.954 177.135 242.709 172.883 237.513 172.883H233.633V180.288C233.633 182.487 234.438 184.54 235.683 186.153C235.756 186.007 235.829 185.86 235.902 185.713C235.902 185.713 235.902 185.64 235.975 185.64C236.049 185.493 236.122 185.347 236.195 185.2C236.195 185.2 236.195 185.127 236.268 185.127C236.341 184.98 236.488 184.907 236.561 184.76C236.561 184.76 236.561 184.76 236.634 184.687C236.781 184.54 236.854 184.467 237 184.394L237.073 184.32C237.22 184.247 237.366 184.1 237.513 184.027C237.513 184.027 237.513 184.027 237.586 184.027C237.732 183.954 237.878 183.88 238.025 183.88H238.098C238.244 183.807 238.391 183.807 238.537 183.734H238.61C238.757 183.734 238.976 183.66 239.123 183.66C239.782 183.66 240.44 183.88 240.953 184.174C241.977 184.76 242.636 185.86 242.636 187.18C242.636 187.326 242.636 187.4 242.636 187.546C242.636 187.62 242.636 187.693 242.636 187.766C242.636 187.84 242.636 187.84 242.636 187.913C242.636 187.986 242.563 188.06 242.563 188.133V188.206C242.563 188.279 242.49 188.426 242.49 188.499C242.49 188.499 242.49 188.499 242.49 188.573C242.416 188.646 242.416 188.793 242.343 188.866C242.197 189.159 241.977 189.453 241.758 189.673C242.27 189.746 242.782 189.819 243.368 189.819H244.393C246.003 189.819 247.247 188.499 247.247 186.96L246.954 182.341Z" fill="#001056"/>
<path d="M240.806 171.416C236.341 171.416 232.755 175.009 232.755 179.481C232.755 181.974 233.926 184.247 235.756 185.713C236.341 184.467 237.512 183.66 238.903 183.66C240.806 183.66 242.416 185.2 242.416 187.18C242.416 187.253 242.416 187.326 242.416 187.4C246.076 186.666 248.784 183.44 248.784 179.555C248.857 175.009 245.271 171.416 240.806 171.416Z" fill="#001056"/>
<path d="M240.44 204.409H244.392C245.417 204.409 246.295 203.529 246.295 202.503V198.543C246.295 197.59 245.563 196.857 244.612 196.857H243.66C241.831 196.857 240.367 198.324 240.367 200.156L240.44 204.409Z" fill="#FF63BE"/>
<path d="M215.993 202.943C214.529 204.996 214.968 207.782 216.945 209.321L230.046 219.512C231.803 220.832 234.365 220.465 235.609 218.633L236.268 217.753C237.585 215.993 237.219 213.427 235.389 212.181L222.288 201.99C220.311 200.45 217.457 200.89 215.993 202.943Z" fill="#FF63BE"/>
<path d="M213.654 186.226L214.679 186.08C214.825 186.08 214.972 186.153 215.045 186.373L216.655 197.15C216.655 197.37 216.582 197.59 216.436 197.664L214.679 198.397L213.215 198.617L211.605 187.473C211.605 187.253 211.678 187.106 211.825 187.033L213.508 186.373C213.435 186.3 213.508 186.3 213.654 186.226Z" fill="#EAAB35"/>
<path d="M215.627 197.664L216.213 197.59C216.432 197.59 216.579 197.37 216.579 197.077L214.968 186.373C214.968 186.226 214.749 186.08 214.602 186.08L213.797 186.226C213.651 186.226 213.504 186.446 213.504 186.593L215.115 197.297C215.115 197.59 215.334 197.737 215.627 197.664Z" fill="#F2994A"/>
<path d="M215.115 197.371L213.578 186.813C213.504 186.52 213.285 186.373 213.065 186.446L211.748 186.96C211.601 187.033 211.455 187.253 211.528 187.473L213.065 198.031C213.138 198.324 213.358 198.47 213.578 198.397L214.895 197.884C215.041 197.811 215.115 197.591 215.115 197.371Z" fill="#F2994A"/>
<path d="M212.48 190.699C212.626 191.432 212.846 191.799 212.992 191.579C213.139 191.359 213.139 190.626 212.992 189.892C212.846 189.159 212.626 188.793 212.48 189.013C212.334 189.233 212.334 190.039 212.48 190.699Z" fill="#F7F4F5"/>
<path d="M214.602 187.179C214.602 187.252 214.529 187.399 214.456 187.399C214.383 187.399 214.236 187.326 214.236 187.252C214.236 187.179 214.31 187.033 214.383 187.033C214.529 187.033 214.602 187.106 214.602 187.179Z" fill="#F7F4F5"/>
<path d="M214.676 187.692C214.676 187.765 214.602 187.912 214.529 187.912C214.456 187.912 214.31 187.839 214.31 187.765C214.31 187.692 214.383 187.545 214.456 187.545C214.602 187.545 214.676 187.619 214.676 187.692Z" fill="#F7F4F5"/>
<path d="M214.749 189.451C214.676 189.451 214.602 189.378 214.602 189.378L214.456 188.352C214.456 188.279 214.529 188.206 214.529 188.206C214.602 188.206 214.676 188.279 214.676 188.279L214.822 189.305C214.895 189.378 214.822 189.451 214.749 189.451Z" fill="#F7F4F5"/>
<path d="M228.875 213.06C227.777 214.38 225.874 214.6 224.556 213.573L213.065 204.409C211.747 203.309 211.528 201.403 212.626 200.083C213.724 198.763 215.627 198.543 216.944 199.643L228.436 208.734C229.753 209.761 229.973 211.74 228.875 213.06Z" fill="#F9B48D"/>
<path d="M217.53 203.383C216.798 203.529 216.066 203.016 215.92 202.21L214.676 194.585C214.529 193.852 215.042 193.118 215.847 192.972C216.579 192.825 217.311 193.338 217.457 194.145L218.701 201.77C218.775 202.576 218.262 203.31 217.53 203.383Z" fill="#F9B48D"/>
<path d="M213.065 200.157C212.334 200.376 211.602 199.937 211.382 199.203L209.259 191.798C209.04 191.065 209.479 190.332 210.211 190.112C210.943 189.892 211.675 190.332 211.894 191.065L214.017 198.47C214.237 199.203 213.797 199.937 213.065 200.157Z" fill="#F9B48D"/>
<path d="M216.286 195.391C214.383 193.998 211.674 194.438 210.284 196.344C208.893 198.25 209.332 200.963 211.235 202.356C213.138 203.749 215.846 203.309 217.237 201.403C218.628 199.423 218.189 196.784 216.286 195.391Z" fill="#F9B48D"/>
<path d="M215.993 203.749C214.749 205.508 215.115 207.928 216.798 209.174L227.997 217.899C229.534 218.999 231.657 218.705 232.755 217.166L233.34 216.432C234.438 214.893 234.145 212.767 232.608 211.667L221.41 202.942C219.726 201.622 217.311 201.989 215.993 203.749Z" fill="#FF63BE"/>
<path d="M230.486 217.679C231.876 219.805 234.658 220.392 236.78 218.999L250.906 210.274C252.736 209.028 253.249 206.608 252.078 204.702L251.492 203.822C250.248 201.989 247.832 201.476 245.929 202.649L231.803 211.374C229.754 212.767 229.168 215.553 230.486 217.679Z" fill="#FF63BE"/>
<path d="M234.072 221.858L226.533 232.563C225.289 234.469 225.801 237.035 227.704 238.282C229.607 239.528 232.169 239.015 233.413 237.108L234.584 235.422L234.072 221.858Z" fill="#D38E20"/>
<path d="M234.218 225.598C233.486 225.744 232.828 226.111 232.388 226.697L224.63 237.548C223.752 238.795 223.971 240.554 225.215 241.434C226.46 242.314 228.216 242.094 229.095 240.848L234.365 233.443L234.218 225.598Z" fill="#DC7A63"/>
<path d="M228.07 236.815C228.217 237.475 227.778 238.135 227.119 238.281L220.312 239.748C219.653 239.894 218.994 239.454 218.848 238.794C218.702 238.135 219.141 237.475 219.8 237.328L226.606 235.862C227.265 235.715 227.924 236.155 228.07 236.815Z" fill="#DC7A63"/>
<path d="M225.289 240.994C225.508 241.654 225.142 242.387 224.484 242.607L217.896 244.88C217.238 245.1 216.506 244.734 216.286 244.074C216.066 243.414 216.432 242.681 217.091 242.461L223.679 240.188C224.337 240.041 225.069 240.335 225.289 240.994Z" fill="#DC7A63"/>
<path d="M220.824 238.281C219.653 240.114 220.165 242.46 221.922 243.707C223.751 244.88 226.094 244.367 227.338 242.607C228.509 240.774 227.997 238.428 226.24 237.182C224.41 236.008 221.995 236.522 220.824 238.281Z" fill="#DC7A63"/>
<path d="M234.145 223.765L227.411 233.296C226.313 234.909 226.752 237.109 228.363 238.208C229.973 239.308 232.169 238.868 233.267 237.255L234.511 235.496L234.145 223.765Z" fill="#FF63BE"/>
<path d="M20.8597 149.641H19.4691C19.1763 147.808 17.6392 146.488 15.7362 146.488C15.4434 146.488 15.1507 146.561 14.8579 146.561C13.9064 144.948 12.1498 143.775 10.1735 143.775C7.17263 143.775 4.83045 146.195 4.83045 149.127C4.83045 149.274 4.83045 149.421 4.83045 149.567H4.3181C2.48827 149.567 1.02441 151.034 1.02441 152.866C1.02441 154.699 2.48827 156.166 4.3181 156.166H20.8597C22.6895 156.166 24.1534 154.699 24.1534 152.866C24.0802 151.107 22.6164 149.641 20.8597 149.641Z" fill="#F2994A"/>
<path d="M306.532 81.7487H305.141C304.849 79.9158 303.312 78.596 301.409 78.596C301.116 78.596 300.823 78.6694 300.53 78.6694C299.579 77.0564 297.822 75.8833 295.846 75.8833C292.845 75.8833 290.503 78.3028 290.503 81.2355C290.503 81.3821 290.503 81.5287 290.503 81.6754H290.064C288.234 81.6754 286.77 83.1417 286.77 84.9746C286.77 86.8076 288.234 88.2739 290.064 88.2739H306.605C308.435 88.2739 309.899 86.8076 309.899 84.9746C309.826 83.215 308.362 81.7487 306.532 81.7487Z" fill="#F2994A"/>
<path d="M305.947 185.273H304.483C304.19 183.44 302.653 182.12 300.75 182.12C300.457 182.12 300.164 182.194 299.872 182.194C298.92 180.581 297.163 179.407 295.187 179.407C292.186 179.407 289.844 181.827 289.844 184.76C289.844 184.906 289.844 185.053 289.844 185.2H289.405C287.575 185.2 286.111 186.666 286.111 188.499C286.111 190.332 287.575 191.798 289.405 191.798H305.947C307.776 191.798 309.24 190.332 309.24 188.499C309.24 186.739 307.776 185.273 305.947 185.273Z" fill="#F2994A"/>
<path d="M281.866 129.405H279.158C278.646 126.032 275.645 123.393 272.131 123.393C271.546 123.393 271.034 123.466 270.448 123.613C268.691 120.533 265.398 118.407 261.592 118.407C256.029 118.407 251.491 122.953 251.491 128.525C251.491 128.818 251.491 129.112 251.564 129.405H250.686C247.246 129.405 244.538 132.191 244.538 135.563C244.538 139.009 247.319 141.722 250.686 141.722H281.866C285.306 141.722 288.014 138.936 288.014 135.563C288.088 132.191 285.306 129.405 281.866 129.405Z" stroke="#F2994A" stroke-width="0.5" stroke-miterlimit="10"/>
<path d="M266.496 22.5818H263.788C263.275 19.2092 260.275 16.5698 256.761 16.5698C256.176 16.5698 255.663 16.6431 255.078 16.7898C253.321 13.7104 250.027 11.5842 246.221 11.5842C240.659 11.5842 236.121 16.1299 236.121 21.702C236.121 21.9953 236.121 22.2886 236.194 22.5818H235.316C231.876 22.5818 229.167 25.3679 229.167 28.7405C229.167 32.1864 231.949 34.8991 235.316 34.8991H266.496C269.936 34.8991 272.644 32.1131 272.644 28.7405C272.717 25.3679 269.936 22.5818 266.496 22.5818Z" stroke="#F2994A" stroke-width="0.5" stroke-miterlimit="10"/>
<path d="M37.1089 32.6996H34.7667C34.3276 29.7669 31.7658 27.5674 28.7649 27.5674C28.2525 27.5674 27.8134 27.6407 27.3742 27.7141C25.9104 25.0746 23.0558 23.2417 19.7621 23.2417C14.9314 23.2417 11.0522 27.1275 11.0522 31.9665C11.0522 32.1864 11.0522 32.4797 11.1254 32.6996H10.3934C7.46571 32.6996 5.12354 35.0458 5.12354 37.9785C5.12354 40.9112 7.46571 43.2573 10.3934 43.2573H37.1821C40.1098 43.2573 42.452 40.9112 42.452 37.9785C42.3788 35.0458 40.0366 32.6996 37.1089 32.6996Z" stroke="#F2994A" stroke-width="0.5" stroke-miterlimit="10"/>
</g>
<defs>
<clipPath id="clip0_69_1136">
<rect width="320" height="305" fill="white"/>
</clipPath>
</defs>
</svg>
