<svg width="320" height="237" viewBox="0 0 320 237" fill="none" xmlns="http://www.w3.org/2000/svg">
<path d="M31.152 74.8382C28.113 69.6355 24.6595 60.6676 24.6595 60.6676C24.2451 61.626 23.209 62.7898 21.8967 63.8851C18.9267 65.1858 15.1279 64.9804 12.7105 67.1025C11.2601 68.5401 9.46426 67.7871 7.66846 68.8824C13.6775 70.1146 17.4763 76.5496 21.6895 79.6986C24.6595 86.6812 34.6055 86.7497 34.6055 86.7497L37.5064 87.3658C38.0589 79.8355 31.152 74.8382 31.152 74.8382Z" fill="#2F80ED"/>
<path d="M88.6871 63.9535C87.9273 63.2689 87.2366 62.5843 86.7531 61.9682L88.2727 65.0488L74.7351 86.3388C74.7351 86.3388 74.3897 86.7496 73.9062 87.2288L75.9093 86.818C75.9093 86.818 85.9243 86.7496 88.8252 79.767C93.0384 76.618 96.8372 70.183 102.846 68.9508C101.05 67.8555 99.2547 68.6085 97.8042 67.1709C95.4559 65.0488 91.657 65.2541 88.6871 63.9535Z" fill="#2F80ED"/>
<path d="M103.122 59.7087C99.1158 54.0268 97.8034 60.1195 97.8034 60.1195L98.9086 54.6429C98.9086 54.6429 98.2179 51.1516 95.8004 46.2912C94.2119 43.2106 84.6803 39.0348 77.9806 36.4334C73.2839 35.1327 65.6172 33.4897 65.6172 33.4897L55.3259 36.8441L44.5511 33.4897C44.5511 33.4897 32.4639 36.0911 29.563 37.3918C26.6621 38.624 16.9233 40.4039 13.8152 45.2643C10.7762 50.1248 10.2236 53.6845 10.2236 53.6845C10.2236 53.6845 5.66506 58.7503 2.90229 63.7477C0.83021 67.6497 0.553933 68.1289 0.553933 68.1974C0.415794 68.3343 -0.620245 69.4296 0.553933 71.2095C1.86625 73.1947 0.0704482 77.1652 8.35876 83.8055C13.4008 87.8445 19.4098 88.1183 22.3108 91.5412C24.8663 94.5533 33.5 97.9077 33.9144 98.6607C33.9835 98.7976 33.9835 98.7976 33.9835 98.7976L34.8814 98.5238L36.0555 98.1815C36.1246 98.0446 35.1576 103.521 33.8453 111.051C32.4639 116.665 29.7702 119.472 27.56 130.425C24.3138 146.58 28.8723 152.605 29.0105 156.37C29.2177 160.135 28.6651 164.585 28.6651 165.475C28.6651 165.612 28.0435 167.391 27.3528 169.24C25.2807 172.252 19.8243 182.931 19.9624 188.887C20.1005 193.747 26.0405 217.16 25.9024 222.02C25.7642 227.77 23.2087 230.988 22.3798 231.535C21.551 232.083 18.1666 231.604 17.7522 234.068C17.7522 234.068 20.584 236.807 22.7252 236.327C24.8663 235.848 25.8333 236.191 29.2867 236.875C32.7402 237.56 36.8844 235.301 36.6772 233.315C36.539 232.015 34.1216 228.181 34.1907 224.347C34.2597 221.472 33.8453 221.541 33.1546 219.419C32.0495 216.064 35.572 199.429 39.4399 193.2C43.3769 186.97 41.6501 174.785 41.6501 174.785C41.512 173.416 41.3048 172.252 41.0285 171.225C40.7522 167.802 40.4069 161.367 42.1336 156.917C48.1427 141.378 50.8364 131.657 51.8724 126.454C53.1156 120.019 53.8754 118.924 53.8754 118.924L55.1186 118.445L56.3619 118.924C56.3619 118.924 57.467 121.183 58.2958 126.796C59.2628 133.711 62.8544 143.158 68.1037 156.917C69.416 160.34 69.7613 163.352 69.6923 166.091C68.9325 167.871 68.3799 170.472 68.1727 174.169C68.1727 174.169 66.6532 187.723 70.9355 193.747C75.2178 199.703 79.7764 216.133 78.8785 219.556C78.3259 221.746 77.8424 221.678 78.1187 224.553C78.4641 228.386 76.3229 232.425 76.1848 233.658C76.0466 235.643 80.398 237.628 83.7824 236.738C87.1668 235.848 88.0647 235.438 90.2749 235.848C90.9656 235.985 91.7254 235.711 92.4851 235.369C92.4851 235.301 92.5542 235.232 92.5542 235.164C93.6593 233.178 93.2449 233.178 90.1368 232.494C87.0286 231.809 86.8214 229.003 85.5091 223.937C84.1968 218.871 88.8244 199.087 88.8244 199.087C84.8184 204.358 81.0887 203.674 81.0887 203.674C87.5121 201.688 88.8244 193.542 89.3079 188.955C89.7223 184.369 82.1938 169.65 81.0887 167.871C79.9836 166.091 78.8785 159.108 79.7764 156.644C80.6743 154.248 83.0917 140.419 81.7794 131.794C80.4671 123.237 76.4611 115.09 74.6653 116.186C72.8694 117.281 66.9295 117.692 66.9295 117.692C70.0376 116.802 73.5601 113.721 74.2508 111.12C74.9415 108.45 74.2508 97.9077 74.2508 97.9077L74.389 97.9761L75.5632 98.3184L76.4611 98.5922C76.4611 98.5922 76.4611 98.5238 76.5301 98.4553C76.7373 98.0446 79.0857 97.0177 81.7103 95.6486C84.6803 93.1841 89.3079 89.3506 91.9326 87.6391C95.7314 85.2431 100.359 83.874 104.572 80.5881C108.785 77.3021 108.993 71.3464 109.476 69.8403C109.96 68.4712 107.059 65.3906 103.122 59.7087ZM37.506 87.2968L34.6051 86.6807C34.6051 86.6807 24.59 86.6123 21.6891 79.6297C17.4759 76.4807 13.6771 70.0457 7.66807 68.8135C9.46387 67.7182 11.2597 68.4712 12.7101 67.0336C15.1275 64.9114 18.9264 65.1168 21.8963 63.8161C23.2087 62.7208 24.2447 61.4886 24.6591 60.5987C24.6591 60.5987 28.1126 69.5665 31.1516 74.7692C31.1516 74.8377 38.0585 79.835 37.506 87.2968ZM88.8244 79.6981C85.8545 86.6807 75.9085 86.7492 75.9085 86.7492L73.9055 87.1599C73.0767 87.9814 71.8334 88.8714 71.8334 87.6391C71.8334 85.6539 69.6232 78.8767 69.6232 78.8767C69.6232 78.8767 75.8394 75.3854 78.2569 72.7155C80.6743 70.0457 84.8875 58.408 84.8875 58.408L86.6833 61.9678C87.1668 62.5839 87.8575 63.2685 88.6172 63.9531C91.5872 65.2537 95.386 65.0484 97.8034 67.1705C99.2539 68.6081 101.05 67.8551 102.846 68.9504C96.8365 70.1142 93.1067 76.5491 88.8244 79.6981Z" fill="#2F80ED"/>
<path d="M79.4309 74.8381C82.4699 69.6354 85.9234 60.6675 85.9234 60.6675C86.0615 61.0782 86.3378 61.489 86.6832 61.8997L84.8874 58.34C84.8874 58.34 80.6741 69.9776 78.2567 72.6475C75.8393 75.3173 69.623 78.8086 69.623 78.8086C69.623 78.8086 71.8333 85.5858 71.8333 87.5711C71.8333 88.8717 73.0074 87.9133 73.9053 87.0919L73.0765 87.2972C72.4549 79.8354 79.4309 74.8381 79.4309 74.8381Z" fill="#2F80ED"/>
<path d="M96.9736 69.0879C96.9736 69.0879 96.6283 68.198 94.8325 67.8557C93.7274 67.6503 90.8955 65.8704 88.7544 63.8852C91.7244 65.1859 95.5232 64.9805 97.9406 67.1027C99.3911 68.5403 101.187 67.7872 102.983 68.8825C96.9736 70.1148 93.1748 76.5497 88.9616 79.6987C89.0997 79.3564 89.3069 78.9457 89.4451 78.535C92.2079 70.9362 95.316 71.2785 96.9736 69.0879Z" fill="#173D72"/>
<path d="M13.6081 69.0879C13.6081 69.0879 13.9535 68.198 15.7493 67.8557C16.8544 67.6503 19.6862 65.8704 21.8274 63.8852C18.8574 65.1859 15.0586 64.9805 12.6412 67.1027C11.1907 68.5403 9.39492 67.7872 7.59912 68.8825C13.6081 70.1148 17.407 76.5497 21.6202 79.6987C21.482 79.3564 21.2748 78.9457 21.1367 78.535C18.3739 70.9363 15.1967 71.2785 13.6081 69.0879Z" fill="#173D72"/>
<path d="M49.3871 55.7393C49.3871 55.7393 46.21 66.9662 44.4141 67.1716C42.5493 67.4454 34.9517 69.2253 34.9517 69.2253C34.9517 69.2253 41.0298 67.6508 43.1018 65.5971C45.1739 63.5434 49.3871 55.7393 49.3871 55.7393Z" fill="#173D72"/>
<path d="M61.2656 55.7393C61.2656 55.7393 64.4428 66.9662 66.2386 67.1716C68.1035 67.4454 75.7011 69.2253 75.7011 69.2253C75.7011 69.2253 69.623 67.6508 67.5509 65.5971C65.4098 63.5434 61.2656 55.7393 61.2656 55.7393Z" fill="#173D72"/>
<path d="M55.2578 51.4259C55.3959 46.9762 55.2578 43.6903 55.2578 43.6903C55.2578 43.6903 55.1196 47.0447 55.2578 51.4259C55.0505 58.2032 55.3959 67.5818 52.0806 71.8261C52.0806 71.8261 54.498 82.7792 55.2578 88.4611C56.0175 82.7107 58.4349 71.8261 58.4349 71.8261C55.1196 67.5818 55.534 58.2032 55.2578 51.4259Z" fill="#173D72"/>
<path d="M63.3389 31.7105C62.7173 30.2729 63.1317 20.8259 63.1317 20.8259C63.1317 20.8259 64.0987 18.9091 64.2368 17.6084C64.375 16.3077 63.2699 15.8285 63.2699 15.8285C63.2699 15.8285 63.6152 10.2151 63.7533 9.39357C63.8915 8.57209 63.8915 5.35461 63.1317 4.39622C62.3029 3.43782 59.7473 2.82171 59.7473 2.82171L61.3359 2.2056C58.9185 1.86331 53.8764 2.34251 53.8764 2.34251C63.1317 0.22035 62.9245 2.47943 63.1317 3.16399C63.2699 3.78011 64.7203 6.86066 67.4831 7.33986C68.4501 7.47678 69.6242 7.33986 70.7293 7.13449C72.6633 6.24455 74.2519 5.62844 74.1137 5.6969C73.8375 5.83381 67.345 4.05393 67.345 4.05393L72.8014 0.0149795C72.8014 0.0149795 70.4531 0.631091 67.5522 0.0834363C64.6512 -0.395762 51.1137 1.31566 50.0086 2.00023C48.9035 2.6848 46.2098 7.61369 46.2098 7.61369V13.9802L44.7593 15.3493C44.7593 15.3493 44.6212 17.2661 44.8284 18.0876C45.0356 18.9091 45.7953 20.8943 45.7953 20.8943C45.7953 20.8943 45.7953 22.0581 45.7953 23.9064C45.7953 25.7548 44.7593 29.9991 44.7593 29.9991C44.6212 30.2045 40.2007 35.4072 39.5791 35.6125C40.9605 38.4877 46.2097 36.2971 49.2488 38.077C52.4951 39.9938 56.3629 40.1992 59.9545 39.1038C62.8554 38.2139 65.4801 36.7763 67.8975 34.928C65.7564 33.6273 63.4771 32.2582 63.3389 31.7105Z" fill="#2F80ED"/>
<path d="M67.4841 7.27161C64.7213 6.79241 63.2709 3.71185 63.1327 3.09574C62.9946 2.47963 63.1327 0.22055 53.8774 2.27426C53.8774 2.27426 58.9195 1.79506 61.3369 2.13734L59.7483 2.75345C59.7483 2.75345 62.373 3.36957 63.1327 4.32796C63.9616 5.28636 63.9615 8.50383 63.7543 9.32531C63.6162 10.1468 63.2709 15.7603 63.2709 15.7603C63.2709 15.7603 64.376 16.2395 64.2378 17.5401C64.0997 18.8408 63.1327 20.7576 63.1327 20.7576C63.1327 20.7576 62.7183 30.2047 63.3399 31.6423C63.0636 30.5469 63.409 21.4422 63.8234 21.1684C64.2378 20.8945 65.1357 18.9777 65.1357 18.7039C65.1357 18.4301 65.0667 15.8287 65.0667 15.8287L63.9615 15.1441C63.9615 15.1441 63.9615 13.2274 64.5832 11.1736C64.9285 9.94143 68.1748 8.29846 70.7994 7.06624C69.6252 7.27161 68.451 7.47698 67.4841 7.27161Z" fill="#2F80ED"/>
<path d="M102.916 68.9504C101.12 67.855 99.3242 68.6081 97.8737 67.1705C95.4563 65.0483 91.6575 65.2537 88.6875 63.953C87.3752 62.8577 86.3392 61.6255 85.9247 60.7355C85.9247 60.7355 82.4713 69.7034 79.4322 74.9061C79.4322 74.9061 72.5253 79.9034 73.0779 87.3652L75.9788 86.7491C75.9788 86.7491 85.9938 86.6807 88.8947 79.6981C93.108 76.5491 96.8377 70.1141 102.916 68.9504Z" fill="#173D72"/>
<path d="M31.152 74.8382C28.113 69.6355 24.6595 60.6676 24.6595 60.6676C24.2451 61.626 23.209 62.7898 21.8967 63.8851C18.9267 65.1858 15.1279 64.9804 12.7105 67.1026C11.2601 68.5401 9.46426 67.7871 7.66846 68.8824C13.6775 70.1147 17.4763 76.5496 21.6895 79.6986C24.6595 86.6812 34.6055 86.7497 34.6055 86.7497L37.5064 87.3658C38.0589 79.8355 31.152 74.8382 31.152 74.8382Z" fill="#F2F9FF"/>
<path d="M88.2718 91.473C91.1727 88.0502 97.1817 87.7763 102.224 83.7374C110.512 77.0971 108.716 73.1266 109.96 71.1413C111.134 69.293 110.167 68.2661 109.96 68.1292C109.96 68.0608 109.752 67.5816 107.611 63.6795C104.917 58.6822 100.359 53.6164 100.359 53.6164C100.359 53.6164 99.9445 49.9197 96.7673 45.1962C92.6922 39.172 83.9204 38.5559 81.0195 37.3236C80.3979 37.0498 79.2928 36.7075 77.9805 36.3652C84.6802 38.9666 94.2118 43.1425 95.8004 46.223C98.2178 51.0835 98.9085 54.5748 98.9085 54.5748L97.8034 60.0513C97.8034 60.0513 99.1157 53.8902 103.122 59.6406C107.128 65.3225 109.96 68.403 109.545 69.9776C109.131 71.4836 108.854 77.4394 104.641 80.7253C100.428 84.0112 95.8004 85.3119 92.0015 87.7763C89.3769 89.4193 84.7493 93.3214 81.7793 95.7858C84.3348 94.5536 87.0285 92.9791 88.2718 91.473Z" fill="#173D72"/>
<path d="M88.6875 63.9543C87.3752 62.859 86.3392 61.6268 85.9247 60.7368C85.9247 60.7368 82.4713 69.7047 79.4322 74.9074C79.4322 74.9074 72.5253 79.9047 73.0779 87.3665L75.9788 86.7504C75.9788 86.7504 85.9938 86.682 88.8947 79.6994C93.108 76.5503 96.9068 70.1154 102.916 68.8832C101.12 67.7879 99.3242 68.5409 97.8737 67.1033C95.4563 65.0496 91.6575 65.255 88.6875 63.9543Z" fill="#2F80ED"/>
<path d="M95.3179 233.316C94.9726 231.536 93.1077 231.331 91.7954 231.263C91.2429 231.194 90.7594 231.194 90.5522 230.989C89.8615 230.578 87.0296 227.771 86.5461 221.747C86.3389 219.146 87.444 211.273 88.6182 203.606C89.5852 196.897 90.5522 190.599 90.4831 188.34C90.345 183.48 85.5792 173.553 82.4711 168.077C81.9185 165.202 81.2278 160.82 81.6422 156.371C81.7113 155.481 82.0566 154.454 82.402 153.153C83.6452 149.046 85.5792 142.885 83.0927 130.699C81.435 122.553 80.2608 119.404 79.0867 116.392C77.9125 113.311 76.8074 110.436 75.2879 102.769C75.1497 102.016 74.8734 101.263 74.6662 100.51C74.39 99.6199 74.1137 98.8669 73.9755 98.0454H73.8374C73.8374 98.1823 75.0116 108.725 74.3209 111.326C73.6302 113.927 69.3479 117.213 66.3089 118.103L65.6182 118.309H66.3089C66.5851 118.309 73.0086 118.035 74.7353 116.94C74.8044 116.871 74.9425 116.871 75.0806 116.871C77.0146 116.871 80.6062 124.264 81.7804 132.137C83.0927 140.763 80.6753 154.522 79.7774 156.918C78.8795 159.383 80.0536 166.502 81.0897 168.214C82.0566 169.788 89.7233 184.575 89.3089 189.23C88.4801 197.65 85.8555 202.442 81.1587 203.88L80.8134 203.948L81.1587 204.017C81.1587 204.017 81.2969 204.017 81.5732 204.017C82.6783 204.017 85.6482 203.606 88.7564 199.635C88.1347 202.374 84.2669 219.488 85.5101 224.143C85.7173 224.828 85.8555 225.512 85.9936 226.128C86.8915 229.893 87.5131 232.152 90.2068 232.769L90.5522 232.837C92.0717 233.179 92.9005 233.316 93.0387 233.727C93.1768 234.001 92.9696 234.548 92.5552 235.301C92.4861 235.37 92.4861 235.438 92.4861 235.507L92.417 235.712L92.6242 235.644C94.0747 234.891 95.2489 233.59 95.3179 233.522V233.316Z" fill="#63A5FF"/>
<path d="M35.2273 110.778C35.918 113.379 39.5787 116.391 42.6868 117.213C42.6868 117.213 36.6778 116.871 34.882 115.844C33.0862 114.748 29.2874 122.963 28.1132 131.589C26.939 140.214 29.6327 153.974 30.5997 156.37C31.5666 158.766 30.5997 165.817 29.4946 167.597C28.3895 169.377 21.2063 184.232 21.6897 188.819C22.2423 193.405 23.6927 201.552 30.1853 203.4C30.1853 203.4 26.4555 204.153 22.3114 198.95C22.3114 198.95 27.3534 218.597 26.1102 223.732C24.8669 228.797 24.7288 231.673 21.6207 232.357C18.5126 233.11 18.0981 233.11 19.2032 235.027C19.2723 235.096 19.2723 235.164 19.2723 235.232C17.8219 234.479 16.5786 233.179 16.5786 233.179C17.0621 230.714 20.3774 231.33 21.2753 230.783C22.1042 230.304 24.7288 227.223 25.1432 221.404C25.4886 216.544 19.6177 192.789 19.6867 187.929C19.7558 183 25.2813 173.074 28.2513 167.665C28.8039 164.516 29.2874 160.204 28.8729 155.891C28.4585 152.126 23.969 146.444 26.8699 130.288C29.7708 114.132 32.2573 116.46 35.0201 100.989C35.2964 99.3456 36.2634 98.7294 36.4706 97.2234C36.6087 97.2234 34.5366 108.176 35.2273 110.778Z" fill="#63A5FF"/>
<path d="M223.785 77.7135C222.127 79.0827 220.677 80.7941 219.641 82.5055C217.292 86.2706 216.602 90.3781 216.533 94.6224C239.947 97.9768 264.605 100.441 264.605 100.441C260.461 99.4828 246.716 83.1901 241.743 79.1511C240.362 77.9189 233.04 77.5081 223.785 77.7135Z" fill="#4A90EE"/>
<path d="M143.389 173.211C143.389 173.211 120.735 188.409 105.608 185.602C105.608 185.602 129.714 141.242 127.158 150.278C122.669 166.571 133.029 171.5 143.389 173.211Z" fill="#4A90EE"/>
<path d="M188.835 138.367C188.835 138.367 180.34 120.02 148.775 112.285C117.28 104.618 199.265 112.696 199.956 117.419C200.577 122.074 196.709 134.259 188.835 138.367Z" fill="#4A90EE"/>
<path d="M25.5563 37.4621C25.5563 37.4621 23.6914 67.6515 54.22 86.8879C104.779 118.72 108.163 166.777 105.469 181.701C102.707 196.624 117.073 164.107 138.277 156.645C156.995 150.074 158.1 166.777 158.1 166.777C158.1 166.777 162.175 153.907 171.085 137.683C179.995 121.459 198.437 111.259 199.127 120.089C199.818 128.92 188.905 138.367 188.905 138.367C188.905 138.367 210.109 128.92 218.26 116.051C226.479 103.181 211.422 85.5872 228.482 80.1791C245.542 74.7711 244.851 97.088 264.674 100.511C284.497 103.865 308.395 90.3792 319.999 74.0865C319.999 74.0865 270.821 76.1402 252.38 68.6784C233.938 61.1481 207.968 44.2393 174.47 43.5547C140.971 42.8702 113.689 46.293 94.5565 40.2003C75.4243 34.0392 59.6765 25.9613 25.5563 37.4621Z" fill="#F2994A"/>
<path opacity="0.3" d="M29.8384 39.1042C29.8384 39.1042 31.496 62.1057 70.313 84.4226C100.151 101.605 149.535 149.183 155.199 158.014C155.199 158.014 132.406 118.309 88.5473 92.2952C33.1537 59.4359 34.1207 45.3338 29.8384 39.1042Z" fill="#FFBD83"/>
<path opacity="0.3" d="M38.7485 37.8029C38.7485 37.8029 52.7005 80.52 122.599 94.006C187.04 106.397 198.851 117.007 198.851 117.007C198.851 117.007 180.341 99.6195 134.893 92.7053C76.8748 83.8059 53.0459 62.1051 38.7485 37.8029Z" fill="#FFBD83"/>
<path opacity="0.3" d="M235.044 77.8506C235.044 77.8506 181.032 80.1782 161.762 78.5352C142.56 76.8923 101.74 81.1366 59.6772 39.4464C59.6772 39.4464 98.7704 75.5916 154.509 75.5916C154.924 75.5916 235.044 77.8506 235.044 77.8506Z" fill="#FFBD83"/>
<path d="M197.608 62.4476C254.866 68.1295 254.314 79.3564 316.545 74.0853C305.701 74.3591 267.575 74.9067 251.827 68.5403C233.386 61.0785 207.416 44.1696 173.917 43.485C140.418 42.8005 113.136 46.2233 94.0039 40.1307C89.3762 38.6931 85.0249 37.1186 80.4663 35.681C86.3372 41.9105 96.2832 52.3844 197.608 62.4476Z" fill="#F2994A"/>
<path opacity="0.3" d="M197.608 62.4476C254.866 68.1295 254.314 79.3564 316.545 74.0853C305.701 74.3591 267.575 74.9067 251.827 68.5403C233.386 61.0785 207.416 44.1696 173.917 43.485C140.418 42.8005 113.136 46.2233 94.0039 40.1307C89.3762 38.6931 85.0249 37.1186 80.4663 35.681C86.3372 41.9105 96.2832 52.3844 197.608 62.4476Z" fill="#F2994A"/>
</svg>
